<?xml version="1.0" encoding="UTF-8" standalone="no"?>
<!-- Created with Inkscape (http://www.inkscape.org/) -->

<svg
   xmlns:dc="http://purl.org/dc/elements/1.1/"
   xmlns:cc="http://creativecommons.org/ns#"
   xmlns:rdf="http://www.w3.org/1999/02/22-rdf-syntax-ns#"
   xmlns:svg="http://www.w3.org/2000/svg"
   xmlns="http://www.w3.org/2000/svg"
   xmlns:sodipodi="http://sodipodi.sourceforge.net/DTD/sodipodi-0.dtd"
   xmlns:inkscape="http://www.inkscape.org/namespaces/inkscape"
   width="35"
   height="34.889427"
   viewBox="0 0 9.2604164 9.2311614"
   version="1.1"
   id="svg4332"
   inkscape:version="0.92.2 (5c3e80d, 2017-08-06)"
   sodipodi:docname="messageHistory.svg">
  <defs
     id="defs4326" />
  <sodipodi:namedview
     id="base"
     pagecolor="#ffffff"
     bordercolor="#666666"
     borderopacity="1.0"
     inkscape:pageopacity="0.0"
     inkscape:pageshadow="2"
     inkscape:zoom="2.8"
     inkscape:cx="-38.385003"
     inkscape:cy="63.083458"
     inkscape:document-units="mm"
     inkscape:current-layer="layer1"
     showgrid="false"
     units="px"
     fit-margin-top="0"
     fit-margin-left="0"
     fit-margin-right="0"
     fit-margin-bottom="0" />
  <metadata
     id="metadata4329">
    <rdf:RDF>
      <cc:Work
         rdf:about="">
        <dc:format>image/svg+xml</dc:format>
        <dc:type
           rdf:resource="http://purl.org/dc/dcmitype/StillImage" />
        <dc:title></dc:title>
      </cc:Work>
    </rdf:RDF>
  </metadata>
  <g
     inkscape:label="Layer 1"
     inkscape:groupmode="layer"
     id="layer1"
     transform="translate(7.7867006,-294.76066)">
    <g
       transform="matrix(0.37575487,0,0,0.37575487,-30.625421,444.26178)"
       id="g51491"
       style="stroke:#000000;stroke-opacity:1">
      <g
         transform="matrix(0.35277777,0,0,-0.35277777,85.07296,-385.58698)"
         id="g44772"
         style="fill:#000000;fill-opacity:1;stroke:#000000;stroke-opacity:1">
        <path
           style="color:#000000;font-style:normal;font-variant:normal;font-weight:normal;font-stretch:normal;font-size:medium;line-height:normal;font-family:sans-serif;font-variant-ligatures:normal;font-variant-position:normal;font-variant-caps:normal;font-variant-numeric:normal;font-variant-alternates:normal;font-feature-settings:normal;text-indent:0;text-align:start;text-decoration:none;text-decoration-line:none;text-decoration-style:solid;text-decoration-color:#000000;letter-spacing:normal;word-spacing:normal;text-transform:none;writing-mode:lr-tb;direction:ltr;text-orientation:mixed;dominant-baseline:auto;baseline-shift:baseline;text-anchor:start;white-space:normal;shape-padding:0;clip-rule:nonzero;display:inline;overflow:visible;visibility:visible;opacity:1;isolation:auto;mix-blend-mode:normal;color-interpolation:sRGB;color-interpolation-filters:linearRGB;solid-color:#000000;solid-opacity:1;vector-effect:none;fill:#000000;fill-opacity:1;fill-rule:nonzero;stroke:none;stroke-width:2;stroke-linecap:butt;stroke-linejoin:miter;stroke-miterlimit:10;stroke-dasharray:none;stroke-dashoffset:0;stroke-opacity:1;color-rendering:auto;image-rendering:auto;shape-rendering:auto;text-rendering:auto;enable-background:accumulate"
           d="m -68.859375,-34.824219 1.033203,1.552735 c 6.658375,10.017279 2.936267,21.394418 0.634766,29.537109 h -0.002 c -1.35477,4.8151084 -1.248179,9.9373575 0.326171,14.6875 4.592799,13.861808 17.65689,23.861328 33.044922,23.861328 C -14.600966,34.814453 1,19.214573 1,0 1,-19.222342 -14.600859,-34.824219 -33.822266,-34.824219 Z m 3.529297,2 h 31.507812 C -15.681672,-32.824219 -1,-18.141658 -1,0 c 0,18.133427 -14.681565,32.814453 -32.822266,32.814453 -14.521967,0 -26.819283,-9.430042 -31.146484,-22.490234 -1.447649,-4.3678577 -1.546058,-9.0827336 -0.298828,-13.5156252 2.171423,-7.6824748 5.846896,-19.1512928 -0.0625,-29.6328128 z"
           id="path44774"
           inkscape:connector-curvature="0" />
      </g>
      <g
         transform="matrix(0.35277777,0,0,-0.35277777,68.666395,-378.45769)"
         id="g44776"
         style="fill:#000000;fill-opacity:1;stroke:#000000;stroke-opacity:1">
        <path
           style="color:#000000;font-style:normal;font-variant:normal;font-weight:normal;font-stretch:normal;font-size:medium;line-height:normal;font-family:sans-serif;font-variant-ligatures:normal;font-variant-position:normal;font-variant-caps:normal;font-variant-numeric:normal;font-variant-alternates:normal;font-feature-settings:normal;text-indent:0;text-align:start;text-decoration:none;text-decoration-line:none;text-decoration-style:solid;text-decoration-color:#000000;letter-spacing:normal;word-spacing:normal;text-transform:none;writing-mode:lr-tb;direction:ltr;text-orientation:mixed;dominant-baseline:auto;baseline-shift:baseline;text-anchor:start;white-space:normal;shape-padding:0;clip-rule:nonzero;display:inline;overflow:visible;visibility:visible;opacity:1;isolation:auto;mix-blend-mode:normal;color-interpolation:sRGB;color-interpolation-filters:linearRGB;solid-color:#000000;solid-opacity:1;vector-effect:none;fill:#000000;fill-opacity:1;fill-rule:nonzero;stroke:none;stroke-width:1;stroke-linecap:butt;stroke-linejoin:miter;stroke-miterlimit:10;stroke-dasharray:none;stroke-dashoffset:0;stroke-opacity:1;color-rendering:auto;image-rendering:auto;shape-rendering:auto;text-rendering:auto;enable-background:accumulate"
           d="M 0.20703125,-0.45507812 0,0 -0.43359375,-0.25 c -0.029766,0.051414 -0.0528839,0.0908235 -0.0800781,0.13085938 L -0.74414062,0.21875 -0.45703125,0.51171875 C 2.1861618,3.1957018 4.8654854,5.9176704 7.6777344,8.7695312 H 7.5234375 c -3.2315875,0 -6.4674174,-0.00519 -9.7011719,0.00781 -1.2699406,0.00218 -2.3537078,0.4090655 -3.1074218,1.1816406 -0.7537141,0.7725742 -1.1534852,1.8803322 -1.1777344,3.1914062 -0.02321,1.056763 -0.00781,2.104332 -0.00781,3.142578 -0.009,4.959193 -0.028825,9.914132 -0.00781,14.876953 v 0.002 c 0.018068,2.214474 1.7397457,4.009072 3.8730468,4.013672 9.8054082,0.012 19.6161268,0.01224 29.4218748,-0.0098 h 0.002 c 2.14756,-0.0091 3.843111,-1.786448 3.855469,-4.017578 0.02,-6.05788 0.02482,-12.112859 0.0078,-18.166015 C 30.67788,11.766621 30.264235,10.704009 29.527383,9.9570416 28.790492,9.2100637 27.743988,8.7933831 26.552734,8.78125 24.782845,8.7641642 23.027001,8.7954318 21.277344,8.765625 h -0.002 -0.0039 C 20.861987,8.762015 20.433182,8.697363 20.117148,8.5546875 h -0.002 C 15.668115,6.5605307 11.229841,4.5357691 6.7871094,2.5234375 4.5945972,1.5247487 2.3970918,0.53749608 0.20703125,-0.45507812 Z M 1.7753906,1.3515625 c 1.5332117,0.6927921 3.0677004,1.3851367 4.5976563,2.0820313 4.4404841,2.0113131 8.8819401,4.0357492 13.3320311,6.03125 0.506738,0.2287701 1.057093,0.2961039 1.554688,0.3007812 1.772342,0.030193 3.531092,-0.00129 5.283203,0.015625 0.968746,0.00987 1.735539,0.333624 2.273437,0.878906 0.537898,0.545283 0.862077,1.328515 0.865235,2.335938 0.017,6.050843 0.01218,12.102083 -0.0078,18.158203 -0.01061,1.739817 -1.251568,3.014635 -2.859375,3.021484 -9.804252,0.022 -19.6133768,0.02177 -29.4179686,0.0098 -1.5760799,-0.0034 -2.8600758,-1.312988 -2.875,-3.019531 v -0.002 c -0.020974,-4.956527 -0.00119,-9.910938 0.00781,-14.871093 0,-1.049109 -0.014914,-2.090478 0.00781,-3.123047 v -0.002 c 0.020751,-1.121927 0.3475422,-1.953044 0.8925781,-2.511719 0.5450359,-0.558675 1.3304719,-0.8770827 2.3945313,-0.8789062 h 0.00195 c 3.2302455,-0.012993 6.4648531,-0.00781 9.6972656,-0.00781 H 10.068359 L 9.2285156,8.9179688 C 6.6177701,6.2715051 4.2027273,3.8167016 1.7753906,1.3515625 Z"
           id="path44778"
           inkscape:connector-curvature="0" />
      </g>
      <g
         aria-label=". . ."
         style="font-variant:normal;font-weight:normal;font-stretch:normal;font-size:9.2901907px;font-family:'Myriad Pro';-inkscape-font-specification:NouvelleVague-Black;writing-mode:lr-tb;fill:#000000;fill-opacity:1;fill-rule:nonzero;stroke:#000000;stroke-width:0.35277775;stroke-opacity:1"
         id="text44782">
        <path
           style="color:#000000;font-style:normal;font-variant:normal;font-weight:normal;font-stretch:normal;font-size:medium;line-height:normal;font-family:'Myriad Pro';-inkscape-font-specification:NouvelleVague-Black;font-variant-ligatures:normal;font-variant-position:normal;font-variant-caps:normal;font-variant-numeric:normal;font-variant-alternates:normal;font-feature-settings:normal;text-indent:0;text-align:start;text-decoration:none;text-decoration-line:none;text-decoration-style:solid;text-decoration-color:#000000;letter-spacing:normal;word-spacing:normal;text-transform:none;writing-mode:lr-tb;direction:ltr;text-orientation:mixed;dominant-baseline:auto;baseline-shift:baseline;text-anchor:start;white-space:normal;shape-padding:0;clip-rule:nonzero;display:inline;overflow:visible;visibility:visible;opacity:1;isolation:auto;mix-blend-mode:normal;color-interpolation:sRGB;color-interpolation-filters:linearRGB;solid-color:#000000;solid-opacity:1;vector-effect:none;fill:#000000;fill-opacity:1;fill-rule:nonzero;stroke:none;stroke-width:0.35277775;stroke-linecap:butt;stroke-linejoin:miter;stroke-miterlimit:4;stroke-dasharray:none;stroke-dashoffset:0;stroke-opacity:1;color-rendering:auto;image-rendering:auto;shape-rendering:auto;text-rendering:auto;enable-background:accumulate"
           d="m 68.894531,-385.77148 c -0.415872,0 -0.732422,0.34561 -0.732422,0.76171 0,0.41285 0.305594,0.76172 0.714844,0.76172 h 0.0098 c 0.422643,0 0.732422,-0.34887 0.732422,-0.76172 0,-0.42 -0.312097,-0.76171 -0.72461,-0.76171 z m 0,0.35351 c 0.237801,0 0.373047,0.14075 0.373047,0.4082 0,0.25606 -0.134608,0.40821 -0.380859,0.40821 h -0.0098 c -0.222482,0 -0.363281,-0.15215 -0.363281,-0.40821 0,-0.25277 0.146419,-0.4082 0.380859,-0.4082 z"
           id="path2195"
           inkscape:connector-curvature="0" />
        <path
           style="color:#000000;font-style:normal;font-variant:normal;font-weight:normal;font-stretch:normal;font-size:medium;line-height:normal;font-family:'Myriad Pro';-inkscape-font-specification:NouvelleVague-Black;font-variant-ligatures:normal;font-variant-position:normal;font-variant-caps:normal;font-variant-numeric:normal;font-variant-alternates:normal;font-feature-settings:normal;text-indent:0;text-align:start;text-decoration:none;text-decoration-line:none;text-decoration-style:solid;text-decoration-color:#000000;letter-spacing:normal;word-spacing:normal;text-transform:none;writing-mode:lr-tb;direction:ltr;text-orientation:mixed;dominant-baseline:auto;baseline-shift:baseline;text-anchor:start;white-space:normal;shape-padding:0;clip-rule:nonzero;display:inline;overflow:visible;visibility:visible;opacity:1;isolation:auto;mix-blend-mode:normal;color-interpolation:sRGB;color-interpolation-filters:linearRGB;solid-color:#000000;solid-opacity:1;vector-effect:none;fill:#000000;fill-opacity:1;fill-rule:nonzero;stroke:none;stroke-width:0.35277775;stroke-linecap:butt;stroke-linejoin:miter;stroke-miterlimit:4;stroke-dasharray:none;stroke-dashoffset:0;stroke-opacity:1;color-rendering:auto;image-rendering:auto;shape-rendering:auto;text-rendering:auto;enable-background:accumulate"
           d="m 71.337891,-385.77148 c -0.415873,0 -0.732422,0.34561 -0.732422,0.76171 0,0.41285 0.305593,0.76172 0.714843,0.76172 h 0.0098 c 0.422643,0 0.732422,-0.34887 0.732422,-0.76172 0,-0.42 -0.312096,-0.76171 -0.724609,-0.76171 z m 0,0.35351 c 0.2378,0 0.373046,0.14075 0.373047,0.4082 0,0.25606 -0.134609,0.40821 -0.38086,0.40821 h -0.0098 c -0.222483,0 -0.363281,-0.15215 -0.363281,-0.40821 0,-0.25277 0.14642,-0.4082 0.38086,-0.4082 z"
           id="path2197"
           inkscape:connector-curvature="0" />
        <path
           style="color:#000000;font-style:normal;font-variant:normal;font-weight:normal;font-stretch:normal;font-size:medium;line-height:normal;font-family:'Myriad Pro';-inkscape-font-specification:NouvelleVague-Black;font-variant-ligatures:normal;font-variant-position:normal;font-variant-caps:normal;font-variant-numeric:normal;font-variant-alternates:normal;font-feature-settings:normal;text-indent:0;text-align:start;text-decoration:none;text-decoration-line:none;text-decoration-style:solid;text-decoration-color:#000000;letter-spacing:normal;word-spacing:normal;text-transform:none;writing-mode:lr-tb;direction:ltr;text-orientation:mixed;dominant-baseline:auto;baseline-shift:baseline;text-anchor:start;white-space:normal;shape-padding:0;clip-rule:nonzero;display:inline;overflow:visible;visibility:visible;opacity:1;isolation:auto;mix-blend-mode:normal;color-interpolation:sRGB;color-interpolation-filters:linearRGB;solid-color:#000000;solid-opacity:1;vector-effect:none;fill:#000000;fill-opacity:1;fill-rule:nonzero;stroke:none;stroke-width:0.35277775;stroke-linecap:butt;stroke-linejoin:miter;stroke-miterlimit:4;stroke-dasharray:none;stroke-dashoffset:0;stroke-opacity:1;color-rendering:auto;image-rendering:auto;shape-rendering:auto;text-rendering:auto;enable-background:accumulate"
           d="m 73.78125,-385.77148 c -0.415873,0 -0.732422,0.34561 -0.732422,0.76171 0,0.41285 0.305594,0.76172 0.714844,0.76172 h 0.0098 c 0.422643,0 0.732421,-0.34887 0.732421,-0.76172 0,-0.42 -0.312096,-0.76171 -0.724609,-0.76171 z m 0,0.35351 c 0.237801,0 0.373047,0.14075 0.373047,0.4082 0,0.25606 -0.134609,0.40821 -0.380859,0.40821 h -0.0098 c -0.222482,0 -0.363281,-0.15215 -0.363281,-0.40821 0,-0.25277 0.146418,-0.4082 0.380859,-0.4082 z"
           id="path2199"
           inkscape:connector-curvature="0" />
      </g>
    </g>
  </g>
</svg>
