<?xml version="1.0" encoding="UTF-8" standalone="no"?>
<!-- Created with Inkscape (http://www.inkscape.org/) -->

<svg
   xmlns:dc="http://purl.org/dc/elements/1.1/"
   xmlns:cc="http://creativecommons.org/ns#"
   xmlns:rdf="http://www.w3.org/1999/02/22-rdf-syntax-ns#"
   xmlns:svg="http://www.w3.org/2000/svg"
   xmlns="http://www.w3.org/2000/svg"
   xmlns:sodipodi="http://sodipodi.sourceforge.net/DTD/sodipodi-0.dtd"
   xmlns:inkscape="http://www.inkscape.org/namespaces/inkscape"
   width="35"
   height="35.012119"
   viewBox="0 0 9.260417 9.2636232"
   version="1.1"
   id="svg13502"
   inkscape:version="0.92.2 (5c3e80d, 2017-08-06)"
   sodipodi:docname="skype.svg">
  <defs
     id="defs13496" />
  <sodipodi:namedview
     id="base"
     pagecolor="#ffffff"
     bordercolor="#666666"
     borderopacity="1.0"
     inkscape:pageopacity="0.0"
     inkscape:pageshadow="2"
     inkscape:zoom="0.35"
     inkscape:cx="669.7208"
     inkscape:cy="-138.82847"
     inkscape:document-units="px"
     inkscape:current-layer="layer1"
     showgrid="false"
     fit-margin-top="0"
     fit-margin-left="0"
     fit-margin-right="0"
     fit-margin-bottom="0"
     units="px" />
  <metadata
     id="metadata13499">
    <rdf:RDF>
      <cc:Work
         rdf:about="">
        <dc:format>image/svg+xml</dc:format>
        <dc:type
           rdf:resource="http://purl.org/dc/dcmitype/StillImage" />
        <dc:title></dc:title>
      </cc:Work>
    </rdf:RDF>
  </metadata>
  <g
     inkscape:label="Layer 1"
     inkscape:groupmode="layer"
     id="layer1"
     transform="translate(221.79815,-102.83801)">
    <g
       transform="matrix(0.27340969,0,0,0.27340969,-260.08893,115.70802)"
       id="g2935"
       style="fill:#010101;fill-opacity:1">
      <g
         transform="matrix(0.35277777,0,0,-0.35277777,162.12701,-25.624815)"
         id="g39828"
         style="fill:#010101;fill-opacity:1">
        <path
           inkscape:connector-curvature="0"
           id="path39830"
           style="fill:#010101;fill-opacity:1;fill-rule:nonzero;stroke:none"
           d="m 0,0 c -1.226,-1.707 -3.035,-3.063 -5.384,-4.025 -2.321,-0.953 -5.11,-1.434 -8.272,-1.434 -3.81,0 -7.002,0.659 -9.492,1.959 -1.778,0.949 -3.249,2.232 -4.364,3.822 -1.121,1.595 -1.69,3.184 -1.69,4.719 0,0.956 0.372,1.786 1.105,2.461 0.721,0.676 1.651,1.016 2.765,1.016 0.91,0 1.693,-0.267 2.334,-0.801 0.607,-0.508 1.135,-1.262 1.551,-2.239 0.468,-1.06 0.984,-1.956 1.519,-2.655 0.524,-0.681 1.274,-1.251 2.221,-1.696 0.965,-0.447 2.257,-0.676 3.851,-0.676 2.188,0 3.985,0.461 5.335,1.369 1.322,0.888 1.96,1.953 1.96,3.261 0,1.03 -0.332,1.84 -1.022,2.476 -0.722,0.663 -1.679,1.18 -2.827,1.541 -1.201,0.367 -2.837,0.766 -4.86,1.187 -2.751,0.578 -5.088,1.266 -6.942,2.043 -1.899,0.8 -3.433,1.902 -4.55,3.283 -0.366,0.452 -0.663,0.943 -0.916,1.467 -0.526,1.105 -0.802,2.362 -0.802,3.77 0,1.972 0.607,3.756 1.8,5.286 1.182,1.523 2.918,2.706 5.14,3.517 2.206,0.798 4.817,1.21 7.78,1.21 2.365,0 4.441,-0.275 6.178,-0.806 1.748,-0.534 3.219,-1.261 4.376,-2.152 1.165,-0.895 2.034,-1.856 2.575,-2.851 0.551,-1.009 0.83,-2.01 0.83,-2.976 0,-0.936 -0.367,-1.786 -1.082,-2.525 -0.73,-0.74 -1.644,-1.118 -2.725,-1.118 -0.982,0 -1.751,0.236 -2.281,0.699 -0.495,0.436 -1.008,1.109 -1.58,2.077 -0.665,1.234 -1.463,2.209 -2.38,2.899 -0.892,0.67 -2.378,1.005 -4.423,1.005 -1.898,0 -3.447,-0.373 -4.59,-1.119 -1.101,-0.715 -1.643,-1.53 -1.643,-2.501 0,-0.597 0.173,-1.093 0.532,-1.52 0.372,-0.456 0.905,-0.849 1.577,-1.185 0.697,-0.344 1.419,-0.621 2.132,-0.813 0.138,-0.038 0.293,-0.079 0.457,-0.121 0.755,-0.197 1.828,-0.45 3.213,-0.765 2.142,-0.458 4.114,-0.961 5.853,-1.513 1.766,-0.562 3.29,-1.241 4.53,-2.042 1.273,-0.814 2.274,-1.858 2.99,-3.108 C 1.494,9.17 1.855,7.62 1.855,5.827 1.854,3.68 1.227,1.713 0,0 m 12.291,6.881 c 0.402,1.807 0.61,3.677 0.61,5.605 0,0.662 -0.033,1.316 -0.082,1.967 -1.02,13.502 -12.451,24.145 -26.411,24.145 -1.542,0 -3.054,-0.127 -4.527,-0.376 -2.371,1.47 -5.167,2.323 -8.173,2.323 -8.485,0 -15.359,-6.78 -15.359,-15.148 0,-2.797 0.77,-5.412 2.104,-7.664 -0.193,-0.942 -0.332,-1.907 -0.42,-2.885 -0.076,-0.779 -0.115,-1.568 -0.115,-2.362 0,-14.43 11.863,-26.124 26.494,-26.124 1.656,0 3.277,0.153 4.85,0.437 2.164,-1.142 4.639,-1.797 7.261,-1.797 8.491,0 15.364,6.783 15.364,15.154 0,2.414 -0.573,4.697 -1.596,6.725" />
      </g>
      <g
         transform="matrix(0.35277777,0,0,-0.35277777,173.56642,-30.133386)"
         id="g39864"
         style="fill:#010101;fill-opacity:1">
        <path
           style="color:#000000;font-style:normal;font-variant:normal;font-weight:normal;font-stretch:normal;font-size:medium;line-height:normal;font-family:sans-serif;font-variant-ligatures:normal;font-variant-position:normal;font-variant-caps:normal;font-variant-numeric:normal;font-variant-alternates:normal;font-feature-settings:normal;text-indent:0;text-align:start;text-decoration:none;text-decoration-line:none;text-decoration-style:solid;text-decoration-color:#000000;letter-spacing:normal;word-spacing:normal;text-transform:none;writing-mode:lr-tb;direction:ltr;text-orientation:mixed;dominant-baseline:auto;baseline-shift:baseline;text-anchor:start;white-space:normal;shape-padding:0;clip-rule:nonzero;display:inline;overflow:visible;visibility:visible;opacity:1;isolation:auto;mix-blend-mode:normal;color-interpolation:sRGB;color-interpolation-filters:linearRGB;solid-color:#000000;solid-opacity:1;vector-effect:none;fill:#010101;fill-opacity:1;fill-rule:nonzero;stroke:none;stroke-width:2;stroke-linecap:butt;stroke-linejoin:miter;stroke-miterlimit:10;stroke-dasharray:none;stroke-dashoffset:0;stroke-opacity:1;color-rendering:auto;image-rendering:auto;shape-rendering:auto;text-rendering:auto;enable-background:accumulate"
           d="m -95.009766,-48.027344 1.033204,1.554688 c 9.369319,14.095213 4.125186,30.081655 0.933593,41.3867185 -1.862785,6.6191169 -1.717863,13.6613831 0.44336,20.1914065 v 0.002 c 6.33383,19.115891 24.350077,32.908203 45.576171,32.908203 C -20.511112,48.015625 1,26.505522 1,0 1,-26.514335 -20.511035,-48.027344 -47.023438,-48.027344 Z m 3.529297,2 h 44.457031 C -21.59184,-46.027344 -1,-25.433665 -1,0 c 0,25.424478 -20.591763,46.015625 -46.023438,46.015625 -20.359267,0 -37.609054,-13.223894 -43.677734,-31.537109 v -0.002 C -92.735177,8.3297008 -92.873635,1.692765 -91.119141,-4.5429688 v -0.00195 c 3.060255,-10.8395712 8.238866,-26.9169832 -0.361328,-41.4824222 z"
           id="path39866"
           inkscape:connector-curvature="0" />
      </g>
    </g>
  </g>
</svg>
