<?xml version="1.0" encoding="UTF-8" standalone="no"?>
<!-- Created with Inkscape (http://www.inkscape.org/) -->

<svg
   xmlns:dc="http://purl.org/dc/elements/1.1/"
   xmlns:cc="http://creativecommons.org/ns#"
   xmlns:rdf="http://www.w3.org/1999/02/22-rdf-syntax-ns#"
   xmlns:svg="http://www.w3.org/2000/svg"
   xmlns="http://www.w3.org/2000/svg"
   xmlns:sodipodi="http://sodipodi.sourceforge.net/DTD/sodipodi-0.dtd"
   xmlns:inkscape="http://www.inkscape.org/namespaces/inkscape"
   width="35"
   height="35.011391"
   viewBox="0 0 9.2604165 9.2634307"
   version="1.1"
   id="svg31243"
   inkscape:version="0.92.2 (5c3e80d, 2017-08-06)"
   sodipodi:docname="agroindustry.svg">
  <defs
     id="defs31237">
    <clipPath
       clipPathUnits="userSpaceOnUse"
       id="clipPath39436">
      <path
         d="m 4729.457,1748.348 h 47.627 v 54.212 h -47.627 z"
         id="path39434"
         inkscape:connector-curvature="0" />
    </clipPath>
  </defs>
  <sodipodi:namedview
     id="base"
     pagecolor="#ffffff"
     bordercolor="#666666"
     borderopacity="1.0"
     inkscape:pageopacity="0.0"
     inkscape:pageshadow="2"
     inkscape:zoom="0.35"
     inkscape:cx="-281.70778"
     inkscape:cy="-278.82976"
     inkscape:document-units="px"
     inkscape:current-layer="layer1"
     showgrid="false"
     units="px"
     fit-margin-top="0"
     fit-margin-left="0"
     fit-margin-right="0"
     fit-margin-bottom="0" />
  <metadata
     id="metadata31240">
    <rdf:RDF>
      <cc:Work
         rdf:about="">
        <dc:format>image/svg+xml</dc:format>
        <dc:type
           rdf:resource="http://purl.org/dc/dcmitype/StillImage" />
        <dc:title></dc:title>
      </cc:Work>
    </rdf:RDF>
  </metadata>
  <g
     inkscape:label="Layer 1"
     inkscape:groupmode="layer"
     id="layer1"
     transform="translate(-44.297087,-65.796188)">
    <g
       transform="matrix(0.27340969,0,0,0.27340969,52.643526,-28.525899)"
       id="g31210">
      <g
         style="fill:#010101;fill-opacity:1"
         transform="matrix(0.35277777,0,0,-0.35277777,2.9901099,361.92259)"
         id="g38336">
        <path
           inkscape:connector-curvature="0"
           id="path38338"
           d="m -95.009766,-48.027344 1.033204,1.554688 c 9.369284,14.094191 4.12519,30.080636 0.933593,41.3867185 -1.862778,6.6190909 -1.717853,13.6614129 0.44336,20.1914065 6.33383,19.115891 24.350077,32.908203 45.576171,32.908203 C -20.511138,48.013672 1,26.505522 1,0 1,-26.515314 -20.511061,-48.027344 -47.023438,-48.027344 Z m 3.529297,2 h 44.457031 C -21.591814,-46.027344 -1,-25.434686 -1,0 c 0,25.424478 -20.591737,46.013672 -46.023438,46.013672 -20.359905,0 -37.609565,-13.223001 -43.677734,-31.53711 -2.034586,-6.1473978 -2.172643,-12.7831598 -0.417969,-19.0195308 v -0.00195 c 3.060251,-10.8405192 8.238897,-26.9178622 -0.361328,-41.4824222 z"
           style="color:#000000;font-style:normal;font-variant:normal;font-weight:normal;font-stretch:normal;font-size:medium;line-height:normal;font-family:sans-serif;font-variant-ligatures:normal;font-variant-position:normal;font-variant-caps:normal;font-variant-numeric:normal;font-variant-alternates:normal;font-feature-settings:normal;text-indent:0;text-align:start;text-decoration:none;text-decoration-line:none;text-decoration-style:solid;text-decoration-color:#000000;letter-spacing:normal;word-spacing:normal;text-transform:none;writing-mode:lr-tb;direction:ltr;text-orientation:mixed;dominant-baseline:auto;baseline-shift:baseline;text-anchor:start;white-space:normal;shape-padding:0;clip-rule:nonzero;display:inline;overflow:visible;visibility:visible;opacity:1;isolation:auto;mix-blend-mode:normal;color-interpolation:sRGB;color-interpolation-filters:linearRGB;solid-color:#000000;solid-opacity:1;vector-effect:none;fill:#010101;fill-opacity:1;fill-rule:nonzero;stroke:none;stroke-width:2;stroke-linecap:butt;stroke-linejoin:miter;stroke-miterlimit:10;stroke-dasharray:none;stroke-dashoffset:0;stroke-opacity:1;color-rendering:auto;image-rendering:auto;shape-rendering:auto;text-rendering:auto;enable-background:accumulate" />
      </g>
      <g
         style="fill:#010101;fill-opacity:1"
         id="g39430"
         transform="matrix(0.35277777,0,0,-0.35277777,-1689.8433,988.21486)">
        <g
           style="fill:#010101;fill-opacity:1"
           clip-path="url(#clipPath39436)"
           id="g39432">
          <g
             style="fill:#010101;fill-opacity:1"
             transform="translate(4762.4844,1762.9414)"
             id="g39438">
            <path
               inkscape:connector-curvature="0"
               id="path39440"
               style="fill:#010101;fill-opacity:1;fill-rule:nonzero;stroke:none"
               d="m 0,0 c -0.119,0.555 -0.691,0.881 -1.226,0.701 l -2.016,-0.67 -0.936,2.807 c -0.17,0.508 -0.718,0.783 -1.226,0.613 l -0.224,-0.074 -3.161,9.484 c 1.379,0.948 2.072,2.746 1.496,4.475 -0.153,0.459 -0.582,0.748 -1.043,0.748 -0.135,-1.902 -1.534,-3.469 -3.404,-3.814 l -2.474,-0.457 c 0.735,-1.03 1.959,-1.694 3.349,-1.641 L -7.703,2.686 -7.928,2.611 C -8.436,2.441 -8.71,1.893 -8.541,1.387 l 0.937,-2.811 -0.283,-0.092 c -0.119,0.25 -0.279,0.487 -0.486,0.696 l -8.606,8.699 c -0.333,0.338 -0.756,0.576 -1.218,0.687 0,0 -9.744,1.961 -10.606,2.122 0.834,0.037 6.709,0.298 7.573,0.337 h 0.001 l 0.282,1.598 c -1.071,-0.113 -2.797,0.631 -3.397,1.672 -0.487,0.848 -3.834,6.662 -4.281,7.439 l 6.055,-6.42 c 0.498,-0.513 1.224,-0.742 1.918,-0.613 l 8.539,1.58 c 1.226,0.227 2.009,1.463 1.66,2.684 -0.297,1.037 -1.346,1.709 -2.436,1.508 l -7.248,-1.344 -5.64,5.818 6.316,-3.843 c 0.07,0.312 0.024,0.072 0.25,1.345 0.285,1.623 -0.797,3.17 -2.42,3.457 l -5.238,0.926 c -1.623,0.285 -3.17,-0.797 -3.457,-2.42 -0.117,-0.656 -2.569,-14.541 -2.68,-15.174 l 0.002,0.002 c -0.176,-1.285 0.648,-2.521 1.936,-2.832 l 10.964,-2.642 8.096,-8.184 c 0.701,-0.709 1.758,-0.955 2.72,-0.592 0.546,-0.859 1.194,-1.707 1.89,-2.47 1.097,1.091 2.541,1.835 4.15,2.046 0.825,1.452 2.059,2.608 3.522,3.348 C 0.229,-1.355 0.138,-0.646 0,0" />
          </g>
          <g
             style="fill:#010101;fill-opacity:1"
             transform="translate(4777.0176,1749.7129)"
             id="g39442">
            <path
               inkscape:connector-curvature="0"
               id="path39444"
               style="fill:#010101;fill-opacity:1;fill-rule:nonzero;stroke:none"
               d="m 0,0 c -0.537,1.893 -2.266,3.225 -4.225,3.27 0.2,3.572 -2.656,6.587 -6.233,6.587 -2.704,0 -5.051,-1.72 -5.903,-4.207 -3.388,0.313 -6.14,-2.763 -5.412,-6.115 0.095,-0.441 0.486,-0.756 0.939,-0.756 h 19.91 C -0.287,-1.223 0.173,-0.611 0,0" />
          </g>
          <g
             style="fill:#010101;fill-opacity:1"
             transform="translate(4740.7949,1760.3984)"
             id="g39446">
            <path
               inkscape:connector-curvature="0"
               id="path39448"
               style="fill:#010101;fill-opacity:1;fill-rule:nonzero;stroke:none"
               d="m 0,0 -0.619,4.855 -5.326,1.344 0.802,-6.303 -2.58,-8.521 c -0.408,-1.352 0.356,-2.779 1.707,-3.189 1.354,-0.409 2.781,0.357 3.19,1.707 l 2.736,9.045 C 0.014,-0.719 0.044,-0.357 0,0" />
          </g>
          <g
             style="fill:#010101;fill-opacity:1"
             transform="translate(4746.9863,1800.332)"
             id="g39450">
            <path
               inkscape:connector-curvature="0"
               id="path39452"
               style="fill:#010101;fill-opacity:1;fill-rule:nonzero;stroke:none"
               d="m 0,0 c -0.131,0.379 -0.748,0.561 -1.703,0.561 -0.797,0 -1.832,-0.127 -3.016,-0.372 -0.34,0.479 -0.762,0.885 -1.241,1.202 -1.196,0.793 -2.733,1.039 -4.193,0.531 -1.458,-0.508 -2.512,-1.656 -2.956,-3.018 -0.18,-0.547 -0.26,-1.125 -0.229,-1.715 -2.369,-1.195 -3.824,-2.384 -3.582,-3.08 0.133,-0.379 0.748,-0.558 1.704,-0.558 1.689,0 4.433,0.564 7.418,1.605 C -3.125,-3.219 0.365,-1.049 0,0" />
          </g>
        </g>
      </g>
      <g
         style="fill:#010101;fill-opacity:1"
         transform="matrix(0.35277777,0,0,-0.35277777,-14.990867,355.75244)"
         id="g39462">
        <path
           inkscape:connector-curvature="0"
           id="path39464"
           style="fill:#010101;fill-opacity:1;fill-rule:nonzero;stroke:none"
           d="m 0,0 c -0.064,0.332 -0.386,0.549 -0.717,0.482 l -3.226,-0.628 c 0.003,0.275 -0.02,0.546 -0.067,0.81 -1.185,-0.572 -2.526,-1.123 -3.94,-1.615 -1.495,-0.522 -2.972,-0.938 -4.312,-1.227 0.614,-1.164 1.741,-2.041 3.136,-2.289 2.214,-0.39 4.334,0.944 4.983,3.037 l 3.661,0.713 C -0.15,-0.652 0.064,-0.33 0,0" />
      </g>
    </g>
  </g>
</svg>
