<?xml version="1.0" encoding="UTF-8" standalone="no"?>
<!-- Created with Inkscape (http://www.inkscape.org/) -->

<svg
   xmlns:dc="http://purl.org/dc/elements/1.1/"
   xmlns:cc="http://creativecommons.org/ns#"
   xmlns:rdf="http://www.w3.org/1999/02/22-rdf-syntax-ns#"
   xmlns:svg="http://www.w3.org/2000/svg"
   xmlns="http://www.w3.org/2000/svg"
   xmlns:sodipodi="http://sodipodi.sourceforge.net/DTD/sodipodi-0.dtd"
   xmlns:inkscape="http://www.inkscape.org/namespaces/inkscape"
   width="35"
   height="35.012119"
   viewBox="0 0 9.2604165 9.2636235"
   version="1.1"
   id="svg22346"
   inkscape:version="0.92.2 (5c3e80d, 2017-08-06)"
   sodipodi:docname="bricklayer.svg">
  <defs
     id="defs22340" />
  <sodipodi:namedview
     id="base"
     pagecolor="#ffffff"
     bordercolor="#666666"
     borderopacity="1.0"
     inkscape:pageopacity="0.0"
     inkscape:pageshadow="2"
     inkscape:zoom="1.979899"
     inkscape:cx="-3.4744375"
     inkscape:cy="18.366272"
     inkscape:document-units="px"
     inkscape:current-layer="layer1"
     showgrid="false"
     units="px"
     fit-margin-top="0"
     fit-margin-left="0"
     fit-margin-right="0"
     fit-margin-bottom="0" />
  <metadata
     id="metadata22343">
    <rdf:RDF>
      <cc:Work
         rdf:about="">
        <dc:format>image/svg+xml</dc:format>
        <dc:type
           rdf:resource="http://purl.org/dc/dcmitype/StillImage" />
        <dc:title></dc:title>
      </cc:Work>
    </rdf:RDF>
  </metadata>
  <g
     inkscape:label="Layer 1"
     inkscape:groupmode="layer"
     id="layer1"
     transform="translate(106.13744,-150.46301)">
    <g
       transform="matrix(0.27340969,0,0,0.27340969,-84.459408,122.82842)"
       id="g1911"
       style="fill:#010101;fill-opacity:1">
      <g
         transform="matrix(0.35277777,0,0,-0.35277777,-45.770375,118.01278)"
         id="g38438"
         style="fill:#010101;fill-opacity:1">
        <path
           style="color:#000000;font-style:normal;font-variant:normal;font-weight:normal;font-stretch:normal;font-size:medium;line-height:normal;font-family:sans-serif;font-variant-ligatures:normal;font-variant-position:normal;font-variant-caps:normal;font-variant-numeric:normal;font-variant-alternates:normal;font-feature-settings:normal;text-indent:0;text-align:start;text-decoration:none;text-decoration-line:none;text-decoration-style:solid;text-decoration-color:#000000;letter-spacing:normal;word-spacing:normal;text-transform:none;writing-mode:lr-tb;direction:ltr;text-orientation:mixed;dominant-baseline:auto;baseline-shift:baseline;text-anchor:start;white-space:normal;shape-padding:0;clip-rule:nonzero;display:inline;overflow:visible;visibility:visible;opacity:1;isolation:auto;mix-blend-mode:normal;color-interpolation:sRGB;color-interpolation-filters:linearRGB;solid-color:#000000;solid-opacity:1;vector-effect:none;fill:#010101;fill-opacity:1;fill-rule:nonzero;stroke:none;stroke-width:2;stroke-linecap:butt;stroke-linejoin:miter;stroke-miterlimit:10;stroke-dasharray:none;stroke-dashoffset:0;stroke-opacity:1;color-rendering:auto;image-rendering:auto;shape-rendering:auto;text-rendering:auto;enable-background:accumulate"
           d="m -95.009766,-48.027344 1.033204,1.554688 c 9.369319,14.095213 4.125186,30.081655 0.933593,41.3867185 -1.862785,6.6191169 -1.717863,13.6613831 0.44336,20.1914065 v 0.002 c 6.33383,19.115891 24.350077,32.908203 45.576171,32.908203 C -20.511112,48.015625 1,26.505522 1,0 1,-26.514335 -20.511035,-48.027344 -47.023438,-48.027344 Z m 3.529297,2 h 44.457031 C -21.59184,-46.027344 -1,-25.433665 -1,0 c 0,25.424478 -20.591763,46.015625 -46.023438,46.015625 -20.359267,0 -37.609054,-13.223894 -43.677734,-31.537109 v -0.002 C -92.735177,8.3297008 -92.873635,1.692765 -91.119141,-4.5429688 v -0.00195 c 3.060255,-10.8395712 8.238866,-26.9169832 -0.361328,-41.4824222 z"
           id="path38440"
           inkscape:connector-curvature="0" />
      </g>
      <g
         transform="matrix(0.35277777,0,0,-0.35277777,-66.437508,121.41599)"
         id="g38442"
         style="fill:#010101;fill-opacity:1">
        <path
           inkscape:connector-curvature="0"
           id="path38444"
           style="fill:#010101;fill-opacity:1;fill-rule:nonzero;stroke:none"
           d="m 0,0 15.859,10.348 v 8.933 L 0,8.934 Z" />
      </g>
      <g
         transform="matrix(0.35277777,0,0,-0.35277777,-70.28395,120.10652)"
         id="g38446"
         style="fill:#010101;fill-opacity:1">
        <path
           inkscape:connector-curvature="0"
           id="path38448"
           style="fill:#010101;fill-opacity:1;fill-rule:nonzero;stroke:none"
           d="M 0,0 9.911,-3.712 V 5.222 L 0,8.935 Z" />
      </g>
      <g
         transform="matrix(0.35277777,0,0,-0.35277777,-66.611498,117.72491)"
         id="g38450"
         style="fill:#010101;fill-opacity:1">
        <path
           inkscape:connector-curvature="0"
           id="path38452"
           style="fill:#010101;fill-opacity:1;fill-rule:nonzero;stroke:none"
           d="M 0,0 14.866,9.607 5.135,13.773 -9.791,3.887 Z" />
      </g>
      <g
         transform="matrix(0.35277777,0,0,-0.35277777,-54.897829,110.76757)"
         id="g38454"
         style="fill:#010101;fill-opacity:1">
        <path
           inkscape:connector-curvature="0"
           id="path38456"
           style="fill:#010101;fill-opacity:1;fill-rule:nonzero;stroke:none"
           d="m 0,0 -15.859,-10.347 v -8.934 L 0,-8.938 Z" />
      </g>
      <g
         transform="matrix(0.35277777,0,0,-0.35277777,-55.423892,110.4892)"
         id="g38458"
         style="fill:#010101;fill-opacity:1">
        <path
           inkscape:connector-curvature="0"
           id="path38460"
           style="fill:#010101;fill-opacity:1;fill-rule:nonzero;stroke:none"
           d="m 0,0 -9.727,4.167 -14.925,-9.888 9.785,-3.885 z" />
      </g>
      <g
         transform="matrix(0.35277777,0,0,-0.35277777,-69.234577,127.01084)"
         id="g38462"
         style="fill:#010101;fill-opacity:1">
        <path
           inkscape:connector-curvature="0"
           id="path38464"
           style="fill:#010101;fill-opacity:1;fill-rule:nonzero;stroke:none"
           d="m 0,0 15.861,10.347 v 8.934 L 0,8.934 Z" />
      </g>
      <g
         transform="matrix(0.35277777,0,0,-0.35277777,-69.58425,123.85926)"
         id="g38466"
         style="fill:#010101;fill-opacity:1">
        <path
           inkscape:connector-curvature="0"
           id="path38468"
           style="fill:#010101;fill-opacity:1;fill-rule:nonzero;stroke:none"
           d="M 0,0 -9.911,3.712 V -5.222 L 0,-8.934 Z" />
      </g>
      <g
         transform="matrix(0.35277777,0,0,-0.35277777,-67.169945,121.93828)"
         id="g38470"
         style="fill:#010101;fill-opacity:1">
        <path
           inkscape:connector-curvature="0"
           id="path38472"
           style="fill:#010101;fill-opacity:1;fill-rule:nonzero;stroke:none"
           d="m 0,0 -9.142,3.915 -6.994,-4.293 9.786,-3.538 z" />
      </g>
      <g
         transform="matrix(0.35277777,0,0,-0.35277777,-54.549532,113.46678)"
         id="g38474"
         style="fill:#010101;fill-opacity:1">
        <path
           inkscape:connector-curvature="0"
           id="path38476"
           style="fill:#010101;fill-opacity:1;fill-rule:nonzero;stroke:none"
           d="M 0,0 0.498,-0.179 6.844,3.736 0,6.669 Z" />
      </g>
      <g
         transform="matrix(0.35277777,0,0,-0.35277777,-63.291118,123.16439)"
         id="g38478"
         style="fill:#010101;fill-opacity:1">
        <path
           inkscape:connector-curvature="0"
           id="path38480"
           style="fill:#010101;fill-opacity:1;fill-rule:nonzero;stroke:none"
           d="m 0,0 15.859,10.348 v 8.933 L 0,8.935 Z" />
      </g>
      <g
         transform="matrix(0.35277777,0,0,-0.35277777,-57.346248,116.16602)"
         id="g38482"
         style="fill:#010101;fill-opacity:1">
        <path
           inkscape:connector-curvature="0"
           id="path38484"
           style="fill:#010101;fill-opacity:1;fill-rule:nonzero;stroke:none"
           d="M 0,0 V -8.935 L 15.859,1.408 v 8.939 z" />
      </g>
    </g>
  </g>
</svg>
