<?xml version="1.0" encoding="UTF-8" standalone="no"?>
<!-- Created with Inkscape (http://www.inkscape.org/) -->

<svg
   xmlns:dc="http://purl.org/dc/elements/1.1/"
   xmlns:cc="http://creativecommons.org/ns#"
   xmlns:rdf="http://www.w3.org/1999/02/22-rdf-syntax-ns#"
   xmlns:svg="http://www.w3.org/2000/svg"
   xmlns="http://www.w3.org/2000/svg"
   xmlns:sodipodi="http://sodipodi.sourceforge.net/DTD/sodipodi-0.dtd"
   xmlns:inkscape="http://www.inkscape.org/namespaces/inkscape"
   width="36.200001"
   height="36.21212"
   viewBox="0 0 9.5779167 9.5811237"
   version="1.1"
   id="svg2736"
   inkscape:version="0.92.3 (2405546, 2018-03-11)"
   sodipodi:docname="building.svg">
  <defs
     id="defs2730" />
  <sodipodi:namedview
     id="base"
     pagecolor="#ffffff"
     bordercolor="#666666"
     borderopacity="1.0"
     inkscape:pageopacity="0.0"
     inkscape:pageshadow="2"
     inkscape:zoom="8.2876069"
     inkscape:cx="23.955709"
     inkscape:cy="14.691365"
     inkscape:document-units="px"
     inkscape:current-layer="layer1"
     showgrid="false"
     units="px"
     fit-margin-top="0.6"
     fit-margin-left="0.6"
     fit-margin-right="0.6"
     fit-margin-bottom="0.6" />
  <metadata
     id="metadata2733">
    <rdf:RDF>
      <cc:Work
         rdf:about="">
        <dc:format>image/svg+xml</dc:format>
        <dc:type
           rdf:resource="http://purl.org/dc/dcmitype/StillImage" />
        <dc:title></dc:title>
      </cc:Work>
    </rdf:RDF>
  </metadata>
  <g
     inkscape:label="Layer 1"
     inkscape:groupmode="layer"
     id="layer1"
     transform="translate(70.766394,-109.48272)">
    <g
       transform="matrix(0.27340969,0,0,0.27340969,-48.038459,37.444956)"
       id="g2715">
      <g
         style="fill:#010101;fill-opacity:1"
         transform="matrix(0.35277777,0,0,-0.35277777,-49.029795,280.99869)"
         id="g38320">
        <path
           inkscape:connector-curvature="0"
           id="path38322"
           d="m -95.009766,-48.027344 1.033204,1.554688 c 9.369319,14.095213 4.12519,30.080636 0.933593,41.3867185 -1.863884,6.6183355 -1.717833,13.6614731 0.44336,20.1914065 v 0.002 c 6.33383,19.115891 24.350077,32.908203 45.576171,32.908203 C -20.511112,48.015625 1,26.505522 1,0 1,-26.515314 -20.511061,-48.027344 -47.023438,-48.027344 Z m 3.529297,2 h 44.457031 C -21.591814,-46.027344 -1,-25.434686 -1,0 c 0,25.424478 -20.591763,46.015625 -46.023438,46.015625 -20.359267,0 -37.609054,-13.223894 -43.677734,-31.537109 v -0.002 c -2.034236,-6.1475596 -2.173912,-12.7844774 -0.417969,-19.0195308 3.060178,-10.8405362 8.239299,-26.9182022 -0.361328,-41.4843752 z"
           style="color:#000000;font-style:normal;font-variant:normal;font-weight:normal;font-stretch:normal;font-size:medium;line-height:normal;font-family:sans-serif;font-variant-ligatures:normal;font-variant-position:normal;font-variant-caps:normal;font-variant-numeric:normal;font-variant-alternates:normal;font-feature-settings:normal;text-indent:0;text-align:start;text-decoration:none;text-decoration-line:none;text-decoration-style:solid;text-decoration-color:#000000;letter-spacing:normal;word-spacing:normal;text-transform:none;writing-mode:lr-tb;direction:ltr;text-orientation:mixed;dominant-baseline:auto;baseline-shift:baseline;text-anchor:start;white-space:normal;shape-padding:0;clip-rule:nonzero;display:inline;overflow:visible;visibility:visible;opacity:1;isolation:auto;mix-blend-mode:normal;color-interpolation:sRGB;color-interpolation-filters:linearRGB;solid-color:#000000;solid-opacity:1;vector-effect:none;fill:#010101;fill-opacity:1;fill-rule:nonzero;stroke:none;stroke-width:2;stroke-linecap:butt;stroke-linejoin:miter;stroke-miterlimit:10;stroke-dasharray:none;stroke-dashoffset:0;stroke-opacity:1;color-rendering:auto;image-rendering:auto;shape-rendering:auto;text-rendering:auto;enable-background:accumulate" />
      </g>
      <g
         style="fill:#010101;fill-opacity:1"
         transform="matrix(0.35277777,0,0,-0.35277777,-60.094302,282.72614)"
         id="g38554">
        <path
           inkscape:connector-curvature="0"
           id="path38556"
           style="fill:#010101;fill-opacity:1;fill-rule:nonzero;stroke:none"
           d="m 0,0 c -0.602,-0.404 -1.217,-0.787 -1.84,-1.154 -1.362,-0.801 -2.765,-1.528 -4.201,-2.187 -2.73,-1.255 -5.586,-2.284 -8.52,-2.95 -2.668,-0.605 -5.508,-0.977 -8.228,-0.508 -2.617,0.45 -5.192,1.344 -7.53,2.604 -2.327,1.254 -4.71,2.83 -6.4,4.897 1.055,-0.464 2.119,-0.905 3.194,-1.322 0.69,2.377 1.49,4.733 2.451,7.015 0.935,2.219 2.029,4.353 3.622,6.175 1.872,2.146 4.199,3.937 6.647,5.376 2.061,1.21 4.266,2.159 6.607,2.664 -0.929,-0.343 -1.826,-0.747 -2.69,-1.23 -2.582,-1.442 -4.901,-3.384 -6.86,-5.591 -0.859,-0.97 -1.769,-2.034 -2.371,-3.19 -0.665,-1.28 -1.097,-2.654 -1.449,-4.048 -0.696,-2.77 -1.105,-5.617 -1.373,-8.459 -0.03,-0.295 -0.016,-0.27 0.277,-0.349 0.185,-0.051 0.37,-0.101 0.557,-0.151 0.336,-0.1 0.675,-0.181 1.016,-0.264 0.706,-0.168 1.415,-0.316 2.126,-0.462 4.274,-0.914 9.963,0.135 13.486,0.918 3.56,0.792 7.092,1.699 10.643,2.525 0,0 0.031,0.006 0.113,0.026 0.53,0.12 0.411,0.093 0.215,0.048 0.497,0.112 0.994,0.221 1.493,0.319 C 0.985,0.553 0.109,0.074 0,0 M 12.703,2.977 9.904,7.072 c -0.83,7.168 -2.88,12.473 -6.239,16.172 -3.932,4.328 -9.553,6.433 -17.182,6.433 -1.075,0 -2.208,-0.042 -3.368,-0.128 -13,-0.949 -19.961,-15.924 -22.716,-23.708 -0.137,-0.058 -0.276,-0.118 -0.414,-0.179 -6.316,-2.775 -9.382,-5.865 -9.375,-9.445 10e-4,-1.351 0.795,-2.794 2.574,-4.678 1.291,-1.369 3.052,-2.896 4.96,-4.301 2.245,-1.65 7.977,-5.511 12.712,-5.699 0.21,-0.009 0.439,-0.012 0.673,-0.012 h 0.002 c 7.452,0 31.047,4.397 41.144,18.545 0.618,0.865 0.629,2.026 0.028,2.905" />
      </g>
    </g>
  </g>
</svg>
