<?xml version="1.0" encoding="UTF-8" standalone="no"?>
<!-- Created with Inkscape (http://www.inkscape.org/) -->

<svg
   xmlns:dc="http://purl.org/dc/elements/1.1/"
   xmlns:cc="http://creativecommons.org/ns#"
   xmlns:rdf="http://www.w3.org/1999/02/22-rdf-syntax-ns#"
   xmlns:svg="http://www.w3.org/2000/svg"
   xmlns="http://www.w3.org/2000/svg"
   xmlns:sodipodi="http://sodipodi.sourceforge.net/DTD/sodipodi-0.dtd"
   xmlns:inkscape="http://www.inkscape.org/namespaces/inkscape"
   width="35"
   height="35.012119"
   viewBox="0 0 9.2604165 9.2636235"
   version="1.1"
   id="svg16466"
   inkscape:version="0.92.2 (5c3e80d, 2017-08-06)"
   sodipodi:docname="car.svg">
  <defs
     id="defs16460">
    <clipPath
       clipPathUnits="userSpaceOnUse"
       id="clipPath39272">
      <path
         d="m 4723.314,2797.64 h 59.913 v 43.17 h -59.913 z"
         id="path39270"
         inkscape:connector-curvature="0" />
    </clipPath>
  </defs>
  <sodipodi:namedview
     id="base"
     pagecolor="#ffffff"
     bordercolor="#666666"
     borderopacity="1.0"
     inkscape:pageopacity="0.0"
     inkscape:pageshadow="2"
     inkscape:zoom="0.7"
     inkscape:cx="-229.55906"
     inkscape:cy="80.873115"
     inkscape:document-units="px"
     inkscape:current-layer="g16441"
     showgrid="false"
     units="px"
     fit-margin-top="0"
     fit-margin-left="0"
     fit-margin-right="0"
     fit-margin-bottom="0" />
  <metadata
     id="metadata16463">
    <rdf:RDF>
      <cc:Work
         rdf:about="">
        <dc:format>image/svg+xml</dc:format>
        <dc:type
           rdf:resource="http://purl.org/dc/dcmitype/StillImage" />
        <dc:title></dc:title>
      </cc:Work>
    </rdf:RDF>
  </metadata>
  <g
     inkscape:label="Layer 1"
     inkscape:groupmode="layer"
     id="layer1"
     transform="translate(-100.23757,-163.3142)">
    <g
       transform="translate(129.84806,159.94123)"
       id="g16441">
      <g
         style="fill:#010101;fill-opacity:1"
         transform="matrix(0.09645286,0,0,-0.09645286,-20.446531,8.0042204)"
         id="g39262">
        <path
           inkscape:connector-curvature="0"
           id="path39264"
           d="m -95.009766,-48.027344 1.033204,1.554688 c 9.369319,14.095213 4.125186,30.081655 0.933593,41.3867185 -1.862785,6.6191169 -1.717863,13.6613831 0.44336,20.1914065 v 0.002 c 6.332833,19.115963 24.350077,32.908203 45.576171,32.908203 C -20.511112,48.015625 1,26.505522 1,0 1,-26.514335 -20.511035,-48.027344 -47.023438,-48.027344 Z m 3.529297,2 h 44.457031 C -21.59184,-46.027344 -1,-25.433665 -1,0 c 0,25.424478 -20.591763,46.015625 -46.023438,46.015625 -20.359267,0 -37.610056,-13.223966 -43.677734,-31.537109 v -0.002 C -92.735177,8.3297008 -92.873635,1.692765 -91.119141,-4.5429688 v -0.00195 c 3.060255,-10.8395712 8.238866,-26.9169832 -0.361328,-41.4824222 z"
           style="color:#000000;font-style:normal;font-variant:normal;font-weight:normal;font-stretch:normal;font-size:medium;line-height:normal;font-family:sans-serif;font-variant-ligatures:normal;font-variant-position:normal;font-variant-caps:normal;font-variant-numeric:normal;font-variant-alternates:normal;font-feature-settings:normal;text-indent:0;text-align:start;text-decoration:none;text-decoration-line:none;text-decoration-style:solid;text-decoration-color:#000000;letter-spacing:normal;word-spacing:normal;text-transform:none;writing-mode:lr-tb;direction:ltr;text-orientation:mixed;dominant-baseline:auto;baseline-shift:baseline;text-anchor:start;white-space:normal;shape-padding:0;clip-rule:nonzero;display:inline;overflow:visible;visibility:visible;opacity:1;isolation:auto;mix-blend-mode:normal;color-interpolation:sRGB;color-interpolation-filters:linearRGB;solid-color:#000000;solid-opacity:1;vector-effect:none;fill:#010101;fill-opacity:1;fill-rule:nonzero;stroke:none;stroke-width:2;stroke-linecap:butt;stroke-linejoin:miter;stroke-miterlimit:10;stroke-dasharray:none;stroke-dashoffset:0;stroke-opacity:1;color-rendering:auto;image-rendering:auto;shape-rendering:auto;text-rendering:auto;enable-background:accumulate" />
      </g>
      <g
         style="fill:#010101;fill-opacity:1"
         id="g39266"
         transform="matrix(0.09645286,0,0,-0.09645286,-483.39761,279.58784)">
        <g
           style="fill:#010101;fill-opacity:1"
           clip-path="url(#clipPath39272)"
           id="g39268">
          <g
             style="fill:#010101;fill-opacity:1"
             transform="translate(4769.3076,2809.7964)"
             id="g39274">
            <path
               inkscape:connector-curvature="0"
               id="path39276"
               style="fill:#010101;fill-opacity:1;fill-rule:nonzero;stroke:none"
               d="m 0,0 c -2.441,0 -4.428,1.985 -4.428,4.436 0,2.441 1.987,4.427 4.428,4.427 2.449,0 4.436,-1.986 4.436,-4.427 C 4.436,1.985 2.449,0 0,0 m -37.715,4.436 c 0,2.441 1.986,4.427 4.43,4.427 2.446,0 4.433,-1.986 4.433,-4.427 0,-2.451 -1.987,-4.436 -4.433,-4.436 -2.444,0 -4.43,1.985 -4.43,4.436 m 6.738,19.253 c 5.747,3.783 22.868,3.783 28.609,0 1.122,-0.733 2.559,-3.695 3.872,-7.325 h -36.352 c 1.313,3.63 2.748,6.592 3.871,7.325 M 12.319,18.167 C 12.031,18.52 11.6,18.725 11.152,18.725 H 5.439 c -1.406,3.711 -3.24,7.355 -5.322,8.726 -7.215,4.751 -26.359,4.751 -33.573,0 -2.081,-1.371 -3.915,-5.015 -5.329,-8.726 h -5.705 c -0.453,0 -0.879,-0.205 -1.165,-0.558 -0.286,-0.351 -0.396,-0.805 -0.308,-1.253 l 0.85,-4.09 c 0.141,-0.697 0.756,-1.196 1.467,-1.196 h 1.693 C -43.589,9.744 -44.381,7.367 -44.388,5 c -0.014,-2.934 1.1,-5.579 3.138,-7.456 0.023,-0.017 0.044,-0.039 0.066,-0.051 v -5.734 c 0,-1.239 1.006,-2.251 2.253,-2.251 h 5.263 c 1.24,0 2.251,1.012 2.251,2.251 v 2.302 h 29.496 v -2.302 c 0,-1.239 1.005,-2.251 2.251,-2.251 h 5.264 c 1.24,0 2.252,1.012 2.252,2.251 v 5.623 c 2.154,1.973 3.189,4.693 3.203,7.411 0.008,2.451 -0.821,4.913 -2.551,6.835 h 1.803 c 0.71,0 1.327,0.499 1.474,1.196 l 0.843,4.09 c 0.088,0.448 -0.022,0.902 -0.299,1.253" />
          </g>
        </g>
      </g>
    </g>
  </g>
</svg>
