<?xml version="1.0" encoding="UTF-8" standalone="no"?>
<!-- Created with Inkscape (http://www.inkscape.org/) -->

<svg
   xmlns:dc="http://purl.org/dc/elements/1.1/"
   xmlns:cc="http://creativecommons.org/ns#"
   xmlns:rdf="http://www.w3.org/1999/02/22-rdf-syntax-ns#"
   xmlns:svg="http://www.w3.org/2000/svg"
   xmlns="http://www.w3.org/2000/svg"
   xmlns:sodipodi="http://sodipodi.sourceforge.net/DTD/sodipodi-0.dtd"
   xmlns:inkscape="http://www.inkscape.org/namespaces/inkscape"
   width="35"
   height="35.012104"
   viewBox="0 0 9.2604165 9.2636195"
   version="1.1"
   id="svg23619"
   inkscape:version="0.92.2 (5c3e80d, 2017-08-06)"
   sodipodi:docname="carpentry.svg">
  <defs
     id="defs23613">
    <clipPath
       clipPathUnits="userSpaceOnUse"
       id="clipPath38496">
      <path
         d="m 4576.134,2379.563 12.138,-61.696 53.967,10.616 -12.139,61.696 z"
         id="path38494"
         inkscape:connector-curvature="0" />
    </clipPath>
  </defs>
  <sodipodi:namedview
     id="base"
     pagecolor="#ffffff"
     bordercolor="#666666"
     borderopacity="1.0"
     inkscape:pageopacity="0.0"
     inkscape:pageshadow="2"
     inkscape:zoom="0.98994949"
     inkscape:cx="-89.091515"
     inkscape:cy="-27.235552"
     inkscape:document-units="px"
     inkscape:current-layer="layer1"
     showgrid="false"
     units="px"
     fit-margin-top="0"
     fit-margin-left="0"
     fit-margin-right="0"
     fit-margin-bottom="0" />
  <metadata
     id="metadata23616">
    <rdf:RDF>
      <cc:Work
         rdf:about="">
        <dc:format>image/svg+xml</dc:format>
        <dc:type
           rdf:resource="http://purl.org/dc/dcmitype/StillImage" />
        <dc:title></dc:title>
      </cc:Work>
    </rdf:RDF>
  </metadata>
  <g
     inkscape:label="Layer 1"
     inkscape:groupmode="layer"
     id="layer1"
     transform="translate(-60.928041,-94.52253)">
    <g
       transform="matrix(0.27340969,0,0,0.27340969,83.150217,56.256603)"
       id="g23594">
      <g
         style="fill:#010101;fill-opacity:1"
         transform="matrix(0.35277777,0,0,-0.35277777,-47.760606,156.89704)"
         id="g38486">
        <path
           inkscape:connector-curvature="0"
           id="path38488"
           d="m -95.009766,-48.027344 1.033204,1.554688 c 9.368394,14.096251 4.125171,30.081708 0.933593,41.3867185 v 0.00195 c -1.862808,6.6181678 -1.717835,13.6604364 0.44336,20.1914065 6.33384,19.114899 24.350077,32.908203 45.576171,32.908203 C -20.511138,48.015625 1,26.506502 1,0 1,-26.514335 -20.511035,-48.027344 -47.023438,-48.027344 Z m 3.529297,2 h 44.457031 C -21.59184,-46.027344 -1,-25.433665 -1,0 c 0,25.425498 -20.591737,46.015625 -46.023438,46.015625 -20.359905,0 -37.609574,-13.224008 -43.677734,-31.537109 -2.034805,-6.1490305 -2.173161,-12.7856526 -0.417969,-19.0214848 3.060197,-10.8396392 8.238397,-26.9173412 -0.361328,-41.4843752 z"
           style="color:#000000;font-style:normal;font-variant:normal;font-weight:normal;font-stretch:normal;font-size:medium;line-height:normal;font-family:sans-serif;font-variant-ligatures:normal;font-variant-position:normal;font-variant-caps:normal;font-variant-numeric:normal;font-variant-alternates:normal;font-feature-settings:normal;text-indent:0;text-align:start;text-decoration:none;text-decoration-line:none;text-decoration-style:solid;text-decoration-color:#000000;letter-spacing:normal;word-spacing:normal;text-transform:none;writing-mode:lr-tb;direction:ltr;text-orientation:mixed;dominant-baseline:auto;baseline-shift:baseline;text-anchor:start;white-space:normal;shape-padding:0;clip-rule:nonzero;display:inline;overflow:visible;visibility:visible;opacity:1;isolation:auto;mix-blend-mode:normal;color-interpolation:sRGB;color-interpolation-filters:linearRGB;solid-color:#000000;solid-opacity:1;vector-effect:none;fill:#010101;fill-opacity:1;fill-rule:nonzero;stroke:none;stroke-width:2;stroke-linecap:butt;stroke-linejoin:miter;stroke-miterlimit:10;stroke-dasharray:none;stroke-dashoffset:0;stroke-opacity:1;color-rendering:auto;image-rendering:auto;shape-rendering:auto;text-rendering:auto;enable-background:accumulate" />
      </g>
      <g
         style="fill:#010101;fill-opacity:1"
         id="g38490"
         transform="matrix(0.35277777,0,0,-0.35277777,-1689.8433,989.01471)">
        <g
           style="fill:#010101;fill-opacity:1"
           clip-path="url(#clipPath38496)"
           id="g38492">
          <g
             style="fill:#010101;fill-opacity:1"
             transform="translate(4624.0371,2337.2051)"
             id="g38498">
            <path
               inkscape:connector-curvature="0"
               id="path38500"
               style="fill:#010101;fill-opacity:1;fill-rule:nonzero;stroke:none"
               d="m 0,0 c -0.295,-0.059 -0.593,-0.002 -0.842,0.168 l -1.449,0.97 c -0.495,0.333 -0.638,1.056 -0.301,1.553 l 4.741,7.067 c 0.344,0.513 1.041,0.651 1.556,0.306 L 5.149,9.095 C 5.401,8.93 5.566,8.675 5.625,8.38 5.683,8.084 5.622,7.786 5.456,7.539 L 0.711,0.475 C 0.546,0.223 0.291,0.057 0,0 m 3.271,-10.592 2.409,5.005 c 0.21,0.436 0.14,0.951 -0.178,1.315 -0.324,0.374 -0.366,0.951 -0.092,1.359 l 4.741,7.063 c 0.049,0.075 0.119,0.147 0.221,0.231 0.131,0.109 0.235,0.246 0.308,0.399 l 3.283,6.809 c 0.258,0.532 0.082,1.182 -0.413,1.515 l -10.279,6.9 C 3.005,20.182 2.682,20.246 2.37,20.185 2.057,20.123 1.78,19.941 1.604,19.676 L 0.979,18.744 -36.892,44.166 c -0.266,0.178 -0.588,0.242 -0.904,0.181 -0.309,-0.062 -0.585,-0.243 -0.763,-0.509 l -1.477,-2.201 v -0.004 l -3.913,-5.826 10e-4,-0.004 -1.724,-2.561 c -0.183,-0.275 -0.239,-0.596 -0.181,-0.899 0.061,-0.303 0.234,-0.579 0.508,-0.764 0.552,-0.369 1.299,-0.222 1.668,0.328 l 0.928,1.376 0.795,-0.758 -1.162,-1.726 c -0.185,-0.276 -0.24,-0.6 -0.181,-0.899 0.06,-0.302 0.234,-0.584 0.508,-0.768 0.552,-0.369 1.3,-0.222 1.669,0.328 l 0.926,1.38 0.789,-0.756 -1.156,-1.729 c -0.186,-0.275 -0.242,-0.595 -0.181,-0.898 0.058,-0.3 0.232,-0.58 0.509,-0.765 0.547,-0.37 1.297,-0.221 1.667,0.329 l 0.922,1.379 0.795,-0.759 -1.158,-1.725 c -0.185,-0.275 -0.241,-0.601 -0.181,-0.903 0.058,-0.299 0.233,-0.579 0.509,-0.764 0.551,-0.37 1.297,-0.223 1.663,0.327 l 0.926,1.381 0.796,-0.76 -1.157,-1.724 c -0.186,-0.276 -0.241,-0.601 -0.183,-0.9 0.059,-0.302 0.235,-0.583 0.51,-0.767 0.551,-0.37 1.293,-0.224 1.662,0.327 l 0.927,1.381 0.799,-0.759 -1.161,-1.726 c -0.185,-0.275 -0.242,-0.6 -0.18,-0.903 0.057,-0.299 0.232,-0.579 0.508,-0.764 0.549,-0.37 1.298,-0.222 1.663,0.327 l 0.93,1.381 0.79,-0.759 -1.157,-1.725 c -0.183,-0.275 -0.239,-0.601 -0.18,-0.899 0.059,-0.303 0.233,-0.58 0.507,-0.765 0.551,-0.369 1.295,-0.223 1.664,0.328 l 0.93,1.381 0.795,-0.759 -1.161,-1.729 c -0.184,-0.276 -0.24,-0.597 -0.181,-0.9 0.06,-0.303 0.233,-0.579 0.508,-0.764 0.552,-0.37 1.299,-0.222 1.668,0.328 l 0.926,1.38 0.795,-0.758 -1.16,-1.73 c -0.185,-0.275 -0.242,-0.596 -0.182,-0.9 0.059,-0.303 0.233,-0.578 0.509,-0.764 0.55,-0.369 1.298,-0.222 1.668,0.328 l 0.925,1.381 0.794,-0.76 -1.161,-1.724 c -0.185,-0.276 -0.24,-0.602 -0.179,-0.905 0.058,-0.298 0.232,-0.578 0.507,-0.763 0.55,-0.369 1.298,-0.222 1.668,0.328 l 0.926,1.381 0.795,-0.76 -1.158,-1.725 c -0.187,-0.275 -0.24,-0.599 -0.18,-0.902 0.059,-0.299 0.233,-0.58 0.508,-0.764 0.551,-0.37 1.293,-0.224 1.664,0.327 l 0.927,1.38 0.794,-0.759 -1.073,-1.592 c -0.184,-0.276 -0.236,-0.6 -0.177,-0.899 0.06,-0.302 0.23,-0.58 0.504,-0.765 0.552,-0.373 1.299,-0.226 1.668,0.328 l 0.839,1.244 0.793,-0.76 -1.133,-1.687 c -0.184,-0.276 -0.24,-0.597 -0.181,-0.9 0.059,-0.298 0.234,-0.579 0.508,-0.764 0.552,-0.369 1.295,-0.223 1.664,0.328 l 0.902,1.344 0.815,-0.78 0.001,-0.004 1.112,-1.062 -1.811,-2.697 c -0.183,-0.276 -0.236,-0.596 -0.176,-0.899 0.058,-0.299 0.229,-0.58 0.504,-0.765 l 13.173,-8.842 c 0.289,-0.194 0.648,-0.251 0.984,-0.161 0.33,0.1 0.607,0.331 0.762,0.643" />
          </g>
        </g>
      </g>
    </g>
  </g>
</svg>
