<?xml version="1.0" encoding="UTF-8" standalone="no"?>
<!-- Created with Inkscape (http://www.inkscape.org/) -->

<svg
   xmlns:dc="http://purl.org/dc/elements/1.1/"
   xmlns:cc="http://creativecommons.org/ns#"
   xmlns:rdf="http://www.w3.org/1999/02/22-rdf-syntax-ns#"
   xmlns:svg="http://www.w3.org/2000/svg"
   xmlns="http://www.w3.org/2000/svg"
   xmlns:sodipodi="http://sodipodi.sourceforge.net/DTD/sodipodi-0.dtd"
   xmlns:inkscape="http://www.inkscape.org/namespaces/inkscape"
   width="35"
   height="35.012119"
   viewBox="0 0 9.2604165 9.2636235"
   version="1.1"
   id="svg36445"
   inkscape:version="0.92.2 (5c3e80d, 2017-08-06)"
   sodipodi:docname="chauffer.svg">
  <defs
     id="defs36439">
    <clipPath
       clipPathUnits="userSpaceOnUse"
       id="clipPath39284">
      <path
         d="M 0,4152 H 5560 V 0 H 0 Z"
         id="path39282"
         inkscape:connector-curvature="0" />
    </clipPath>
    <clipPath
       clipPathUnits="userSpaceOnUse"
       id="clipPath39296">
      <path
         d="m 4738.223,2661.174 h 46.865 v 67.561 h -46.865 z"
         id="path39294"
         inkscape:connector-curvature="0" />
    </clipPath>
  </defs>
  <sodipodi:namedview
     id="base"
     pagecolor="#ffffff"
     bordercolor="#666666"
     borderopacity="1.0"
     inkscape:pageopacity="0.0"
     inkscape:pageshadow="2"
     inkscape:zoom="5.6"
     inkscape:cx="-12.278976"
     inkscape:cy="8.6101799"
     inkscape:document-units="px"
     inkscape:current-layer="layer1"
     showgrid="false"
     units="px"
     fit-margin-top="0"
     fit-margin-left="0"
     fit-margin-right="0"
     fit-margin-bottom="0" />
  <metadata
     id="metadata36442">
    <rdf:RDF>
      <cc:Work
         rdf:about="">
        <dc:format>image/svg+xml</dc:format>
        <dc:type
           rdf:resource="http://purl.org/dc/dcmitype/StillImage" />
        <dc:title></dc:title>
      </cc:Work>
    </rdf:RDF>
  </metadata>
  <g
     inkscape:label="Layer 1"
     inkscape:groupmode="layer"
     id="layer1"
     transform="translate(-70.755421,-94.522534)">
    <g
       transform="matrix(0.27340969,0,0,0.27340969,78.210703,88.930298)"
       id="g36407">
      <g
         style="fill:#010101;fill-opacity:1"
         id="g39278"
         transform="matrix(0.35277777,0,0,-0.35277777,-1689.8433,989.01471)">
        <g
           style="fill:#010101;fill-opacity:1"
           clip-path="url(#clipPath39284)"
           id="g39280">
          <g
             style="fill:#010101;fill-opacity:1"
             transform="translate(4807.8223,2697.5117)"
             id="g39286">
            <path
               inkscape:connector-curvature="0"
               id="path39288"
               d="m -95.009766,-48.027344 1.033204,1.554688 c 9.370279,14.095198 4.125201,30.081603 0.933593,41.3867185 -1.862785,6.6191169 -1.717863,13.6613831 0.44336,20.1914065 v 0.002 c 6.33383,19.115891 24.350077,32.908203 45.576171,32.908203 C -20.511112,48.015625 1,26.505522 1,0 1,-26.514335 -20.511035,-48.027344 -47.023438,-48.027344 Z m 3.529297,2 h 44.457031 C -21.59184,-46.027344 -1,-25.433665 -1,0 c 0,25.424478 -20.591763,46.015625 -46.023438,46.015625 -20.359267,0 -37.609054,-13.223894 -43.677734,-31.537109 v -0.002 C -92.735177,8.3297008 -92.873635,1.692765 -91.119141,-4.5429688 v -0.00195 c 3.060241,-10.8395202 8.239738,-26.9169642 -0.361328,-41.4824222 z"
               style="color:#000000;font-style:normal;font-variant:normal;font-weight:normal;font-stretch:normal;font-size:medium;line-height:normal;font-family:sans-serif;font-variant-ligatures:normal;font-variant-position:normal;font-variant-caps:normal;font-variant-numeric:normal;font-variant-alternates:normal;font-feature-settings:normal;text-indent:0;text-align:start;text-decoration:none;text-decoration-line:none;text-decoration-style:solid;text-decoration-color:#000000;letter-spacing:normal;word-spacing:normal;text-transform:none;writing-mode:lr-tb;direction:ltr;text-orientation:mixed;dominant-baseline:auto;baseline-shift:baseline;text-anchor:start;white-space:normal;shape-padding:0;clip-rule:nonzero;display:inline;overflow:visible;visibility:visible;opacity:1;isolation:auto;mix-blend-mode:normal;color-interpolation:sRGB;color-interpolation-filters:linearRGB;solid-color:#000000;solid-opacity:1;vector-effect:none;fill:#010101;fill-opacity:1;fill-rule:nonzero;stroke:none;stroke-width:2;stroke-linecap:butt;stroke-linejoin:miter;stroke-miterlimit:10;stroke-dasharray:none;stroke-dashoffset:0;stroke-opacity:1;color-rendering:auto;image-rendering:auto;shape-rendering:auto;text-rendering:auto;enable-background:accumulate" />
          </g>
        </g>
      </g>
      <g
         transform="translate(-0.6004437,-0.40020272)"
         id="g36388">
        <g
           transform="matrix(0.35277777,0,0,-0.35277777,-1689.8433,989.01471)"
           id="g39290"
           style="fill:#010101;fill-opacity:1">
          <g
             id="g39292"
             clip-path="url(#clipPath39296)"
             style="fill:#010101;fill-opacity:1">
            <g
               id="g39298"
               transform="translate(4765.041,2690.5864)"
               style="fill:#010101;fill-opacity:1">
              <path
                 d="M 0,0 -2.217,3.817 -0.52,5.07 1.189,3.934 Z M -6.869,0 -8.057,3.934 -6.349,5.07 -4.65,3.817 Z M 19.301,-14.152 8.084,3.079 C 7.272,4.328 5.888,4.888 4.502,4.888 4.213,4.888 3.62,4.881 2.977,4.873 2.927,4.957 2.875,5.041 2.79,5.096 L -0.035,6.973 C -0.361,7.19 -0.785,7.178 -1.098,6.948 L -3.434,5.223 -5.771,6.948 C -6.087,7.178 -6.508,7.19 -6.837,6.973 L -9.656,5.096 C -9.736,5.045 -9.787,4.971 -9.834,4.895 -10.5,4.891 -11.119,4.887 -11.381,4.887 c -1.381,0 -2.759,-0.567 -3.564,-1.808 l -11.219,-17.231 c -1.193,-1.829 -0.71,-4.276 1.088,-5.515 l 2.49,-1.715 c 1.502,3.575 3.981,6.631 7.094,8.862 l 0.642,0.987 v -0.532 c 2.256,1.491 4.819,2.548 7.568,3.065 -0.817,1.814 -1.503,3.974 -2.007,6.01 -0.584,2.376 -0.928,4.578 -0.928,5.825 0,0.462 0.06,0.907 0.151,1.342 l 2.039,-6.754 c 0.107,-0.353 0.412,-0.609 0.779,-0.652 0.037,-0.004 0.072,-0.006 0.107,-0.006 0.327,0 0.635,0.173 0.803,0.461 l 1.59,2.74 0.448,-0.446 c -1.071,-1.417 -1.491,-5.406 -1.654,-8.316 0.825,0.101 1.663,0.168 2.516,0.168 0.855,0 1.694,-0.068 2.524,-0.17 -0.163,2.912 -0.584,6.9 -1.658,8.318 l 0.448,0.449 1.595,-2.743 c 0.168,-0.288 0.472,-0.461 0.8,-0.461 0.036,0 0.073,0.002 0.108,0.007 0.365,0.043 0.673,0.298 0.781,0.651 l 2.039,6.74 C 3.287,3.733 3.344,3.292 3.344,2.835 3.344,0.518 2.182,-5.071 0.41,-9 c 2.755,-0.519 5.32,-1.579 7.576,-3.072 v 0.536 l 0.655,-1 c 3.101,-2.232 5.574,-5.283 7.07,-8.852 l 2.502,1.721 c 1.799,1.239 2.277,3.686 1.088,5.515"
                 style="fill:#010101;fill-opacity:1;fill-rule:nonzero;stroke:none"
                 id="path39300"
                 inkscape:connector-curvature="0" />
            </g>
          </g>
        </g>
        <g
           id="g39310"
           transform="matrix(0.35277777,0,0,-0.35277777,-12.105251,47.036399)"
           style="fill:#010101;fill-opacity:1">
          <path
             d="m 0,0 2.028,-2.668 c 1.124,0.678 2.427,1.049 3.783,1.049 1.357,0 2.662,-0.371 3.785,-1.049 l 2.028,2.669 C 10.043,1.49 7.99,2.307 5.812,2.307 3.633,2.307 1.578,1.489 0,0"
             style="fill:#010101;fill-opacity:1;fill-rule:nonzero;stroke:none"
             id="path39312"
             inkscape:connector-curvature="0" />
        </g>
        <g
           id="g39314"
           transform="matrix(0.35277777,0,0,-0.35277777,-13.370629,34.187915)"
           style="fill:#010101;fill-opacity:1">
          <path
             d="m 0,0 c 0.068,-3.51 2.062,-6.517 4.968,-8.078 1.326,-0.715 2.822,-1.156 4.435,-1.156 1.612,0 3.103,0.441 4.429,1.153 2.903,1.56 4.905,4.567 4.972,8.078 C 16.407,-1.668 13.027,-2.75 9.403,-2.75 5.78,-2.75 2.399,-1.668 0,0"
             style="fill:#010101;fill-opacity:1;fill-rule:nonzero;stroke:none"
             id="path39316"
             inkscape:connector-curvature="0" />
        </g>
        <g
           id="g39318"
           transform="matrix(0.35277777,0,0,-0.35277777,-13.465738,31.248041)"
           style="fill:#010101;fill-opacity:1">
          <path
             d="m 0,0 -0.031,-2.786 c 0.005,-2.204 4.346,-5.076 9.704,-5.076 5.357,0 9.695,2.872 9.697,5.076 l -0.028,2.785 c 1.41,0.367 2.504,0.913 3.204,1.696 0.549,0.611 0.864,1.365 0.864,2.314 0,4.299 -6.156,9.798 -13.737,9.798 -7.588,0 -13.737,-5.499 -13.737,-9.798 0,-0.949 0.313,-1.701 0.86,-2.314 C -2.503,0.912 -1.408,0.366 0,0"
             style="fill:#010101;fill-opacity:1;fill-rule:nonzero;stroke:none"
             id="path39320"
             inkscape:connector-curvature="0" />
        </g>
        <g
           id="g39322"
           transform="matrix(0.35277777,0,0,-0.35277777,-7.2659513,47.48305)"
           style="fill:#010101;fill-opacity:1">
          <path
             d="m 0,0 -3.8,-5.008 c -0.882,1.335 -2.388,2.221 -4.107,2.221 -1.716,0 -3.226,-0.884 -4.105,-2.219 l -3.8,5.005 c -0.646,0.854 -0.566,2.057 0.193,2.815 2.132,2.13 4.921,3.194 7.714,3.194 2.791,0 5.582,-1.064 7.715,-3.196 C 0.567,2.054 0.647,0.853 0,0 m -7.907,10.615 c -10.102,0 -18.321,-8.219 -18.321,-18.32 h 4.616 v 0.027 c 0.15,0.905 0.925,1.563 1.836,1.563 0.015,0 0.033,-10e-4 0.05,-10e-4 l 7.13,-0.185 c -0.133,-0.448 -0.227,-0.913 -0.227,-1.404 h 9.834 c 0,0.491 -0.092,0.956 -0.229,1.404 l 7.131,0.185 c 0.017,0 0.031,10e-4 0.05,10e-4 0.909,0 1.687,-0.658 1.837,-1.563 v -0.027 h 4.611 c 0,10.101 -8.216,18.32 -18.318,18.32"
             style="fill:#010101;fill-opacity:1;fill-rule:nonzero;stroke:none"
             id="path39324"
             inkscape:connector-curvature="0" />
        </g>
      </g>
    </g>
  </g>
</svg>
