<?xml version="1.0" encoding="UTF-8" standalone="no"?>
<!-- Created with Inkscape (http://www.inkscape.org/) -->

<svg
   xmlns:dc="http://purl.org/dc/elements/1.1/"
   xmlns:cc="http://creativecommons.org/ns#"
   xmlns:rdf="http://www.w3.org/1999/02/22-rdf-syntax-ns#"
   xmlns:svg="http://www.w3.org/2000/svg"
   xmlns="http://www.w3.org/2000/svg"
   xmlns:sodipodi="http://sodipodi.sourceforge.net/DTD/sodipodi-0.dtd"
   xmlns:inkscape="http://www.inkscape.org/namespaces/inkscape"
   width="35"
   height="35.012104"
   viewBox="0 0 9.2604165 9.2636195"
   version="1.1"
   id="svg34554"
   inkscape:version="0.92.2 (5c3e80d, 2017-08-06)"
   sodipodi:docname="computing.svg">
  <defs
     id="defs34548">
    <clipPath
       clipPathUnits="userSpaceOnUse"
       id="clipPath39566">
      <path
         d="m 4728.871,2334.763 h 54.565 v 47.979 h -54.565 z"
         id="path39564"
         inkscape:connector-curvature="0" />
    </clipPath>
    <clipPath
       clipPathUnits="userSpaceOnUse"
       id="clipPath39578">
      <path
         d="M 0,4152 H 5560 V 0 H 0 Z"
         id="path39576"
         inkscape:connector-curvature="0" />
    </clipPath>
  </defs>
  <sodipodi:namedview
     id="base"
     pagecolor="#ffffff"
     bordercolor="#666666"
     borderopacity="1.0"
     inkscape:pageopacity="0.0"
     inkscape:pageshadow="2"
     inkscape:zoom="1.979899"
     inkscape:cx="-52.969802"
     inkscape:cy="4.6276825"
     inkscape:document-units="px"
     inkscape:current-layer="layer1"
     showgrid="false"
     units="px"
     fit-margin-top="0"
     fit-margin-left="0"
     fit-margin-right="0"
     fit-margin-bottom="0" />
  <metadata
     id="metadata34551">
    <rdf:RDF>
      <cc:Work
         rdf:about="">
        <dc:format>image/svg+xml</dc:format>
        <dc:type
           rdf:resource="http://purl.org/dc/dcmitype/StillImage" />
        <dc:title></dc:title>
      </cc:Work>
    </rdf:RDF>
  </metadata>
  <g
     inkscape:label="Layer 1"
     inkscape:groupmode="layer"
     id="layer1"
     transform="translate(-73.779235,-125.51658)">
    <g
       transform="matrix(0.27340969,0,0,0.27340969,81.875031,87.250651)"
       id="g34520">
      <g
         style="fill:#010101;fill-opacity:1"
         transform="matrix(0.35277777,0,0,-0.35277777,3.9068382,156.89704)"
         id="g39556">
        <path
           inkscape:connector-curvature="0"
           id="path39558"
           d="m -95.009766,-48.027344 1.033204,1.554688 c 9.369354,14.096235 4.125186,30.081655 0.933593,41.3867185 v 0.00195 c -1.862808,6.6181678 -1.717835,13.6604364 0.44336,20.1914065 6.332842,19.114971 24.350077,32.908203 45.576171,32.908203 C -20.511138,48.015625 1,26.506502 1,0 1,-26.514335 -20.511035,-48.027344 -47.023438,-48.027344 Z m 3.529297,2 h 44.457031 C -21.59184,-46.027344 -1,-25.433665 -1,0 c 0,25.425498 -20.591737,46.015625 -46.023438,46.015625 -20.359905,0 -37.610577,-13.22408 -43.677734,-31.537109 -2.034805,-6.1490305 -2.173161,-12.7856526 -0.417969,-19.0214848 3.060182,-10.8395882 8.239269,-26.9173222 -0.361328,-41.4843752 z"
           style="color:#000000;font-style:normal;font-variant:normal;font-weight:normal;font-stretch:normal;font-size:medium;line-height:normal;font-family:sans-serif;font-variant-ligatures:normal;font-variant-position:normal;font-variant-caps:normal;font-variant-numeric:normal;font-variant-alternates:normal;font-feature-settings:normal;text-indent:0;text-align:start;text-decoration:none;text-decoration-line:none;text-decoration-style:solid;text-decoration-color:#000000;letter-spacing:normal;word-spacing:normal;text-transform:none;writing-mode:lr-tb;direction:ltr;text-orientation:mixed;dominant-baseline:auto;baseline-shift:baseline;text-anchor:start;white-space:normal;shape-padding:0;clip-rule:nonzero;display:inline;overflow:visible;visibility:visible;opacity:1;isolation:auto;mix-blend-mode:normal;color-interpolation:sRGB;color-interpolation-filters:linearRGB;solid-color:#000000;solid-opacity:1;vector-effect:none;fill:#010101;fill-opacity:1;fill-rule:nonzero;stroke:none;stroke-width:2;stroke-linecap:butt;stroke-linejoin:miter;stroke-miterlimit:10;stroke-dasharray:none;stroke-dashoffset:0;stroke-opacity:1;color-rendering:auto;image-rendering:auto;shape-rendering:auto;text-rendering:auto;enable-background:accumulate" />
      </g>
      <g
         transform="translate(-0.30040711,0.29988239)"
         id="g34505">
        <g
           transform="matrix(0.35277777,0,0,-0.35277777,-1689.8433,989.01471)"
           id="g39560"
           style="fill:#010101;fill-opacity:1">
          <g
             id="g39562"
             clip-path="url(#clipPath39566)"
             style="fill:#010101;fill-opacity:1">
            <g
               id="g39568"
               transform="translate(4778.0654,2350.8784)"
               style="fill:#010101;fill-opacity:1">
              <path
                 d="m 0,0 h -27.427 c 0.126,0.32 0.043,0.69 -0.22,0.923 l -1.788,1.588 c 0.139,0.665 0.213,1.354 0.213,2.06 0,0.707 -0.074,1.396 -0.213,2.062 l 1.788,1.588 c 0.294,0.261 0.365,0.695 0.168,1.035 l -1.827,3.164 c -0.197,0.342 -0.607,0.498 -0.982,0.373 l -2.275,-0.756 c -1.022,0.915 -2.231,1.625 -3.563,2.063 l -0.481,2.342 c -0.081,0.386 -0.42,0.663 -0.814,0.663 h -3.654 c -0.395,0 -0.734,-0.277 -0.813,-0.663 l -0.481,-2.343 c -0.493,-0.162 -0.966,-0.363 -1.421,-0.596 V 26.46 H -0.001 V 0 Z m -43.702,4.571 c 0,2.457 1.998,4.456 4.455,4.456 2.457,0 4.455,-1.999 4.455,-4.456 0,-2.457 -1.998,-4.455 -4.455,-4.455 -2.457,0 -4.455,1.998 -4.455,4.455 M 0.745,31.864 h -45.281 c -2.572,0 -4.658,-2.085 -4.658,-4.658 V -0.746 c 0,-2.572 2.086,-4.657 4.658,-4.657 h 18.169 v -4.215 h -3.675 c -1.738,0 -3.146,-1.409 -3.146,-3.147 0,-1.737 1.408,-3.146 3.146,-3.146 h 16.295 c 1.738,0 3.146,1.409 3.146,3.146 0,1.738 -1.408,3.147 -3.146,3.147 h -3.676 v 4.215 H 0.745 c 2.573,0 4.658,2.085 4.658,4.657 v 27.952 c 0,2.573 -2.085,4.658 -4.658,4.658"
                 style="fill:#010101;fill-opacity:1;fill-rule:nonzero;stroke:none"
                 id="path39570"
                 inkscape:connector-curvature="0" />
            </g>
          </g>
        </g>
        <g
           transform="matrix(0.35277777,0,0,-0.35277777,-1689.8433,989.01471)"
           id="g39572"
           style="fill:#010101;fill-opacity:1">
          <g
             id="g39574"
             clip-path="url(#clipPath39578)"
             style="fill:#010101;fill-opacity:1">
            <g
               id="g39580"
               transform="translate(4758.7012,2362.1333)"
               style="fill:#010101;fill-opacity:1">
              <path
                 d="m 0,0 c 1.447,0 2.625,-1.178 2.625,-2.625 0,-1.449 -1.178,-2.627 -2.625,-2.627 -1.449,0 -2.627,1.178 -2.627,2.627 C -2.627,-1.178 -1.449,0 0,0 M -5.283,2.22 C -5.502,2.293 -5.744,2.201 -5.861,2 L -6.937,0.135 c -0.116,-0.201 -0.075,-0.456 0.099,-0.611 l 1.053,-0.936 C -5.867,-1.804 -5.91,-2.21 -5.91,-2.625 c 0,-0.417 0.043,-0.824 0.125,-1.216 l -1.053,-0.936 c -0.174,-0.154 -0.215,-0.41 -0.099,-0.61 l 1.076,-1.865 c 0.117,-0.202 0.359,-0.293 0.578,-0.22 l 1.342,0.446 c 0.602,-0.54 1.316,-0.957 2.1,-1.216 l 0.284,-1.38 c 0.047,-0.227 0.247,-0.391 0.479,-0.391 h 2.154 c 0.233,0 0.432,0.164 0.48,0.391 l 0.283,1.381 c 0.786,0.258 1.497,0.676 2.1,1.216 L 5.28,-7.471 c 0.22,-0.073 0.462,0.018 0.579,0.22 l 1.077,1.865 c 0.115,0.2 0.074,0.456 -0.1,0.61 L 5.781,-3.84 c 0.083,0.392 0.127,0.798 0.127,1.215 0,0.416 -0.044,0.822 -0.127,1.215 l 1.055,0.935 c 0.174,0.155 0.215,0.41 0.098,0.611 L 5.857,2 C 5.742,2.202 5.5,2.293 5.279,2.22 L 3.938,1.774 C 3.336,2.314 2.623,2.732 1.838,2.99 L 1.554,4.371 c -0.046,0.227 -0.246,0.39 -0.48,0.39 h -2.152 c -0.233,0 -0.434,-0.163 -0.481,-0.39 L -1.842,2.989 C -2.627,2.732 -3.34,2.313 -3.941,1.774 Z"
                 style="fill:#010101;fill-opacity:1;fill-rule:nonzero;stroke:none"
                 id="path39582"
                 inkscape:connector-curvature="0" />
            </g>
          </g>
        </g>
        <g
           id="g39604"
           transform="matrix(0.35277777,0,0,-0.35277777,-13.902901,152.42498)"
           style="fill:#010101;fill-opacity:1">
          <path
             d="m 0,0 c 0.992,0 1.801,-0.807 1.801,-1.8 0,-0.992 -0.809,-1.799 -1.801,-1.799 -0.992,0 -1.8,0.807 -1.8,1.799 0,0.993 0.808,1.8 1.8,1.8 M -3.965,-0.968 C -4.02,-1.236 -4.05,-1.515 -4.05,-1.8 c 0,-0.285 0.03,-0.564 0.085,-0.833 L -4.686,-3.274 C -4.805,-3.38 -4.833,-3.555 -4.754,-3.693 l 0.738,-1.278 c 0.08,-0.138 0.246,-0.2 0.397,-0.151 l 0.919,0.306 c 0.413,-0.37 0.901,-0.656 1.439,-0.833 l 0.195,-0.946 c 0.032,-0.156 0.17,-0.268 0.328,-0.268 h 1.476 c 0.16,0 0.297,0.112 0.328,0.268 l 0.196,0.946 c 0.537,0.177 1.026,0.464 1.439,0.834 l 0.918,-0.306 c 0.152,-0.05 0.319,0.013 0.397,0.15 l 0.738,1.279 c 0.08,0.137 0.051,0.313 -0.067,0.418 l -0.722,0.642 c 0.055,0.268 0.086,0.547 0.086,0.832 0,0.286 -0.031,0.564 -0.086,0.833 l 0.721,0.642 c 0.119,0.105 0.148,0.281 0.068,0.418 L 4.016,1.371 C 3.936,1.509 3.771,1.572 3.619,1.521 L 2.701,1.215 C 2.287,1.585 1.799,1.873 1.262,2.049 L 1.066,2.995 C 1.035,3.152 0.896,3.263 0.738,3.263 h -1.476 c -0.159,0 -0.296,-0.111 -0.328,-0.268 L -1.261,2.049 C -1.799,1.873 -2.288,1.585 -2.7,1.215 L -3.619,1.521 C -3.77,1.572 -3.936,1.509 -4.016,1.371 L -4.754,0.093 c -0.079,-0.138 -0.051,-0.313 0.068,-0.418 z"
             style="fill:#010101;fill-opacity:1;fill-rule:nonzero;stroke:none"
             id="path39606"
             inkscape:connector-curvature="0" />
        </g>
      </g>
    </g>
  </g>
</svg>
