<?xml version="1.0" encoding="UTF-8" standalone="no"?>
<!-- Created with Inkscape (http://www.inkscape.org/) -->

<svg
   xmlns:dc="http://purl.org/dc/elements/1.1/"
   xmlns:cc="http://creativecommons.org/ns#"
   xmlns:rdf="http://www.w3.org/1999/02/22-rdf-syntax-ns#"
   xmlns:svg="http://www.w3.org/2000/svg"
   xmlns="http://www.w3.org/2000/svg"
   xmlns:sodipodi="http://sodipodi.sourceforge.net/DTD/sodipodi-0.dtd"
   xmlns:inkscape="http://www.inkscape.org/namespaces/inkscape"
   width="35"
   height="35.012119"
   viewBox="0 0 9.2604165 9.2636235"
   version="1.1"
   id="svg35195"
   inkscape:version="0.92.2 (5c3e80d, 2017-08-06)"
   sodipodi:docname="education.svg">
  <defs
     id="defs35189" />
  <sodipodi:namedview
     id="base"
     pagecolor="#ffffff"
     bordercolor="#666666"
     borderopacity="1.0"
     inkscape:pageopacity="0.0"
     inkscape:pageshadow="2"
     inkscape:zoom="2.8"
     inkscape:cx="-25.523899"
     inkscape:cy="-15.244788"
     inkscape:document-units="px"
     inkscape:current-layer="layer1"
     showgrid="false"
     units="px"
     fit-margin-top="0"
     fit-margin-left="0"
     fit-margin-right="0"
     fit-margin-bottom="0" />
  <metadata
     id="metadata35192">
    <rdf:RDF>
      <cc:Work
         rdf:about="">
        <dc:format>image/svg+xml</dc:format>
        <dc:type
           rdf:resource="http://purl.org/dc/dcmitype/StillImage" />
        <dc:title></dc:title>
      </cc:Work>
    </rdf:RDF>
  </metadata>
  <g
     inkscape:label="Layer 1"
     inkscape:groupmode="layer"
     id="layer1"
     transform="translate(109.91719,-127.02849)">
    <g
       transform="matrix(0.27340969,0,0,0.27340969,-102.462,99.297445)"
       id="g35174">
      <g
         style="fill:#010101;fill-opacity:1"
         transform="matrix(0.35277777,0,0,-0.35277777,6.2498471,118.36556)"
         id="g39548">
        <path
           inkscape:connector-curvature="0"
           id="path39550"
           d="m -95.009766,-48.027344 1.033204,1.554688 c 9.369319,14.095213 4.125186,30.081655 0.933593,41.3867185 -1.862785,6.6191169 -1.717863,13.6613831 0.44336,20.1914065 v 0.002 c 6.33383,19.115891 24.350077,32.908203 45.576171,32.908203 C -20.511112,48.015625 1,26.505522 1,0 1,-26.514335 -20.511035,-48.027344 -47.023438,-48.027344 Z m 3.529297,2 h 44.457031 C -21.59184,-46.027344 -1,-25.433665 -1,0 c 0,25.424478 -20.591763,46.015625 -46.023438,46.015625 -20.359267,0 -37.609054,-13.223894 -43.677734,-31.537109 v -0.002 C -92.735177,8.3297008 -92.873635,1.692765 -91.119141,-4.5429688 v -0.00195 c 3.060255,-10.8395712 8.238866,-26.9169832 -0.361328,-41.4824222 z"
           style="color:#000000;font-style:normal;font-variant:normal;font-weight:normal;font-stretch:normal;font-size:medium;line-height:normal;font-family:sans-serif;font-variant-ligatures:normal;font-variant-position:normal;font-variant-caps:normal;font-variant-numeric:normal;font-variant-alternates:normal;font-feature-settings:normal;text-indent:0;text-align:start;text-decoration:none;text-decoration-line:none;text-decoration-style:solid;text-decoration-color:#000000;letter-spacing:normal;word-spacing:normal;text-transform:none;writing-mode:lr-tb;direction:ltr;text-orientation:mixed;dominant-baseline:auto;baseline-shift:baseline;text-anchor:start;white-space:normal;shape-padding:0;clip-rule:nonzero;display:inline;overflow:visible;visibility:visible;opacity:1;isolation:auto;mix-blend-mode:normal;color-interpolation:sRGB;color-interpolation-filters:linearRGB;solid-color:#000000;solid-opacity:1;vector-effect:none;fill:#010101;fill-opacity:1;fill-rule:nonzero;stroke:none;stroke-width:2;stroke-linecap:butt;stroke-linejoin:miter;stroke-miterlimit:10;stroke-dasharray:none;stroke-dashoffset:0;stroke-opacity:1;color-rendering:auto;image-rendering:auto;shape-rendering:auto;text-rendering:auto;enable-background:accumulate" />
      </g>
      <g
         style="fill:#010101;fill-opacity:1"
         transform="matrix(0.35277777,0,0,-0.35277777,-2.6274528,119.39941)"
         id="g39552">
        <path
           inkscape:connector-curvature="0"
           id="path39554"
           style="fill:#010101;fill-opacity:1;fill-rule:nonzero;stroke:none"
           d="m 0,0 c -0.044,-0.005 -0.093,-0.01 -0.132,-0.023 l -1.861,-0.523 -17.712,-4.963 -0.216,6.722 5.813,1.896 14.068,4.59 c 0,0 0.74,0.162 1.281,-0.387 C 1.765,6.774 2.028,5.719 1.997,4.258 1.905,0.17 0.065,0.004 0,0 m -1.359,-9.077 c 0.03,-0.298 0.065,-0.572 0.096,-0.783 l -24.658,-6.132 0.211,6.673 5.274,1.087 0.779,-0.19 2.918,0.946 13.453,2.768 2.578,0.527 C -1.53,-5.685 -1.495,-7.749 -1.359,-9.077 m -25.645,-6.907 -19.573,5.485 c -0.035,0.014 -0.084,0.018 -0.123,0.023 -0.078,0.004 -1.918,0.171 -2.006,4.258 -0.031,1.461 0.228,2.518 0.756,3.053 0.334,0.344 0.726,0.414 0.999,0.414 0.14,0 0.247,-0.022 0.247,-0.022 h 0.004 l 19.912,-6.489 z m -20.005,30.718 c -0.03,1.46 0.231,2.516 0.758,3.053 0.334,0.342 0.73,0.413 0.998,0.413 0.145,0 0.246,-0.022 0.256,-0.022 l 13.281,-4.328 6.625,-2.161 -0.215,-6.723 -18.591,5.214 -0.982,0.273 c -0.035,0.008 -0.089,0.018 -0.124,0.018 -0.079,0.008 -1.914,0.175 -2.006,4.263 m 1.004,-8.439 2.578,-0.528 16.617,-3.418 1.452,-0.3 4.355,-0.893 0.211,-6.674 -22.445,5.583 -2.213,0.551 c 0.033,0.21 0.064,0.483 0.1,0.782 0.132,1.325 0.167,3.389 -0.655,4.897 m 21.996,5.337 5.117,1.051 17.309,3.56 2.578,0.527 C 0.167,15.262 0.202,13.197 0.339,11.874 0.37,11.574 0.405,11.302 0.436,11.09 l -2.82,-0.699 -21.84,-5.434 z m 25.47,-0.071 c -0.23,1.698 -0.26,4.629 1.319,5.609 0.028,0.017 0.049,0.044 0.074,0.066 1.291,0.415 2.184,0.994 1.484,1.774 l -19.04,5.736 -30.828,-4.284 c 0,0 -3.529,-0.507 -3.217,-5.993 0.172,-2.983 1.109,-4.448 1.928,-5.169 l -2.53,-0.765 c -0.699,-0.78 0.194,-1.355 1.483,-1.769 0.025,-0.022 0.044,-0.048 0.074,-0.066 1.576,-0.986 1.545,-3.912 1.32,-5.614 -5.666,-1.606 -3.634,-2.134 -3.634,-2.134 l 1.246,-0.299 c -0.875,-0.792 -1.746,-2.288 -1.58,-5.129 0.312,-5.486 3.211,-5.864 3.211,-5.864 l 20.177,-6.557 30.448,7.374 c 0,0 2.033,0.527 -3.633,2.139 -0.229,1.694 -0.26,4.623 1.32,5.608 0.03,0.018 0.048,0.044 0.074,0.068 1.289,0.412 2.182,0.989 1.483,1.767 L 1.315,-1.54 C 2.2,-1.009 3.524,0.383 3.731,3.999 3.876,6.48 3.226,7.937 2.478,8.793 l 2.613,0.634 c 0,0 2.037,0.525 -3.63,2.134" />
      </g>
    </g>
  </g>
</svg>
