<?xml version="1.0" encoding="UTF-8" standalone="no"?>
<!-- Created with Inkscape (http://www.inkscape.org/) -->

<svg
   xmlns:dc="http://purl.org/dc/elements/1.1/"
   xmlns:cc="http://creativecommons.org/ns#"
   xmlns:rdf="http://www.w3.org/1999/02/22-rdf-syntax-ns#"
   xmlns:svg="http://www.w3.org/2000/svg"
   xmlns="http://www.w3.org/2000/svg"
   xmlns:sodipodi="http://sodipodi.sourceforge.net/DTD/sodipodi-0.dtd"
   xmlns:inkscape="http://www.inkscape.org/namespaces/inkscape"
   width="35"
   height="35.012119"
   viewBox="0 0 9.2604165 9.2636235"
   version="1.1"
   id="svg17070"
   inkscape:version="0.92.2 (5c3e80d, 2017-08-06)"
   sodipodi:docname="electricity.svg">
  <defs
     id="defs17064" />
  <sodipodi:namedview
     id="base"
     pagecolor="#ffffff"
     bordercolor="#666666"
     borderopacity="1.0"
     inkscape:pageopacity="0.0"
     inkscape:pageshadow="2"
     inkscape:zoom="2.8"
     inkscape:cx="-20.196062"
     inkscape:cy="-7.5255279"
     inkscape:document-units="px"
     inkscape:current-layer="layer1"
     showgrid="false"
     units="px"
     fit-margin-top="0"
     fit-margin-left="0"
     fit-margin-right="0"
     fit-margin-bottom="0" />
  <metadata
     id="metadata17067">
    <rdf:RDF>
      <cc:Work
         rdf:about="">
        <dc:format>image/svg+xml</dc:format>
        <dc:type
           rdf:resource="http://purl.org/dc/dcmitype/StillImage" />
        <dc:title></dc:title>
      </cc:Work>
    </rdf:RDF>
  </metadata>
  <g
     inkscape:label="Layer 1"
     inkscape:groupmode="layer"
     id="layer1"
     transform="translate(-66.219706,-107.37372)">
    <g
       id="g38384"
       transform="matrix(0.09645286,0,0,-0.09645286,75.38367,112.00497)"
       style="fill:#010101;fill-opacity:1">
      <path
         style="color:#000000;font-style:normal;font-variant:normal;font-weight:normal;font-stretch:normal;font-size:medium;line-height:normal;font-family:sans-serif;font-variant-ligatures:normal;font-variant-position:normal;font-variant-caps:normal;font-variant-numeric:normal;font-variant-alternates:normal;font-feature-settings:normal;text-indent:0;text-align:start;text-decoration:none;text-decoration-line:none;text-decoration-style:solid;text-decoration-color:#000000;letter-spacing:normal;word-spacing:normal;text-transform:none;writing-mode:lr-tb;direction:ltr;text-orientation:mixed;dominant-baseline:auto;baseline-shift:baseline;text-anchor:start;white-space:normal;shape-padding:0;clip-rule:nonzero;display:inline;overflow:visible;visibility:visible;opacity:1;isolation:auto;mix-blend-mode:normal;color-interpolation:sRGB;color-interpolation-filters:linearRGB;solid-color:#000000;solid-opacity:1;vector-effect:none;fill:#010101;fill-opacity:1;fill-rule:nonzero;stroke:none;stroke-width:2;stroke-linecap:butt;stroke-linejoin:miter;stroke-miterlimit:10;stroke-dasharray:none;stroke-dashoffset:0;stroke-opacity:1;color-rendering:auto;image-rendering:auto;shape-rendering:auto;text-rendering:auto;enable-background:accumulate"
         d="m -95.009766,-48.027344 1.033204,1.554688 c 9.369319,14.095213 4.125186,30.081655 0.933593,41.3867185 -1.862785,6.6191169 -1.717863,13.6613831 0.44336,20.1914065 v 0.002 c 6.33383,19.115891 24.350077,32.908203 45.576171,32.908203 C -20.511112,48.015625 1,26.505522 1,0 1,-26.514335 -20.511035,-48.027344 -47.023438,-48.027344 Z m 3.529297,2 h 44.457031 C -21.59184,-46.027344 -1,-25.433665 -1,0 c 0,25.424478 -20.591763,46.015625 -46.023438,46.015625 -20.359267,0 -37.609054,-13.223894 -43.677734,-31.537109 v -0.002 C -92.735177,8.3297008 -92.873635,1.692765 -91.119141,-4.5429688 v -0.00195 c 3.060255,-10.8395712 8.238866,-26.9169832 -0.361328,-41.4824222 z"
         id="path38386"
         inkscape:connector-curvature="0" />
    </g>
    <g
       id="g38388"
       transform="matrix(0.09645286,0,0,-0.09645286,72.176324,113.10198)"
       style="fill:#010101;fill-opacity:1">
      <path
         d="m 0,0 c -0.587,0.587 -1.529,0.587 -2.116,0 -0.587,-0.587 -0.587,-1.529 0,-2.116 l 3.712,-3.711 c 0.288,-0.288 0.675,-0.433 1.051,-0.433 0.376,0 0.765,0.145 1.053,0.433 0.587,0.587 0.587,1.529 0,2.116 z m -29.115,24.905 c 0.287,-0.288 0.676,-0.432 1.053,-0.432 0.376,0 0.763,0.144 1.052,0.432 0.586,0.588 0.586,1.529 0,2.116 l -3.712,3.712 c -0.587,0.587 -1.528,0.587 -2.116,0 -0.587,-0.587 -0.587,-1.529 0,-2.116 z m 28.062,-0.443 c 0.377,0 0.765,0.144 1.053,0.433 l 3.711,3.71 c 0.588,0.588 0.588,1.53 0,2.117 -0.588,0.587 -1.528,0.587 -2.115,0 L -2.116,27.01 c -0.587,-0.587 -0.587,-1.529 0,-2.115 0.299,-0.289 0.677,-0.433 1.063,-0.433 M -29.115,0 -32.826,-3.711 c -0.588,-0.587 -0.588,-1.529 0,-2.116 0.287,-0.288 0.676,-0.433 1.052,-0.433 0.377,0 0.764,0.145 1.052,0.433 l 3.712,3.711 c 0.586,0.587 0.586,1.529 0,2.116 -0.576,0.587 -1.529,0.587 -2.105,0 M 9.782,13.948 h -5.24 c -0.819,0 -1.495,-0.664 -1.495,-1.495 0,-0.82 0.664,-1.496 1.495,-1.496 h 5.24 c 0.82,0 1.495,0.665 1.495,1.496 0,0.819 -0.664,1.495 -1.495,1.495 m -41.944,-1.495 c 0,0.819 -0.664,1.495 -1.495,1.495 h -5.241 c -0.82,0 -1.497,-0.664 -1.497,-1.495 0,-0.82 0.666,-1.496 1.497,-1.496 h 5.241 c 0.831,0 1.495,0.665 1.495,1.496 m 17.604,17.604 c 0.82,0 1.495,0.665 1.495,1.496 v 5.24 c 0,0.82 -0.664,1.496 -1.495,1.496 -0.831,0 -1.495,-0.665 -1.495,-1.496 v -5.24 c 0,-0.831 0.676,-1.496 1.495,-1.496 m 1.495,-9.583 c 0,0.82 -0.664,1.495 -1.495,1.495 -5.273,0 -9.572,-4.287 -9.572,-9.572 0,-0.819 0.665,-1.496 1.495,-1.496 0.821,0 1.496,0.665 1.496,1.496 0,3.634 2.958,6.581 6.581,6.581 0.831,0 1.495,0.665 1.495,1.496 m 11.766,-8.033 c 0,-3.578 -1.418,-6.824 -3.723,-9.206 -1.75,-1.816 -2.878,-4.132 -3.255,-6.603 -0.168,-1.064 -1.087,-1.85 -2.172,-1.85 h -8.232 c -1.075,0 -2.006,0.776 -2.161,1.839 -0.388,2.471 -1.528,4.819 -3.279,6.626 -2.26,2.348 -3.667,5.539 -3.7,9.051 -0.077,7.379 5.794,13.349 13.173,13.405 7.367,0.055 13.349,-5.905 13.349,-13.262 M -8.42,-8.763 v -1.574 c 0,-1.252 -0.92,-2.293 -2.116,-2.47 l -0.388,-1.429 c -0.211,-0.776 -0.908,-1.319 -1.718,-1.319 h -3.843 c -0.809,0 -1.507,0.543 -1.718,1.319 l -0.377,1.429 c -1.207,0.188 -2.126,1.218 -2.126,2.482 v 1.573 c 0,0.842 0.675,1.518 1.518,1.518 h 9.25 c 0.842,-0.012 1.518,-0.687 1.518,-1.529"
         style="fill:#010101;fill-opacity:1;fill-rule:nonzero;stroke:none"
         id="path38390"
         inkscape:connector-curvature="0" />
    </g>
  </g>
</svg>
