<?xml version="1.0" encoding="UTF-8" standalone="no"?>
<!-- Created with Inkscape (http://www.inkscape.org/) -->

<svg
   xmlns:dc="http://purl.org/dc/elements/1.1/"
   xmlns:cc="http://creativecommons.org/ns#"
   xmlns:rdf="http://www.w3.org/1999/02/22-rdf-syntax-ns#"
   xmlns:svg="http://www.w3.org/2000/svg"
   xmlns="http://www.w3.org/2000/svg"
   xmlns:sodipodi="http://sodipodi.sourceforge.net/DTD/sodipodi-0.dtd"
   xmlns:inkscape="http://www.inkscape.org/namespaces/inkscape"
   width="35"
   height="35.012104"
   viewBox="0 0 9.2604165 9.2636195"
   version="1.1"
   id="svg26808"
   inkscape:version="0.92.2 (5c3e80d, 2017-08-06)"
   sodipodi:docname="entertainment.svg">
  <defs
     id="defs26802">
    <clipPath
       clipPathUnits="userSpaceOnUse"
       id="clipPath39716">
      <path
         d="m 4569.863,1296.648 h 54.792 v 47.285 h -54.792 z"
         id="path39714"
         inkscape:connector-curvature="0" />
    </clipPath>
  </defs>
  <sodipodi:namedview
     id="base"
     pagecolor="#ffffff"
     bordercolor="#666666"
     borderopacity="1.0"
     inkscape:pageopacity="0.0"
     inkscape:pageshadow="2"
     inkscape:zoom="3.959798"
     inkscape:cx="48.992992"
     inkscape:cy="-9.1636894"
     inkscape:document-units="px"
     inkscape:current-layer="layer1"
     showgrid="false"
     units="px"
     fit-margin-top="0"
     fit-margin-left="0"
     fit-margin-right="0"
     fit-margin-bottom="0" />
  <metadata
     id="metadata26805">
    <rdf:RDF>
      <cc:Work
         rdf:about="">
        <dc:format>image/svg+xml</dc:format>
        <dc:type
           rdf:resource="http://purl.org/dc/dcmitype/StillImage" />
        <dc:title></dc:title>
      </cc:Work>
    </rdf:RDF>
  </metadata>
  <g
     inkscape:label="Layer 1"
     inkscape:groupmode="layer"
     id="layer1"
     transform="translate(115.20887,-65.796339)">
    <g
       transform="matrix(0.27340969,0,0,0.27340969,-92.221654,-72.632112)"
       id="g26760">
      <g
         style="fill:#010101;fill-opacity:1"
         transform="matrix(0.35277777,0,0,-0.35277777,-50.558733,523.24296)"
         id="g39674">
        <path
           inkscape:connector-curvature="0"
           id="path39676"
           d="m -95.009766,-48.027344 1.033204,1.554688 c 9.369354,14.096235 4.125186,30.081655 0.933593,41.3867185 v 0.00195 c -1.862808,6.6181678 -1.717835,13.6604364 0.44336,20.1914065 6.33384,19.114899 24.349103,32.908203 45.574218,32.908203 C -20.512086,48.015625 1,26.505522 1,0 1,-26.515314 -20.512035,-48.027344 -47.025391,-48.027344 Z m 3.529297,2 h 44.455078 C -21.592747,-46.027344 -1,-25.434686 -1,0 c 0,25.424478 -20.592695,46.015625 -46.025391,46.015625 -20.358884,0 -37.607621,-13.224008 -43.675781,-31.537109 -2.034805,-6.1490305 -2.173161,-12.7856526 -0.417969,-19.0214848 3.060182,-10.8395882 8.239269,-26.9173222 -0.361328,-41.4843752 z"
           style="color:#000000;font-style:normal;font-variant:normal;font-weight:normal;font-stretch:normal;font-size:medium;line-height:normal;font-family:sans-serif;font-variant-ligatures:normal;font-variant-position:normal;font-variant-caps:normal;font-variant-numeric:normal;font-variant-alternates:normal;font-feature-settings:normal;text-indent:0;text-align:start;text-decoration:none;text-decoration-line:none;text-decoration-style:solid;text-decoration-color:#000000;letter-spacing:normal;word-spacing:normal;text-transform:none;writing-mode:lr-tb;direction:ltr;text-orientation:mixed;dominant-baseline:auto;baseline-shift:baseline;text-anchor:start;white-space:normal;shape-padding:0;clip-rule:nonzero;display:inline;overflow:visible;visibility:visible;opacity:1;isolation:auto;mix-blend-mode:normal;color-interpolation:sRGB;color-interpolation-filters:linearRGB;solid-color:#000000;solid-opacity:1;vector-effect:none;fill:#010101;fill-opacity:1;fill-rule:nonzero;stroke:none;stroke-width:2;stroke-linecap:butt;stroke-linejoin:miter;stroke-miterlimit:10;stroke-dasharray:none;stroke-dashoffset:0;stroke-opacity:1;color-rendering:auto;image-rendering:auto;shape-rendering:auto;text-rendering:auto;enable-background:accumulate" />
      </g>
      <g
         style="fill:#010101;fill-opacity:1"
         id="g2193">
        <g
           style="fill:#010101;fill-opacity:1"
           transform="matrix(0.35277777,0,0,-0.35277777,-1689.8433,989.01471)"
           id="g39710">
          <g
             style="fill:#010101;fill-opacity:1"
             id="g39712"
             clip-path="url(#clipPath39716)">
            <g
               style="fill:#010101;fill-opacity:1"
               id="g39718"
               transform="translate(4607.3584,1319.332)">
              <path
                 d="m 0,0 h -32.538 l -2.541,7.818 5.637,1.832 2.156,-6.552 c 0.148,-0.45 0.566,-0.735 1.015,-0.735 0.112,0 0.223,0.018 0.334,0.053 0.561,0.186 0.868,0.789 0.682,1.352 L -27.408,10.313 9.188,22.203 14.839,4.82 Z M 14.226,-2.141 V -20.418 H -32.32 v 18.277 h 5.923 v -11.912 c 0,-0.592 0.478,-1.068 1.07,-1.068 0.59,0 1.068,0.476 1.068,1.068 v 11.912 z m 2.976,6.606 -6.308,19.418 c -0.184,0.56 -0.788,0.869 -1.348,0.685 L -36.757,9.523 C -37.318,9.34 -37.626,8.736 -37.442,8.176 l 2.986,-9.192 c -10e-4,-0.019 -0.004,-0.035 -0.004,-0.054 v -20.416 c 0,-0.59 0.481,-1.071 1.07,-1.071 h 48.686 c 0.59,0 1.068,0.481 1.068,1.071 V -1.07 C 16.364,-0.48 15.886,0 15.296,0 H 6.921 l 9.596,3.117 c 0.56,0.184 0.868,0.785 0.685,1.348"
                 style="fill:#010101;fill-opacity:1;fill-rule:nonzero;stroke:none"
                 id="path39720"
                 inkscape:connector-curvature="0" />
            </g>
          </g>
        </g>
        <g
           style="fill:#010101;fill-opacity:1"
           id="g39730"
           transform="matrix(0.35277777,0,0,-0.35277777,-61.800068,517.40389)">
          <path
             d="m 0,0 c -0.184,0.561 -0.786,0.867 -1.348,0.686 l -27.881,-9.061 c -0.562,-0.182 -0.869,-0.785 -0.686,-1.348 0.146,-0.451 0.565,-0.738 1.017,-0.738 0.109,0 0.22,0.018 0.33,0.051 l 27.881,9.062 C -0.125,-1.166 0.182,-0.562 0,0"
             style="fill:#010101;fill-opacity:1;fill-rule:nonzero;stroke:none"
             id="path39732"
             inkscape:connector-curvature="0" />
        </g>
        <g
           style="fill:#010101;fill-opacity:1"
           id="g39734"
           transform="matrix(0.35277777,0,0,-0.35277777,-63.459217,519.85474)">
          <path
             d="M 0,0 5.277,1.715 C 5.84,1.896 6.146,2.502 5.965,3.063 5.781,3.625 5.178,3.932 4.617,3.75 L -0.66,2.035 C -1.222,1.854 -1.529,1.248 -1.348,0.687 c 0.149,-0.451 0.568,-0.74 1.018,-0.74 0.109,0 0.221,0.018 0.33,0.053"
             style="fill:#010101;fill-opacity:1;fill-rule:nonzero;stroke:none"
             id="path39736"
             inkscape:connector-curvature="0" />
        </g>
        <g
           style="fill:#010101;fill-opacity:1"
           id="g39738"
           transform="matrix(0.35277777,0,0,-0.35277777,-61.88551,521.58762)">
          <path
             d="m 0,0 c 0.146,-0.451 0.565,-0.738 1.016,-0.738 0.109,0 0.222,0.015 0.332,0.052 l 1.67,0.543 C 3.578,0.039 3.887,0.643 3.703,1.203 3.521,1.766 2.918,2.072 2.355,1.891 L 0.687,1.348 C 0.125,1.166 -0.183,0.561 0,0"
             style="fill:#010101;fill-opacity:1;fill-rule:nonzero;stroke:none"
             id="path39740"
             inkscape:connector-curvature="0" />
        </g>
        <g
           style="fill:#010101;fill-opacity:1"
           id="g39742"
           transform="matrix(0.35277777,0,0,-0.35277777,-62.959013,521.53936)">
          <path
             d="m 0,0 -1.67,-0.543 c -0.562,-0.184 -0.87,-0.785 -0.687,-1.348 0.147,-0.451 0.566,-0.74 1.017,-0.74 0.11,0 0.221,0.018 0.33,0.053 l 1.67,0.543 c 0.563,0.183 0.869,0.787 0.688,1.348 C 1.164,-0.125 0.561,0.182 0,0"
             style="fill:#010101;fill-opacity:1;fill-rule:nonzero;stroke:none"
             id="path39744"
             inkscape:connector-curvature="0" />
        </g>
        <g
           style="fill:#010101;fill-opacity:1"
           id="g39746"
           transform="matrix(0.35277777,0,0,-0.35277777,-68.223798,520.6099)">
          <path
             d="m 0,0 -9.758,-3.17 c -0.562,-0.182 -0.869,-0.785 -0.685,-1.346 0.144,-0.453 0.564,-0.742 1.015,-0.742 0.11,0 0.221,0.018 0.331,0.055 l 9.759,3.17 C 1.223,-1.85 1.53,-1.246 1.348,-0.686 1.166,-0.123 0.562,0.184 0,0"
             style="fill:#010101;fill-opacity:1;fill-rule:nonzero;stroke:none"
             id="path39748"
             inkscape:connector-curvature="0" />
        </g>
        <g
           style="fill:#010101;fill-opacity:1"
           id="g39750"
           transform="matrix(0.35277777,0,0,-0.35277777,-73.404551,529.41968)">
          <path
             d="m 0,0 c -0.592,0 -1.07,-0.479 -1.07,-1.07 v -0.42 c 0,-0.59 0.478,-1.067 1.07,-1.067 0.59,0 1.068,0.477 1.068,1.067 v 0.42 C 1.068,-0.479 0.59,0 0,0"
             style="fill:#010101;fill-opacity:1;fill-rule:nonzero;stroke:none"
             id="path39752"
             inkscape:connector-curvature="0" />
        </g>
        <g
           style="fill:#010101;fill-opacity:1"
           id="g39754"
           transform="matrix(0.35277777,0,0,-0.35277777,-71.602739,525.73414)">
          <path
             d="m 0,0 c 0,-0.59 0.479,-1.07 1.068,-1.07 h 29.317 c 0.59,0 1.069,0.48 1.069,1.07 0,0.59 -0.479,1.07 -1.069,1.07 H 1.068 C 0.479,1.07 0,0.592 0,0"
             style="fill:#010101;fill-opacity:1;fill-rule:nonzero;stroke:none"
             id="path39756"
             inkscape:connector-curvature="0" />
        </g>
        <g
           style="fill:#010101;fill-opacity:1"
           id="g39758"
           transform="matrix(0.35277777,0,0,-0.35277777,-60.883692,526.79727)">
          <path
             d="m 0,0 h -5.549 c -0.592,0 -1.07,-0.479 -1.07,-1.07 0,-0.59 0.478,-1.069 1.07,-1.069 H 0 c 0.59,0 1.069,0.479 1.069,1.069 C 1.069,-0.479 0.59,0 0,0"
             style="fill:#010101;fill-opacity:1;fill-rule:nonzero;stroke:none"
             id="path39760"
             inkscape:connector-curvature="0" />
        </g>
        <g
           style="fill:#010101;fill-opacity:1"
           id="g39762"
           transform="matrix(0.35277777,0,0,-0.35277777,-60.883692,529.30876)">
          <path
             d="m 0,0 h -1.756 c -0.591,0 -1.069,-0.48 -1.069,-1.07 0,-0.59 0.478,-1.069 1.069,-1.069 H 0 c 0.59,0 1.069,0.479 1.069,1.069 C 1.069,-0.48 0.59,0 0,0"
             style="fill:#010101;fill-opacity:1;fill-rule:nonzero;stroke:none"
             id="path39764"
             inkscape:connector-curvature="0" />
        </g>
        <g
           style="fill:#010101;fill-opacity:1"
           id="g39766"
           transform="matrix(0.35277777,0,0,-0.35277777,-62.886658,529.30876)">
          <path
             d="m 0,0 h -1.756 c -0.591,0 -1.068,-0.48 -1.068,-1.07 0,-0.59 0.477,-1.069 1.068,-1.069 H 0 c 0.591,0 1.069,0.479 1.069,1.069 C 1.069,-0.48 0.591,0 0,0"
             style="fill:#010101;fill-opacity:1;fill-rule:nonzero;stroke:none"
             id="path39768"
             inkscape:connector-curvature="0" />
        </g>
        <g
           style="fill:#010101;fill-opacity:1"
           id="g39770"
           transform="matrix(0.35277777,0,0,-0.35277777,-67.605767,526.79727)">
          <path
             d="m 0,0 h -10.262 c -0.59,0 -1.068,-0.479 -1.068,-1.07 0,-0.59 0.478,-1.069 1.068,-1.069 H 0 c 0.59,0 1.068,0.479 1.068,1.069 C 1.068,-0.479 0.59,0 0,0"
             style="fill:#010101;fill-opacity:1;fill-rule:nonzero;stroke:none"
             id="path39772"
             inkscape:connector-curvature="0" />
        </g>
      </g>
    </g>
  </g>
</svg>
