<?xml version="1.0" encoding="UTF-8" standalone="no"?>
<!-- Created with Inkscape (http://www.inkscape.org/) -->

<svg
   xmlns:dc="http://purl.org/dc/elements/1.1/"
   xmlns:cc="http://creativecommons.org/ns#"
   xmlns:rdf="http://www.w3.org/1999/02/22-rdf-syntax-ns#"
   xmlns:svg="http://www.w3.org/2000/svg"
   xmlns="http://www.w3.org/2000/svg"
   xmlns:sodipodi="http://sodipodi.sourceforge.net/DTD/sodipodi-0.dtd"
   xmlns:inkscape="http://www.inkscape.org/namespaces/inkscape"
   width="35"
   height="35.012104"
   viewBox="0 0 9.2604165 9.2636195"
   version="1.1"
   id="svg28147"
   inkscape:version="0.92.2 (5c3e80d, 2017-08-06)"
   sodipodi:docname="finance.svg">
  <defs
     id="defs28141" />
  <sodipodi:namedview
     id="base"
     pagecolor="#ffffff"
     bordercolor="#666666"
     borderopacity="1.0"
     inkscape:pageopacity="0.0"
     inkscape:pageshadow="2"
     inkscape:zoom="1.4"
     inkscape:cx="104.85604"
     inkscape:cy="-103.73006"
     inkscape:document-units="px"
     inkscape:current-layer="layer1"
     showgrid="false"
     units="px"
     fit-margin-top="0"
     fit-margin-left="0"
     fit-margin-right="0"
     fit-margin-bottom="0" />
  <metadata
     id="metadata28144">
    <rdf:RDF>
      <cc:Work
         rdf:about="">
        <dc:format>image/svg+xml</dc:format>
        <dc:type
           rdf:resource="http://purl.org/dc/dcmitype/StillImage" />
        <dc:title></dc:title>
      </cc:Work>
    </rdf:RDF>
  </metadata>
  <g
     inkscape:label="Layer 1"
     inkscape:groupmode="layer"
     id="layer1"
     transform="translate(147.71482,-70.332049)">
    <g
       transform="matrix(0.27340969,0,0,0.27340969,-138.77676,-68.469125)"
       id="g28117">
      <g
         style="fill:#010101;fill-opacity:1"
         transform="matrix(0.35277777,0,0,-0.35277777,0.82624161,524.6062)"
         id="g39640">
        <path
           inkscape:connector-curvature="0"
           id="path39642"
           d="m -95.009766,-48.027344 1.033204,1.554688 c 9.369354,14.096235 4.124214,30.081735 0.93164,41.3867185 v 0.00195 c -1.861731,6.6180001 -1.716965,13.6602764 0.445313,20.1914065 6.33384,19.114899 24.350077,32.908203 45.576171,32.908203 C -20.511112,48.015625 1,26.505522 1,0 1,-26.515314 -20.511061,-48.027344 -47.023438,-48.027344 Z m 3.529297,2 h 44.457031 C -21.591814,-46.027344 -1,-25.434686 -1,0 c 0,25.424478 -20.591763,46.015625 -46.023438,46.015625 -20.359905,0 -37.609574,-13.224008 -43.677734,-31.537109 -2.035722,-6.1488705 -2.172238,-12.7854848 -0.417969,-19.0214848 3.061167,-10.8396652 8.239267,-26.9173222 -0.361328,-41.4843752 z"
           style="color:#000000;font-style:normal;font-variant:normal;font-weight:normal;font-stretch:normal;font-size:medium;line-height:normal;font-family:sans-serif;font-variant-ligatures:normal;font-variant-position:normal;font-variant-caps:normal;font-variant-numeric:normal;font-variant-alternates:normal;font-feature-settings:normal;text-indent:0;text-align:start;text-decoration:none;text-decoration-line:none;text-decoration-style:solid;text-decoration-color:#000000;letter-spacing:normal;word-spacing:normal;text-transform:none;writing-mode:lr-tb;direction:ltr;text-orientation:mixed;dominant-baseline:auto;baseline-shift:baseline;text-anchor:start;white-space:normal;shape-padding:0;clip-rule:nonzero;display:inline;overflow:visible;visibility:visible;opacity:1;isolation:auto;mix-blend-mode:normal;color-interpolation:sRGB;color-interpolation-filters:linearRGB;solid-color:#000000;solid-opacity:1;vector-effect:none;fill:#010101;fill-opacity:1;fill-rule:nonzero;stroke:none;stroke-width:2;stroke-linecap:butt;stroke-linejoin:miter;stroke-miterlimit:10;stroke-dasharray:none;stroke-dashoffset:0;stroke-opacity:1;color-rendering:auto;image-rendering:auto;shape-rendering:auto;text-rendering:auto;enable-background:accumulate" />
      </g>
      <g
         id="g28102">
        <path
           inkscape:connector-curvature="0"
           id="path39650"
           style="fill:#010101;fill-opacity:1;fill-rule:nonzero;stroke:none;stroke-width:0.35277778"
           d="m -6.881106,532.58296 h -1.2752916 v -0.86607 c 0,-0.0505 -0.04057,-0.0903 -0.090311,-0.0903 -0.049036,0 -0.089253,0.0399 -0.089253,0.0903 v 0.86607 h -1.6125472 v -0.86607 c 0,-0.0505 -0.04057,-0.0903 -0.090311,-0.0903 -0.04904,0 -0.0889,0.0399 -0.0889,0.0903 v 0.86607 h -1.6129 v -0.86607 c 0,-0.0505 -0.04022,-0.0903 -0.09031,-0.0903 -0.04904,0 -0.0889,0.0399 -0.0889,0.0903 v 0.86607 h -1.6129 v -0.86607 c 0,-0.0505 -0.04022,-0.0903 -0.08996,-0.0903 -0.04939,0 -0.08925,0.0399 -0.08925,0.0903 v 0.86607 h -1.613253 v -0.86607 c 0,-0.0505 -0.03986,-0.0903 -0.08925,-0.0903 -0.04939,0 -0.08961,0.0399 -0.08961,0.0903 v 0.86607 h -1.613253 v -0.86607 c 0,-0.0505 -0.03986,-0.0903 -0.08961,-0.0903 -0.04868,0 -0.08925,0.0399 -0.08925,0.0903 v 0.86607 h -1.6129 v -0.86607 c 0,-0.0505 -0.04022,-0.0903 -0.08996,-0.0903 -0.04868,0 -0.08925,0.0399 -0.08925,0.0903 v 0.86607 h -1.612547 v -0.86607 c 0,-0.0505 -0.04057,-0.0903 -0.09031,-0.0903 -0.04868,0 -0.0889,0.0399 -0.0889,0.0903 v 0.86607 h -3.256139 v -2.03129 h 0.720019 c 0.04904,0 0.08961,-0.0399 0.08961,-0.0896 0,-0.0494 -0.04057,-0.0896 -0.08961,-0.0896 h -0.720019 v -1.61219 h 0.720019 c 0.04904,0 0.08961,-0.0406 0.08961,-0.0903 0,-0.0487 -0.04057,-0.0896 -0.08961,-0.0896 h -0.720019 v -1.61219 h 0.720019 c 0.04904,0 0.08961,-0.0406 0.08961,-0.0903 0,-0.049 -0.04057,-0.0896 -0.08961,-0.0896 h -0.720019 v -1.61219 h 0.720019 c 0.04904,0 0.08961,-0.0406 0.08961,-0.0903 0,-0.049 -0.04057,-0.0896 -0.08961,-0.0896 h -0.720019 v -1.61219 h 0.720019 c 0.04904,0 0.08961,-0.0399 0.08961,-0.0903 0,-0.049 -0.04057,-0.0889 -0.08961,-0.0889 h -0.720019 v -1.6129 h 0.720019 c 0.04904,0 0.08961,-0.0402 0.08961,-0.0903 0,-0.049 -0.04057,-0.0889 -0.08961,-0.0889 h -0.720019 v -1.6129 h 0.720019 c 0.04904,0 0.08961,-0.0402 0.08961,-0.0903 0,-0.049 -0.04057,-0.0889 -0.08961,-0.0889 h -0.720019 v -1.6129 h 0.720019 c 0.04904,0 0.08961,-0.0402 0.08961,-0.0896 0,-0.0497 -0.04057,-0.0896 -0.08961,-0.0896 h -0.720019 V 516.364 c 0,-0.14746 -0.119945,-0.26776 -0.268817,-0.26776 -0.147814,0 -0.268817,0.1203 -0.268817,0.26776 v 16.48778 c 0,0.14746 0.121003,0.26846 0.268817,0.26846 h 17.5238848 c 0.1488722,0 0.2688167,-0.121 0.2688167,-0.26846 0,-0.14888 -0.1199445,-0.26882 -0.2688167,-0.26882" />
        <path
           d="m -21.87014,518.53405 h 1.836914 v 12.14896 h -1.836914 z"
           style="fill:#010101;fill-opacity:1;fill-rule:nonzero;stroke:none;stroke-width:0.35277778"
           id="path39652"
           inkscape:connector-curvature="0" />
        <g
           id="g39654"
           transform="matrix(0.35277777,0,0,-0.35277777,-16.136019,524.25067)"
           style="fill:#010101;fill-opacity:1">
          <path
             d="m 0,0 c -0.68,0.889 -1.232,1.848 -1.656,2.85 h -3.55 V -18.232 H 0 Z"
             style="fill:#010101;fill-opacity:1;fill-rule:nonzero;stroke:none"
             id="path39656"
             inkscape:connector-curvature="0" />
        </g>
        <g
           id="g39658"
           transform="matrix(0.35277777,0,0,-0.35277777,-12.282345,526.06074)"
           style="fill:#010101;fill-opacity:1">
          <path
             d="m 0,0 c -0.168,-0.008 -0.338,-0.018 -0.506,-0.018 -1.635,0 -3.223,0.301 -4.703,0.868 V -13.102 H 0 Z"
             style="fill:#010101;fill-opacity:1;fill-rule:nonzero;stroke:none"
             id="path39660"
             inkscape:connector-curvature="0" />
        </g>
        <g
           id="g39662"
           transform="matrix(0.35277777,0,0,-0.35277777,-8.2502012,527.16592)"
           style="fill:#010101;fill-opacity:1">
          <path
             d="M 0,0 -5.01,5.082 C -5.074,5.043 -5.143,5.008 -5.209,4.971 V -9.969 H 0 Z"
             style="fill:#010101;fill-opacity:1;fill-rule:nonzero;stroke:none"
             id="path39664"
             inkscape:connector-curvature="0" />
        </g>
        <path
           inkscape:connector-curvature="0"
           id="path39668"
           style="fill:#010101;fill-opacity:1;fill-rule:nonzero;stroke:none;stroke-width:0.35277778"
           d="m -10.317938,523.65328 c -1.193447,1.19345 -3.136547,1.19345 -4.329642,0 -1.194152,-1.19415 -1.193447,-3.13725 0,-4.33035 1.193095,-1.19344 3.136195,-1.19344 4.329642,0 1.1945055,1.1931 1.1945055,3.1362 0,4.33035 m 6.0289721,5.37175 -4.9597027,-5.03273 c 1.2435417,-1.60408 1.1327694,-3.92677 -0.339725,-5.39926 -1.5956134,-1.59562 -4.1927634,-1.59562 -5.7897884,0 -1.595967,1.59596 -1.595967,4.19347 0,5.78978 1.472494,1.4732 3.795183,1.58362 5.399969,0.33973 l 4.9593499,5.03202 c 0.2014361,0.20179 0.5288139,0.20179 0.7298972,0 0.2017889,-0.20108 0.2017889,-0.52846 0,-0.72954" />
        <path
           inkscape:connector-curvature="0"
           id="path39672"
           style="fill:#010101;fill-opacity:1;fill-rule:nonzero;stroke:none;stroke-width:0.35277778"
           d="m -12.334027,521.05017 c -0.467783,-0.19367 -0.602897,-0.3108 -0.602897,-0.52282 0,-0.17039 0.123472,-0.36794 0.473428,-0.36794 0.329141,0 0.536575,0.11853 0.624769,0.16862 0.02293,0.0131 0.04974,0.0152 0.07514,0.007 0.02469,-0.01 0.04339,-0.0275 0.05362,-0.0526 l 0.132997,-0.35137 c 0.01588,-0.0413 -0.0011,-0.0868 -0.03845,-0.10866 -0.190852,-0.11112 -0.402519,-0.17533 -0.646994,-0.19297 v -0.43144 c 0,-0.0497 -0.03986,-0.0896 -0.09031,-0.0896 h -0.328436 c -0.05045,0 -0.08961,0.0399 -0.08961,0.0896 v 0.46249 c -0.490714,0.10865 -0.802217,0.46708 -0.802217,0.92992 0,0.55951 0.448028,0.81245 0.931687,1.0033 0.38735,0.15628 0.545041,0.31574 0.545041,0.54857 0,0.25823 -0.218369,0.43109 -0.542219,0.43109 -0.250825,0 -0.511881,-0.0776 -0.716139,-0.21343 -0.02258,-0.0145 -0.05151,-0.0187 -0.07761,-0.0102 -0.02646,0.009 -0.04692,0.0289 -0.05574,0.055 l -0.127706,0.3563 c -0.01446,0.037 -0.0014,0.079 0.03246,0.10195 0.185914,0.133 0.482953,0.22649 0.775053,0.2466 v 0.4519 c 0,0.049 0.04022,0.0889 0.0889,0.0889 h 0.335491 c 0.04974,0 0.0889,-0.0399 0.0889,-0.0889 v -0.47871 c 0.505884,-0.11325 0.839964,-0.49813 0.839964,-0.9772 0,-0.4893 -0.263172,-0.80469 -0.879122,-1.05551" />
      </g>
    </g>
  </g>
</svg>
