<?xml version="1.0" encoding="UTF-8" standalone="no"?>
<!-- Created with Inkscape (http://www.inkscape.org/) -->

<svg
   xmlns:dc="http://purl.org/dc/elements/1.1/"
   xmlns:cc="http://creativecommons.org/ns#"
   xmlns:rdf="http://www.w3.org/1999/02/22-rdf-syntax-ns#"
   xmlns:svg="http://www.w3.org/2000/svg"
   xmlns="http://www.w3.org/2000/svg"
   xmlns:sodipodi="http://sodipodi.sourceforge.net/DTD/sodipodi-0.dtd"
   xmlns:inkscape="http://www.inkscape.org/namespaces/inkscape"
   width="35"
   height="35.012119"
   viewBox="0 0 9.2604165 9.2636235"
   version="1.1"
   id="svg17670"
   inkscape:version="0.92.2 (5c3e80d, 2017-08-06)"
   sodipodi:docname="delivery.svg">
  <defs
     id="defs17664" />
  <sodipodi:namedview
     id="base"
     pagecolor="#ffffff"
     bordercolor="#666666"
     borderopacity="1.0"
     inkscape:pageopacity="0.0"
     inkscape:pageshadow="2"
     inkscape:zoom="0.35"
     inkscape:cx="289.7208"
     inkscape:cy="-33.11418"
     inkscape:document-units="px"
     inkscape:current-layer="layer1"
     showgrid="false"
     units="px"
     fit-margin-top="0"
     fit-margin-left="0"
     fit-margin-right="0"
     fit-margin-bottom="0" />
  <metadata
     id="metadata17667">
    <rdf:RDF>
      <cc:Work
         rdf:about="">
        <dc:format>image/svg+xml</dc:format>
        <dc:type
           rdf:resource="http://purl.org/dc/dcmitype/StillImage" />
        <dc:title></dc:title>
      </cc:Work>
    </rdf:RDF>
  </metadata>
  <g
     inkscape:label="Layer 1"
     inkscape:groupmode="layer"
     id="layer1"
     transform="translate(106.89339,-130.80824)">
    <g
       id="g38392"
       transform="matrix(0.09645286,0,0,-0.09645286,-97.729426,135.43949)"
       style="fill:#010101;fill-opacity:1">
      <path
         style="color:#000000;font-style:normal;font-variant:normal;font-weight:normal;font-stretch:normal;font-size:medium;line-height:normal;font-family:sans-serif;font-variant-ligatures:normal;font-variant-position:normal;font-variant-caps:normal;font-variant-numeric:normal;font-variant-alternates:normal;font-feature-settings:normal;text-indent:0;text-align:start;text-decoration:none;text-decoration-line:none;text-decoration-style:solid;text-decoration-color:#000000;letter-spacing:normal;word-spacing:normal;text-transform:none;writing-mode:lr-tb;direction:ltr;text-orientation:mixed;dominant-baseline:auto;baseline-shift:baseline;text-anchor:start;white-space:normal;shape-padding:0;clip-rule:nonzero;display:inline;overflow:visible;visibility:visible;opacity:1;isolation:auto;mix-blend-mode:normal;color-interpolation:sRGB;color-interpolation-filters:linearRGB;solid-color:#000000;solid-opacity:1;vector-effect:none;fill:#010101;fill-opacity:1;fill-rule:nonzero;stroke:none;stroke-width:2;stroke-linecap:butt;stroke-linejoin:miter;stroke-miterlimit:10;stroke-dasharray:none;stroke-dashoffset:0;stroke-opacity:1;color-rendering:auto;image-rendering:auto;shape-rendering:auto;text-rendering:auto;enable-background:accumulate"
         d="m -95.009766,-48.027344 1.033204,1.554688 c 9.369319,14.095213 4.125186,30.081655 0.933593,41.3867185 -1.862785,6.6191169 -1.717863,13.6613831 0.44336,20.1914065 v 0.002 c 6.33383,19.115891 24.350077,32.908203 45.576171,32.908203 C -20.511112,48.015625 1,26.505522 1,0 1,-26.514335 -20.511035,-48.027344 -47.023438,-48.027344 Z m 3.529297,2 h 44.457031 C -21.59184,-46.027344 -1,-25.433665 -1,0 c 0,25.424478 -20.591763,46.015625 -46.023438,46.015625 -20.359267,0 -37.609054,-13.223894 -43.677734,-31.537109 v -0.002 C -92.735177,8.3297008 -92.873635,1.692765 -91.119141,-4.5429688 v -0.00195 c 3.060255,-10.8395712 8.238866,-26.9169832 -0.361328,-41.4824222 z"
         id="path38394"
         inkscape:connector-curvature="0" />
    </g>
    <g
       transform="matrix(0.27340969,0,0,0.27340969,-85.056928,158.65926)"
       id="g1951"
       style="fill:#010101;fill-opacity:1">
      <g
         transform="matrix(0.35277777,0,0,-0.35277777,-66.644553,-84.988459)"
         id="g38396"
         style="fill:#010101;fill-opacity:1">
        <path
           inkscape:connector-curvature="0"
           id="path38398"
           style="fill:#010101;fill-opacity:1;fill-rule:nonzero;stroke:none"
           d="m 0,0 c 0.037,0.655 0.085,1.311 0.169,1.976 0.159,1.572 0.496,3.154 0.843,4.69 0.216,0.767 0.449,1.526 0.692,2.265 0.309,0.722 0.609,1.443 0.908,2.145 0.684,1.367 1.442,2.649 2.36,3.726 0.215,0.272 0.43,0.544 0.635,0.814 0.246,0.235 0.479,0.469 0.713,0.702 0.488,0.441 0.909,0.919 1.396,1.265 0.972,0.72 1.834,1.405 2.705,1.825 0.843,0.469 1.564,0.881 2.22,1.115 1.272,0.506 2.003,0.766 2.003,0.766 0,0 -0.619,-0.486 -1.705,-1.282 C 12.388,19.643 11.798,19.062 11.086,18.473 10.355,17.91 9.69,17.104 8.904,16.338 8.502,15.945 8.202,15.449 7.827,14.99 7.641,14.765 7.453,14.531 7.267,14.288 7.106,14.024 6.947,13.764 6.788,13.492 6.086,12.462 5.562,11.245 5.019,10.017 4.804,9.372 4.579,8.715 4.345,8.062 4.186,7.369 4.017,6.676 3.82,5.992 3.539,4.569 3.258,3.117 3.137,1.627 3.053,1.086 3.015,0.541 2.959,0 14.794,-0.009 23.96,-0.009 36.777,-0.009 c 0.037,0.561 0.065,1.123 0.065,1.695 0,10.794 -7.864,19.689 -17.985,20.869 0.646,0.609 1.068,1.479 1.068,2.443 0,1.855 -1.498,3.353 -3.353,3.353 -1.853,0 -3.351,-1.498 -3.351,-3.353 0,-0.964 0.411,-1.834 1.067,-2.443 C 4.167,21.375 -3.707,12.48 -3.707,1.686 -3.707,1.121 -3.68,0.562 -3.642,0 Z" />
      </g>
      <path
         inkscape:connector-curvature="0"
         id="path38400"
         style="fill:#010101;fill-opacity:1;fill-rule:nonzero;stroke:none;stroke-width:0.35277778"
         d="m -69.253486,-84.549075 h 16.911108 v 1.493661 h -16.911108 z" />
      <g
         transform="matrix(0.35277777,0,0,-0.35277777,-59.285503,-81.996022)"
         id="g38402"
         style="fill:#010101;fill-opacity:1">
        <path
           inkscape:connector-curvature="0"
           id="path38404"
           style="fill:#010101;fill-opacity:1;fill-rule:nonzero;stroke:none"
           d="m 0,0 c -2.434,-1.182 -10.926,-4.241 -10.926,-4.241 l -10.047,0.627 c 0,0 5.749,1.592 7.968,2.097 2.236,0.496 1.265,3.015 0.028,3.015 -1.227,0 -11.975,-0.45 -11.975,-0.45 l -7.134,-2.565 1.891,-11.956 c 0,0 1.46,2.516 2.931,2.516 1.47,0 14.212,-0.335 15.936,0 1.731,0.339 12.273,7.549 13.529,8.389 C 3.464,-1.723 2.444,1.189 0,0" />
      </g>
      <g
         transform="matrix(0.35277777,0,0,-0.35277777,-73.990198,-81.008491)"
         id="g38406"
         style="fill:#010101;fill-opacity:1">
        <path
           inkscape:connector-curvature="0"
           id="path38408"
           style="fill:#010101;fill-opacity:1;fill-rule:nonzero;stroke:none"
           d="M 0,0 V -15.496 L 10.936,-13.457 8.202,1.439 Z" />
      </g>
    </g>
  </g>
</svg>
