<?xml version="1.0" encoding="UTF-8" standalone="no"?>
<!-- Created with Inkscape (http://www.inkscape.org/) -->

<svg
   xmlns:dc="http://purl.org/dc/elements/1.1/"
   xmlns:cc="http://creativecommons.org/ns#"
   xmlns:rdf="http://www.w3.org/1999/02/22-rdf-syntax-ns#"
   xmlns:svg="http://www.w3.org/2000/svg"
   xmlns="http://www.w3.org/2000/svg"
   xmlns:sodipodi="http://sodipodi.sourceforge.net/DTD/sodipodi-0.dtd"
   xmlns:inkscape="http://www.inkscape.org/namespaces/inkscape"
   width="35"
   height="35.012814"
   viewBox="0 0 9.2604165 9.2638072"
   version="1.1"
   id="svg26139"
   inkscape:version="0.92.2 (5c3e80d, 2017-08-06)"
   sodipodi:docname="gardening.svg">
  <defs
     id="defs26133" />
  <sodipodi:namedview
     id="base"
     pagecolor="#ffffff"
     bordercolor="#666666"
     borderopacity="1.0"
     inkscape:pageopacity="0.0"
     inkscape:pageshadow="2"
     inkscape:zoom="0.35"
     inkscape:cx="-61.709082"
     inkscape:cy="-161.6856"
     inkscape:document-units="px"
     inkscape:current-layer="layer1"
     showgrid="false"
     units="px"
     fit-margin-top="0"
     fit-margin-left="0"
     fit-margin-right="0"
     fit-margin-bottom="0" />
  <metadata
     id="metadata26136">
    <rdf:RDF>
      <cc:Work
         rdf:about="">
        <dc:format>image/svg+xml</dc:format>
        <dc:type
           rdf:resource="http://purl.org/dc/dcmitype/StillImage" />
        <dc:title></dc:title>
      </cc:Work>
    </rdf:RDF>
  </metadata>
  <g
     inkscape:label="Layer 1"
     inkscape:groupmode="layer"
     id="layer1"
     transform="translate(13.910901,-96.790202)">
    <g
       id="g38324"
       transform="matrix(0.09645482,0,0,-0.09645482,-4.7469392,101.42154)"
       style="fill:#010101;fill-opacity:1">
      <path
         style="color:#000000;font-style:normal;font-variant:normal;font-weight:normal;font-stretch:normal;font-size:medium;line-height:normal;font-family:sans-serif;font-variant-ligatures:normal;font-variant-position:normal;font-variant-caps:normal;font-variant-numeric:normal;font-variant-alternates:normal;font-feature-settings:normal;text-indent:0;text-align:start;text-decoration:none;text-decoration-line:none;text-decoration-style:solid;text-decoration-color:#000000;letter-spacing:normal;word-spacing:normal;text-transform:none;writing-mode:lr-tb;direction:ltr;text-orientation:mixed;dominant-baseline:auto;baseline-shift:baseline;text-anchor:start;white-space:normal;shape-padding:0;clip-rule:nonzero;display:inline;overflow:visible;visibility:visible;opacity:1;isolation:auto;mix-blend-mode:normal;color-interpolation:sRGB;color-interpolation-filters:linearRGB;solid-color:#000000;solid-opacity:1;vector-effect:none;fill:#010101;fill-opacity:1;fill-rule:nonzero;stroke:none;stroke-width:2;stroke-linecap:butt;stroke-linejoin:miter;stroke-miterlimit:10;stroke-dasharray:none;stroke-dashoffset:0;stroke-opacity:1;color-rendering:auto;image-rendering:auto;shape-rendering:auto;text-rendering:auto;enable-background:accumulate"
         d="m -95.007812,-48.027344 1.03125,1.554688 c 9.369354,14.096235 4.125186,30.081655 0.933593,41.3867185 v 0.00195 c -1.862808,6.6181678 -1.717835,13.6604364 0.44336,20.1914065 6.33384,19.114899 24.350077,32.908203 45.576171,32.908203 C -20.511112,48.015625 1,26.505497 1,0 1,-26.515289 -20.511061,-48.027344 -47.023438,-48.027344 Z m 3.527343,2 h 44.457031 C -21.591814,-46.027344 -1,-25.434711 -1,0 c 0,25.424503 -20.591763,46.015625 -46.023438,46.015625 -20.359905,0 -37.609574,-13.224008 -43.677734,-31.537109 -2.034805,-6.1490305 -2.171208,-12.7856526 -0.416016,-19.0214848 3.060198,-10.8396432 8.2375,-26.9172642 -0.363281,-41.4843752 z"
         id="path38326"
         inkscape:connector-curvature="0" />
    </g>
    <g
       id="g26097"
       transform="matrix(0.27341526,0,0,0.27341526,9.2028103,13.729238)">
      <path
         d="m -60.301468,324.48818 c -0.877006,-1.30634 -2.028119,-2.27647 -3.237794,-3.14078 -0.983192,-0.70132 -2.10432,-0.55457 -3.14572,-0.0977 -0.06385,0.0303 -0.13088,0.0466 -0.194733,0.0709 -0.03634,-0.1965 -0.06068,-0.39053 -0.109714,-0.5909 -0.08855,-0.37395 -0.207081,-0.74507 -0.322792,-1.11478 -0.134055,-0.37783 -0.27693,-0.75459 -0.454025,-1.11196 -0.08819,-0.17674 -0.173566,-0.35736 -0.27693,-0.5274 -0.09137,-0.17286 -0.197908,-0.33726 -0.3048,-0.50059 -0.100542,-0.16792 -0.22225,-0.31397 -0.331611,-0.46743 -0.115711,-0.15029 -0.240595,-0.28716 -0.356659,-0.42722 -0.12453,-0.13123 -0.243416,-0.26387 -0.3683,-0.38064 -0.131233,-0.11677 -0.249766,-0.23672 -0.377825,-0.33691 -0.252588,-0.21413 -0.502708,-0.39087 -0.740127,-0.5408 -0.121709,-0.0734 -0.23742,-0.14394 -0.347134,-0.21026 -0.112183,-0.0568 -0.219075,-0.11077 -0.323144,-0.16369 -0.200378,-0.10372 -0.386292,-0.17074 -0.532695,-0.23848 -0.304094,-0.10654 -0.478013,-0.16898 -0.478013,-0.16898 0,0 0.170038,0.0734 0.469194,0.19368 0.142875,0.0765 0.325967,0.1524 0.5207,0.2667 0.09737,0.0572 0.201083,0.11747 0.310444,0.18062 0.106539,0.0702 0.216959,0.14358 0.335139,0.22366 0.225425,0.15946 0.46602,0.34749 0.703792,0.56691 0.121356,0.10407 0.231422,0.23002 0.352778,0.35102 0.116416,0.1203 0.2286,0.25717 0.344311,0.39052 0.106539,0.14358 0.222603,0.28364 0.325967,0.43357 0.100541,0.15663 0.212725,0.30339 0.301625,0.47096 0.09737,0.16016 0.191558,0.32632 0.27693,0.49777 0.08855,0.17039 0.16757,0.34713 0.24377,0.52387 0.152752,0.35772 0.273755,0.72425 0.386997,1.08479 0.09701,0.37994 0.197908,0.74436 0.264936,1.10137 0.03951,0.20426 0.06985,0.40746 0.09737,0.60431 -0.438502,0.0903 -0.874183,0.0702 -1.300691,-0.0695 -0.81915,-0.27059 -1.641475,-0.30057 -2.475795,-0.30445 -0.359833,0 -0.65793,0.13723 -0.871008,0.44415 -0.118886,0.17356 0.858661,0.88829 1.692981,0.88829 -0.15487,0.34043 -2.859264,-0.38171 -3.219097,-0.35066 l -2.046464,-0.28752 c -0.727781,-0.0639 -0.727781,-0.363 -1.440745,0.0797 -0.02399,0.0141 -0.06068,0.0141 -0.09137,0.0141 -0.395817,-0.0268 -0.620889,0.11325 -0.843139,0.40076 -0.128058,0.16686 -0.116064,0.36936 -0.04939,0.56727 0.07338,0.20037 0.256117,0.15028 0.405694,0.21343 0.912989,0.39758 1.208617,0.5909 2.451453,0.92815 0.883003,0.23707 1.742017,0.53094 2.621845,0.74754 0.366183,0.0903 0.737305,0.16016 1.066094,0.36089 0.697442,0.4311 1.437922,0.56409 2.235906,0.52423 0.907344,-0.0469 1.814688,-0.007 2.722386,-0.0138 1.589616,-0.007 2.802113,0.69109 3.618088,2.22956 l 5.122686,-0.0127 c -1.1176,-1.43228 -1.610783,-1.77941 -2.631369,-3.30165"
         style="fill:#010101;fill-opacity:1;fill-rule:nonzero;stroke:none;stroke-width:0.35277778"
         id="path38568"
         inkscape:connector-curvature="0" />
      <g
         style="fill:#010101;fill-opacity:1"
         transform="matrix(0.35277777,0,0,-0.35277777,-67.43728,318.68975)"
         id="g38578">
        <path
           inkscape:connector-curvature="0"
           id="path38580"
           style="fill:#010101;fill-opacity:1;fill-rule:nonzero;stroke:none"
           d="m 0,0 c 0.035,-0.172 0.104,-0.31 0.13,-0.407 0.034,-0.105 0.06,-0.152 0.06,-0.152 0,0 0.043,0.031 0.122,0.095 0.068,0.066 0.181,0.16 0.302,0.284 0.249,0.245 0.578,0.615 0.897,1.081 0.32,0.46 0.639,1.008 0.907,1.625 0.275,0.616 0.509,1.277 0.674,1.967 0.353,1.382 0.422,2.84 0.284,3.994 -0.068,0.569 -0.182,1.06 -0.284,1.418 -0.044,0.181 -0.105,0.324 -0.13,0.418 -0.043,0.094 -0.061,0.155 -0.061,0.155 L 2.78,10.372 C 2.711,10.313 2.591,10.219 2.47,10.086 2.22,9.841 1.891,9.473 1.58,9.017 0.933,8.101 0.319,6.793 -0.008,5.412 -0.181,4.723 -0.284,4.024 -0.327,3.34 -0.371,2.658 -0.354,2.008 -0.284,1.428 -0.224,0.851 -0.103,0.359 0,0" />
      </g>
      <g
         style="fill:#010101;fill-opacity:1"
         transform="matrix(0.35277777,0,0,-0.35277777,-69.468857,315.45791)"
         id="g38582">
        <path
           inkscape:connector-curvature="0"
           id="path38584"
           style="fill:#010101;fill-opacity:1;fill-rule:nonzero;stroke:none"
           d="M 0,0 C 0.036,-0.182 0.104,-0.324 0.131,-0.419 0.174,-0.523 0.19,-0.57 0.19,-0.57 c 0,0 0.036,0.029 0.114,0.093 0.069,0.067 0.189,0.163 0.309,0.288 0.251,0.251 0.571,0.612 0.891,1.078 0.318,0.461 0.638,1.01 0.914,1.625 0.275,0.618 0.51,1.278 0.674,1.97 0.353,1.383 0.422,2.838 0.285,3.983 -0.069,0.577 -0.182,1.079 -0.285,1.431 -0.043,0.166 -0.104,0.319 -0.139,0.415 -0.034,0.096 -0.051,0.15 -0.051,0.15 L 2.781,10.368 C 2.711,10.305 2.592,10.211 2.479,10.076 2.22,9.829 1.899,9.461 1.581,9.006 0.934,8.091 0.329,6.781 -0.008,5.401 -0.172,4.71 -0.284,4 -0.327,3.331 -0.369,2.646 -0.345,1.994 -0.284,1.418 -0.224,0.849 -0.102,0.347 0,0" />
      </g>
      <g
         style="fill:#010101;fill-opacity:1"
         transform="matrix(0.35277777,0,0,-0.35277777,-71.621365,319.06732)"
         id="g38586">
        <path
           inkscape:connector-curvature="0"
           id="path38588"
           style="fill:#010101;fill-opacity:1;fill-rule:nonzero;stroke:none"
           d="m 0,0 c -0.139,-0.084 -0.252,-0.198 -0.33,-0.246 -0.077,-0.076 -0.111,-0.103 -0.111,-0.103 0,0 0.034,-0.039 0.111,-0.103 0.078,-0.059 0.191,-0.162 0.337,-0.248 0.286,-0.199 0.692,-0.453 1.182,-0.66 0.977,-0.447 2.28,-0.749 3.584,-0.741 0.647,0.011 1.303,0.085 1.916,0.221 0.605,0.12 1.174,0.318 1.667,0.537 0.483,0.227 0.889,0.476 1.173,0.674 0.148,0.092 0.26,0.197 0.338,0.243 0.069,0.077 0.112,0.104 0.112,0.104 0,0 -0.034,0.038 -0.112,0.105 -0.078,0.06 -0.19,0.163 -0.338,0.246 C 9.245,0.228 8.839,0.474 8.348,0.691 7.863,0.91 7.285,1.099 6.68,1.231 6.068,1.355 5.412,1.43 4.764,1.419 3.461,1.43 2.157,1.126 1.182,0.672 0.699,0.457 0.293,0.198 0,0" />
      </g>
      <g
         style="fill:#010101;fill-opacity:1"
         transform="matrix(0.35277777,0,0,-0.35277777,-73.540618,316.68022)"
         id="g38590">
        <path
           inkscape:connector-curvature="0"
           id="path38592"
           style="fill:#010101;fill-opacity:1;fill-rule:nonzero;stroke:none"
           d="m 0,0 c 0.302,-0.168 0.726,-0.38 1.227,-0.549 1.01,-0.361 2.331,-0.527 3.626,-0.396 0.656,0.066 1.293,0.196 1.89,0.389 0.604,0.187 1.156,0.433 1.623,0.701 0.475,0.251 0.856,0.545 1.121,0.772 0.14,0.104 0.242,0.218 0.313,0.275 0.077,0.076 0.111,0.114 0.111,0.114 0,0 -0.043,0.026 -0.121,0.083 C 9.704,1.437 9.592,1.533 9.437,1.607 9.144,1.787 8.712,1.995 8.21,2.159 7.702,2.328 7.123,2.472 6.501,2.546 5.88,2.61 5.224,2.62 4.576,2.566 3.28,2.45 2.003,2.024 1.062,1.484 0.597,1.221 0.208,0.927 -0.06,0.699 -0.189,0.596 -0.294,0.481 -0.371,0.426 -0.439,0.352 -0.475,0.312 -0.475,0.312 c 0,0 0.044,-0.038 0.121,-0.096 C -0.267,0.17 -0.146,0.075 0,0" />
      </g>
    </g>
  </g>
</svg>
