<?xml version="1.0" encoding="UTF-8" standalone="no"?>
<!-- Created with Inkscape (http://www.inkscape.org/) -->

<svg
   xmlns:dc="http://purl.org/dc/elements/1.1/"
   xmlns:cc="http://creativecommons.org/ns#"
   xmlns:rdf="http://www.w3.org/1999/02/22-rdf-syntax-ns#"
   xmlns:svg="http://www.w3.org/2000/svg"
   xmlns="http://www.w3.org/2000/svg"
   xmlns:sodipodi="http://sodipodi.sourceforge.net/DTD/sodipodi-0.dtd"
   xmlns:inkscape="http://www.inkscape.org/namespaces/inkscape"
   width="35"
   height="35.012119"
   viewBox="0 0 9.2604165 9.2636235"
   version="1.1"
   id="svg20092"
   inkscape:version="0.92.2 (5c3e80d, 2017-08-06)"
   sodipodi:docname="gas.svg">
  <defs
     id="defs20086" />
  <sodipodi:namedview
     id="base"
     pagecolor="#ffffff"
     bordercolor="#666666"
     borderopacity="1.0"
     inkscape:pageopacity="0.0"
     inkscape:pageshadow="2"
     inkscape:zoom="7.9195959"
     inkscape:cx="39.807231"
     inkscape:cy="11.163717"
     inkscape:document-units="px"
     inkscape:current-layer="layer1"
     showgrid="false"
     units="px"
     fit-margin-top="0"
     fit-margin-left="0"
     fit-margin-right="0"
     fit-margin-bottom="0" />
  <metadata
     id="metadata20089">
    <rdf:RDF>
      <cc:Work
         rdf:about="">
        <dc:format>image/svg+xml</dc:format>
        <dc:type
           rdf:resource="http://purl.org/dc/dcmitype/StillImage" />
        <dc:title></dc:title>
      </cc:Work>
    </rdf:RDF>
  </metadata>
  <g
     inkscape:label="Layer 1"
     inkscape:groupmode="layer"
     id="layer1"
     transform="translate(196.85172,-153.48681)">
    <g
       id="g38538"
       transform="matrix(0.09645286,0,0,-0.09645286,-187.68776,158.11806)"
       style="fill:#010101;fill-opacity:1">
      <path
         style="color:#000000;font-style:normal;font-variant:normal;font-weight:normal;font-stretch:normal;font-size:medium;line-height:normal;font-family:sans-serif;font-variant-ligatures:normal;font-variant-position:normal;font-variant-caps:normal;font-variant-numeric:normal;font-variant-alternates:normal;font-feature-settings:normal;text-indent:0;text-align:start;text-decoration:none;text-decoration-line:none;text-decoration-style:solid;text-decoration-color:#000000;letter-spacing:normal;word-spacing:normal;text-transform:none;writing-mode:lr-tb;direction:ltr;text-orientation:mixed;dominant-baseline:auto;baseline-shift:baseline;text-anchor:start;white-space:normal;shape-padding:0;clip-rule:nonzero;display:inline;overflow:visible;visibility:visible;opacity:1;isolation:auto;mix-blend-mode:normal;color-interpolation:sRGB;color-interpolation-filters:linearRGB;solid-color:#000000;solid-opacity:1;vector-effect:none;fill:#010101;fill-opacity:1;fill-rule:nonzero;stroke:none;stroke-width:2;stroke-linecap:butt;stroke-linejoin:miter;stroke-miterlimit:10;stroke-dasharray:none;stroke-dashoffset:0;stroke-opacity:1;color-rendering:auto;image-rendering:auto;shape-rendering:auto;text-rendering:auto;enable-background:accumulate"
         d="m -95.009766,-48.027344 1.033204,1.554688 c 9.369319,14.095213 4.125186,30.081655 0.933593,41.3867185 -1.862785,6.6191169 -1.717863,13.6613831 0.44336,20.1914065 v 0.002 c 6.332833,19.115963 24.350077,32.908203 45.576171,32.908203 C -20.511112,48.015625 1,26.505522 1,0 1,-26.514335 -20.511035,-48.027344 -47.023438,-48.027344 Z m 3.529297,2 h 44.457031 C -21.59184,-46.027344 -1,-25.433665 -1,0 c 0,25.424478 -20.591763,46.015625 -46.023438,46.015625 -20.359267,0 -37.610056,-13.223966 -43.677734,-31.537109 v -0.002 C -92.735177,8.3297008 -92.873635,1.692765 -91.119141,-4.5429688 v -0.00195 c 3.060255,-10.8395712 8.238866,-26.9169832 -0.361328,-41.4824222 z"
         id="path38540"
         inkscape:connector-curvature="0" />
    </g>
    <g
       id="g38542"
       transform="matrix(0.09645286,0,0,-0.09645286,-192.4342,159.77052)"
       style="fill:#010101;fill-opacity:1">
      <path
         d="M 0,0 H 2.432 L 1.208,2.749 Z"
         style="fill:#010101;fill-opacity:1;fill-rule:nonzero;stroke:none"
         id="path38544"
         inkscape:connector-curvature="0" />
    </g>
    <g
       id="g38546"
       transform="matrix(0.09645286,0,0,-0.09645286,-191.71308,158.13315)"
       style="fill:#010101;fill-opacity:1">
      <path
         d="m 0,0 c 0.142,-0.941 0.082,-1.912 -0.189,-2.849 -0.825,-2.822 -3.45,-4.794 -6.388,-4.794 -0.629,0 -1.257,0.091 -1.864,0.268 -3.231,0.942 -5.205,4.134 -4.717,7.375 h -15.684 c 0,12.534 10.197,22.731 22.732,22.731 C 6.424,22.731 16.621,12.534 16.621,0 Z m 3.787,-20.523 c -1.246,0 -2.574,0.478 -3.553,1.279 -0.349,0.284 -0.451,0.77 -0.252,1.172 l 0.077,0.151 c 0.127,0.256 0.364,0.442 0.644,0.505 0.277,0.064 0.572,0 0.799,-0.174 0.686,-0.528 1.523,-0.83 2.297,-0.83 0.265,0 1.593,0.041 1.593,0.864 0.003,0.599 -0.487,0.85 -1.867,1.261 -1.437,0.427 -3.226,0.959 -3.226,3.107 0,1.723 1.473,2.88 3.669,2.88 0.948,0 1.966,-0.256 2.788,-0.7 0.443,-0.241 0.626,-0.783 0.418,-1.242 l -0.09,-0.193 C 6.976,-12.685 6.773,-12.869 6.523,-12.954 6.274,-13.041 6,-13.021 5.768,-12.898 c -0.579,0.301 -1.259,0.473 -1.866,0.473 -0.327,0 -1.397,-0.048 -1.397,-0.671 0,-0.569 0.481,-0.818 1.844,-1.232 1.376,-0.419 3.256,-0.992 3.249,-3.178 0,-1.804 -1.532,-3.017 -3.811,-3.017 m -4.434,0.477 c -0.177,-0.274 -0.481,-0.438 -0.806,-0.438 h -0.193 c -0.378,0 -0.723,0.224 -0.875,0.572 l -0.762,1.722 h -4.252 l -0.758,-1.722 c -0.154,-0.348 -0.498,-0.572 -0.879,-0.572 h -0.164 c -0.326,0 -0.629,0.165 -0.806,0.438 -0.176,0.273 -0.203,0.617 -0.07,0.914 l 3.687,8.218 c 0.153,0.345 0.497,0.566 0.875,0.566 h 0.522 c 0.38,0 0.723,-0.221 0.877,-0.567 l 3.674,-8.218 c 0.134,-0.297 0.106,-0.64 -0.07,-0.913 m -10.006,4.042 v -2.595 c 0,-0.307 -0.148,-0.595 -0.396,-0.776 -1.012,-0.738 -2.29,-1.161 -3.507,-1.161 -2.951,0 -5.262,2.249 -5.262,5.121 0,2.856 2.334,5.093 5.314,5.093 1.188,0 2.365,-0.38 3.316,-1.073 0.208,-0.151 0.348,-0.381 0.385,-0.638 0.037,-0.256 -0.032,-0.516 -0.188,-0.721 l -0.077,-0.1 c -0.317,-0.412 -0.903,-0.498 -1.325,-0.194 -0.613,0.444 -1.364,0.689 -2.111,0.689 -1.763,0 -3.198,-1.371 -3.198,-3.056 0,-1.692 1.44,-3.069 3.21,-3.069 0.617,0 1.278,0.188 1.851,0.524 v 0.996 h -1.742 c -0.53,0 -0.96,0.429 -0.96,0.96 v 0.058 c 0,0.531 0.43,0.96 0.96,0.96 h 2.77 c 0.529,0 0.96,-0.429 0.96,-0.96 z m 4.543,45.485 c -16.257,0 -29.482,-13.225 -29.482,-29.481 0,-16.257 13.225,-29.481 29.482,-29.481 16.256,0 29.481,13.224 29.481,29.481 0,16.256 -13.225,29.481 -29.481,29.481"
         style="fill:#010101;fill-opacity:1;fill-rule:nonzero;stroke:none"
         id="path38548"
         inkscape:connector-curvature="0" />
    </g>
    <g
       id="g38550"
       transform="matrix(0.09645286,0,0,-0.09645286,-192.81097,158.17317)"
       style="fill:#010101;fill-opacity:1">
      <path
         d="m 0,0 c -0.64,-2.194 0.621,-4.49 2.813,-5.13 2.194,-0.639 4.489,0.62 5.131,2.814 0.353,1.213 0.125,2.458 -0.52,3.437 L 9.01,16.123 2.284,2.619 C 1.214,2.14 0.354,1.213 0,0"
         style="fill:#010101;fill-opacity:1;fill-rule:nonzero;stroke:none"
         id="path38552"
         inkscape:connector-curvature="0" />
    </g>
  </g>
</svg>
