<?xml version="1.0" encoding="UTF-8" standalone="no"?>
<!-- Created with Inkscape (http://www.inkscape.org/) -->

<svg
   xmlns:dc="http://purl.org/dc/elements/1.1/"
   xmlns:cc="http://creativecommons.org/ns#"
   xmlns:rdf="http://www.w3.org/1999/02/22-rdf-syntax-ns#"
   xmlns:svg="http://www.w3.org/2000/svg"
   xmlns="http://www.w3.org/2000/svg"
   xmlns:sodipodi="http://sodipodi.sourceforge.net/DTD/sodipodi-0.dtd"
   xmlns:inkscape="http://www.inkscape.org/namespaces/inkscape"
   width="35"
   height="35.012104"
   viewBox="0 0 9.2604165 9.2636195"
   version="1.1"
   id="svg31870"
   inkscape:version="0.92.2 (5c3e80d, 2017-08-06)"
   sodipodi:docname="general-merchants.svg">
  <defs
     id="defs31864" />
  <sodipodi:namedview
     id="base"
     pagecolor="#ffffff"
     bordercolor="#666666"
     borderopacity="1.0"
     inkscape:pageopacity="0.0"
     inkscape:pageshadow="2"
     inkscape:zoom="5.6"
     inkscape:cx="20.538311"
     inkscape:cy="25.0761"
     inkscape:document-units="px"
     inkscape:current-layer="layer1"
     showgrid="false"
     units="px"
     fit-margin-top="0"
     fit-margin-left="0"
     fit-margin-right="0"
     fit-margin-bottom="0" />
  <metadata
     id="metadata31867">
    <rdf:RDF>
      <cc:Work
         rdf:about="">
        <dc:format>image/svg+xml</dc:format>
        <dc:type
           rdf:resource="http://purl.org/dc/dcmitype/StillImage" />
        <dc:title></dc:title>
      </cc:Work>
    </rdf:RDF>
  </metadata>
  <g
     inkscape:label="Layer 1"
     inkscape:groupmode="layer"
     id="layer1"
     transform="translate(84.214818,-147.4392)">
    <g
       transform="matrix(0.27340969,0,0,0.27340969,-75.227874,64.611395)"
       id="g31849">
      <g
         style="fill:#010101;fill-opacity:1"
         transform="matrix(0.35277777,0,0,-0.35277777,0.64745384,319.88277)"
         id="g38328">
        <path
           inkscape:connector-curvature="0"
           id="path38330"
           d="m -95.009766,-48.027344 1.033204,1.554688 c 9.369354,14.096235 4.125186,30.081655 0.933593,41.3867185 v 0.00195 c -1.862808,6.6181678 -1.717835,13.6604364 0.44336,20.1914065 6.33384,19.114899 24.350077,32.908203 45.576171,32.908203 C -20.511112,48.015625 1,26.505522 1,0 1,-26.515314 -20.511061,-48.027344 -47.023438,-48.027344 Z m 3.529297,2 h 44.457031 C -21.591814,-46.027344 -1,-25.434686 -1,0 c 0,25.424478 -20.591763,46.015625 -46.023438,46.015625 -20.359905,0 -37.609574,-13.224008 -43.677734,-31.537109 -2.034805,-6.1490305 -2.173161,-12.7856526 -0.417969,-19.0214848 3.060182,-10.8395882 8.239269,-26.9173222 -0.361328,-41.4843752 z"
           style="color:#000000;font-style:normal;font-variant:normal;font-weight:normal;font-stretch:normal;font-size:medium;line-height:normal;font-family:sans-serif;font-variant-ligatures:normal;font-variant-position:normal;font-variant-caps:normal;font-variant-numeric:normal;font-variant-alternates:normal;font-feature-settings:normal;text-indent:0;text-align:start;text-decoration:none;text-decoration-line:none;text-decoration-style:solid;text-decoration-color:#000000;letter-spacing:normal;word-spacing:normal;text-transform:none;writing-mode:lr-tb;direction:ltr;text-orientation:mixed;dominant-baseline:auto;baseline-shift:baseline;text-anchor:start;white-space:normal;shape-padding:0;clip-rule:nonzero;display:inline;overflow:visible;visibility:visible;opacity:1;isolation:auto;mix-blend-mode:normal;color-interpolation:sRGB;color-interpolation-filters:linearRGB;solid-color:#000000;solid-opacity:1;vector-effect:none;fill:#010101;fill-opacity:1;fill-rule:nonzero;stroke:none;stroke-width:2;stroke-linecap:butt;stroke-linejoin:miter;stroke-miterlimit:10;stroke-dasharray:none;stroke-dashoffset:0;stroke-opacity:1;color-rendering:auto;image-rendering:auto;shape-rendering:auto;text-rendering:auto;enable-background:accumulate" />
      </g>
      <g
         style="fill:#010101;fill-opacity:1"
         transform="matrix(0.35277777,0,0,-0.35277777,-9.0725616,316.23614)"
         id="g39632">
        <path
           inkscape:connector-curvature="0"
           id="path39634"
           style="fill:#010101;fill-opacity:1;fill-rule:nonzero;stroke:none"
           d="m 0,0 -0.717,-2.889 h -4.156 l 0.882,4.199 h 2.973 c 0.447,0 0.706,-0.249 0.821,-0.406 C -0.072,0.748 0.115,0.426 0,0 m -2.576,-10.402 h -3.877 l 0.822,3.886 h 4.022 z m -1.612,-6.504 c -0.113,-0.469 -0.529,-0.801 -1.017,-0.801 h -2.786 l 0.78,3.668 h 3.739 z m -10.36,14.007 v 4.198 h 6.858 l -0.882,-4.198 z m 4.396,-7.503 h -4.396 v 3.886 h 5.218 z m -1.538,-7.295 h -2.858 v 3.669 h 3.626 z m -6.484,14.798 h -5.8 l -0.923,4.198 h 6.723 z m 0,-7.503 h -4.157 l -0.853,3.886 h 5.01 z m 0,-7.295 h -2.556 l -0.811,3.669 h 3.355 v -3.669 z m -9.053,0 c -0.466,0 -0.882,0.312 -1.006,0.769 l -0.821,2.91 h 3.814 l 0.81,-3.669 h -2.797 z m -3.937,11.181 h 4.281 l 0.852,-3.886 h -4.041 z m -1.019,3.617 -0.809,2.858 c -0.125,0.436 0.05,0.758 0.176,0.914 0.114,0.155 0.384,0.415 0.831,0.415 h 3.387 l 0.925,-4.198 h -4.51 z m 6.527,-25.833 c 0.976,0 1.777,-0.801 1.777,-1.778 0,-0.977 -0.801,-1.777 -1.777,-1.777 -0.977,0 -1.778,0.8 -1.778,1.777 0,0.977 0.79,1.778 1.778,1.778 m 16.511,0 c 0.978,0 1.778,-0.801 1.778,-1.778 0,-0.977 -0.8,-1.777 -1.778,-1.777 -0.976,0 -1.777,0.8 -1.777,1.777 0,0.977 0.791,1.778 1.777,1.778 M 2.609,3.201 c -0.904,1.101 -2.275,1.715 -3.7,1.715 h -30.894 c -0.882,0 -1.724,-0.25 -2.453,-0.697 l -1.58,5.517 c -0.259,0.905 -1.08,1.528 -2.015,1.528 h -6.984 c -0.871,0 -1.589,-0.706 -1.589,-1.589 V 9.508 c 0,-0.873 0.707,-1.59 1.589,-1.59 h 6.007 l 3.065,-10.838 4.22,-14.953 c -2.401,-0.604 -4.177,-2.775 -4.177,-5.352 0,-2.921 2.275,-5.321 5.153,-5.507 -0.239,-0.686 -0.353,-1.446 -0.291,-2.225 0.208,-2.639 2.36,-4.77 4.999,-4.945 3.148,-0.221 5.778,2.286 5.778,5.382 0,0.624 -0.104,1.215 -0.301,1.776 h 6.318 c -0.26,-0.737 -0.363,-1.559 -0.272,-2.399 0.292,-2.558 2.403,-4.574 4.978,-4.759 3.149,-0.221 5.79,2.275 5.79,5.382 0,3.002 -2.494,5.403 -5.489,5.403 h -21.105 c -1.028,0 -1.9,0.801 -1.944,1.819 -0.04,1.08 0.823,1.964 1.893,1.964 h 25.178 c 2.141,0 4.012,1.465 4.531,3.543 l 4.2,16.896 c 0.362,1.457 0.03,2.942 -0.905,4.096" />
      </g>
    </g>
  </g>
</svg>
