<?xml version="1.0" encoding="UTF-8" standalone="no"?>
<!-- Created with Inkscape (http://www.inkscape.org/) -->

<svg
   xmlns:dc="http://purl.org/dc/elements/1.1/"
   xmlns:cc="http://creativecommons.org/ns#"
   xmlns:rdf="http://www.w3.org/1999/02/22-rdf-syntax-ns#"
   xmlns:svg="http://www.w3.org/2000/svg"
   xmlns="http://www.w3.org/2000/svg"
   xmlns:sodipodi="http://sodipodi.sourceforge.net/DTD/sodipodi-0.dtd"
   xmlns:inkscape="http://www.inkscape.org/namespaces/inkscape"
   width="35"
   height="35.012119"
   viewBox="0 0 9.2604165 9.2636235"
   version="1.1"
   id="svg25479"
   inkscape:version="0.92.2 (5c3e80d, 2017-08-06)"
   sodipodi:docname="glassmaker.svg">
  <defs
     id="defs25473" />
  <sodipodi:namedview
     id="base"
     pagecolor="#ffffff"
     bordercolor="#666666"
     borderopacity="1.0"
     inkscape:pageopacity="0.0"
     inkscape:pageshadow="2"
     inkscape:zoom="3.959798"
     inkscape:cx="-31.271441"
     inkscape:cy="6.8287077"
     inkscape:document-units="px"
     inkscape:current-layer="layer1"
     showgrid="false"
     units="px"
     fit-margin-top="0"
     fit-margin-left="0"
     fit-margin-right="0"
     fit-margin-bottom="0" />
  <metadata
     id="metadata25476">
    <rdf:RDF>
      <cc:Work
         rdf:about="">
        <dc:format>image/svg+xml</dc:format>
        <dc:type
           rdf:resource="http://purl.org/dc/dcmitype/StillImage" />
        <dc:title></dc:title>
      </cc:Work>
    </rdf:RDF>
  </metadata>
  <g
     inkscape:label="Layer 1"
     inkscape:groupmode="layer"
     id="layer1"
     transform="translate(-82.850665,-88.474915)">
    <g
       transform="matrix(0.27340969,0,0,0.27340969,105.41985,-27.889381)"
       id="g24881">
      <g
         style="fill:#010101;fill-opacity:1"
         transform="matrix(0.35277777,0,0,-0.35277777,-49.029795,442.543)"
         id="g38348">
        <path
           inkscape:connector-curvature="0"
           id="path38350"
           d="m -95.009766,-48.027344 1.033204,1.554688 c 9.369319,14.095213 4.12519,30.080636 0.933593,41.3867185 -1.863884,6.6183355 -1.717833,13.6614731 0.44336,20.1914065 v 0.002 c 6.33383,19.115891 24.350077,32.908203 45.576171,32.908203 C -20.511112,48.015625 1,26.505522 1,0 1,-26.515314 -20.511061,-48.027344 -47.023438,-48.027344 Z m 3.529297,2 h 44.457031 C -21.591814,-46.027344 -1,-25.434686 -1,0 c 0,25.424478 -20.591763,46.015625 -46.023438,46.015625 -20.359267,0 -37.609054,-13.223894 -43.677734,-31.537109 v -0.002 c -2.034236,-6.1475596 -2.173912,-12.7844774 -0.417969,-19.0195308 3.060178,-10.8405362 8.239299,-26.9182022 -0.361328,-41.4843752 z"
           style="color:#000000;font-style:normal;font-variant:normal;font-weight:normal;font-stretch:normal;font-size:medium;line-height:normal;font-family:sans-serif;font-variant-ligatures:normal;font-variant-position:normal;font-variant-caps:normal;font-variant-numeric:normal;font-variant-alternates:normal;font-feature-settings:normal;text-indent:0;text-align:start;text-decoration:none;text-decoration-line:none;text-decoration-style:solid;text-decoration-color:#000000;letter-spacing:normal;word-spacing:normal;text-transform:none;writing-mode:lr-tb;direction:ltr;text-orientation:mixed;dominant-baseline:auto;baseline-shift:baseline;text-anchor:start;white-space:normal;shape-padding:0;clip-rule:nonzero;display:inline;overflow:visible;visibility:visible;opacity:1;isolation:auto;mix-blend-mode:normal;color-interpolation:sRGB;color-interpolation-filters:linearRGB;solid-color:#000000;solid-opacity:1;vector-effect:none;fill:#010101;fill-opacity:1;fill-rule:nonzero;stroke:none;stroke-width:2;stroke-linecap:butt;stroke-linejoin:miter;stroke-miterlimit:10;stroke-dasharray:none;stroke-dashoffset:0;stroke-opacity:1;color-rendering:auto;image-rendering:auto;shape-rendering:auto;text-rendering:auto;enable-background:accumulate" />
      </g>
      <g
         transform="translate(1.0583333)"
         id="g24871">
        <path
           d="m -69.9347,436.93408 h 6.858 v 11.22257 h -6.858 z"
           style="fill:#010101;fill-opacity:1;fill-rule:nonzero;stroke:none;stroke-width:0.35277778"
           id="path39000"
           inkscape:connector-curvature="0" />
        <g
           id="g39002"
           transform="matrix(0.35277777,0,0,-0.35277777,-62.140463,444.6917)"
           style="fill:#010101;fill-opacity:1">
          <path
             d="M 0,0 3.533,-0.357 V -10.555 L 0,-9.234 Z m 0,10.162 3.533,0.695 V 0.66 L 0,0.928 Z M 0,20.32 3.533,22.072 V 11.875 L 0,11.086 Z M 4.418,-0.514 9.717,-1.027 v -11.801 l -5.299,1.795 z m 0,11.574 5.299,0.893 V 0.151 L 4.418,0.539 Z m 0,11.573 5.299,2.3 V 13.136 L 4.418,12.113 Z M -1.77,-10.706 v -0.513 l 14.141,-6.447 V 29.835 L -1.77,22.365 Z"
             style="fill:#010101;fill-opacity:1;fill-rule:nonzero;stroke:none"
             id="path39004"
             inkscape:connector-curvature="0" />
        </g>
        <g
           id="g39006"
           transform="matrix(0.35277777,0,0,-0.35277777,-74.300607,445.05414)"
           style="fill:#010101;fill-opacity:1">
          <path
             d="m 0,0 5.304,0.514 v -10.52 L 0,-11.801 Z M 0,12.98 5.304,12.087 V 1.566 L 0,1.183 Z m 0,12.98 5.304,-2.3 V 13.141 L 0,14.163 Z M 6.188,0.67 9.722,1.031 v -9.238 l -3.534,-1.32 z m 0,11.215 3.534,-0.696 V 1.955 L 6.188,1.687 Z m 0,11.215 3.534,-1.752 v -9.235 l -3.534,0.789 z m -8.837,-39.739 14.14,6.448 v 33.584 l -14.14,7.469 z"
             style="fill:#010101;fill-opacity:1;fill-rule:nonzero;stroke:none"
             id="path39008"
             inkscape:connector-curvature="0" />
        </g>
      </g>
    </g>
  </g>
</svg>
