<?xml version="1.0" encoding="UTF-8" standalone="no"?>
<!-- Created with Inkscape (http://www.inkscape.org/) -->

<svg
   xmlns:dc="http://purl.org/dc/elements/1.1/"
   xmlns:cc="http://creativecommons.org/ns#"
   xmlns:rdf="http://www.w3.org/1999/02/22-rdf-syntax-ns#"
   xmlns:svg="http://www.w3.org/2000/svg"
   xmlns="http://www.w3.org/2000/svg"
   xmlns:sodipodi="http://sodipodi.sourceforge.net/DTD/sodipodi-0.dtd"
   xmlns:inkscape="http://www.inkscape.org/namespaces/inkscape"
   width="35"
   height="35.012119"
   viewBox="0 0 9.2604165 9.2636235"
   version="1.1"
   id="svg30007"
   inkscape:version="0.92.2 (5c3e80d, 2017-08-06)"
   sodipodi:docname="high-technology.svg">
  <defs
     id="defs30001" />
  <sodipodi:namedview
     id="base"
     pagecolor="#ffffff"
     bordercolor="#666666"
     borderopacity="1.0"
     inkscape:pageopacity="0.0"
     inkscape:pageshadow="2"
     inkscape:zoom="3.959798"
     inkscape:cx="-4.1692558"
     inkscape:cy="19.135451"
     inkscape:document-units="px"
     inkscape:current-layer="layer1"
     showgrid="false"
     units="px"
     fit-margin-top="0"
     fit-margin-left="0"
     fit-margin-right="0"
     fit-margin-bottom="0" />
  <metadata
     id="metadata30004">
    <rdf:RDF>
      <cc:Work
         rdf:about="">
        <dc:format>image/svg+xml</dc:format>
        <dc:type
           rdf:resource="http://purl.org/dc/dcmitype/StillImage" />
        <dc:title></dc:title>
      </cc:Work>
    </rdf:RDF>
  </metadata>
  <g
     inkscape:label="Layer 1"
     inkscape:groupmode="layer"
     id="layer1"
     transform="translate(29.030293,-73.355865)">
    <g
       transform="matrix(0.27340969,0,0,0.27340969,-20.683951,-43.104884)"
       id="g29980">
      <g
         style="fill:#010101;fill-opacity:1"
         transform="matrix(0.35277777,0,0,-0.35277777,2.9904627,442.89578)"
         id="g38352">
        <path
           inkscape:connector-curvature="0"
           id="path38354"
           d="m -95.009766,-48.027344 1.033204,1.554688 c 9.369302,14.095187 4.123252,30.080584 0.93164,41.3867185 v 0.00195 c -1.861783,6.6181852 -1.714827,13.6595901 0.445313,20.1894535 v 0.002 c 6.332823,19.115932 24.349098,32.908203 45.576171,32.908203 C -20.512091,48.015625 1,26.505548 1,0 1,-26.51534 -20.51204,-48.027344 -47.023438,-48.027344 Z m 3.529297,2 h 44.457031 C -21.592835,-46.027344 -1,-25.43466 -1,0 c 0,25.424452 -20.592784,46.015625 -46.023438,46.015625 -20.360287,0 -37.610046,-13.223936 -43.677734,-31.537109 v -0.002 C -92.734462,8.3288863 -92.873186,1.6921889 -91.119141,-4.5430148 -88.058977,-15.3835 -82.879892,-31.461191 -91.480469,-46.02739 Z"
           style="color:#000000;font-style:normal;font-variant:normal;font-weight:normal;font-stretch:normal;font-size:medium;line-height:normal;font-family:sans-serif;font-variant-ligatures:normal;font-variant-position:normal;font-variant-caps:normal;font-variant-numeric:normal;font-variant-alternates:normal;font-feature-settings:normal;text-indent:0;text-align:start;text-decoration:none;text-decoration-line:none;text-decoration-style:solid;text-decoration-color:#000000;letter-spacing:normal;word-spacing:normal;text-transform:none;writing-mode:lr-tb;direction:ltr;text-orientation:mixed;dominant-baseline:auto;baseline-shift:baseline;text-anchor:start;white-space:normal;shape-padding:0;clip-rule:nonzero;display:inline;overflow:visible;visibility:visible;opacity:1;isolation:auto;mix-blend-mode:normal;color-interpolation:sRGB;color-interpolation-filters:linearRGB;solid-color:#000000;solid-opacity:1;vector-effect:none;fill:#010101;fill-opacity:1;fill-rule:nonzero;stroke:none;stroke-width:2;stroke-linecap:butt;stroke-linejoin:miter;stroke-miterlimit:10;stroke-dasharray:none;stroke-dashoffset:0;stroke-opacity:1;color-rendering:auto;image-rendering:auto;shape-rendering:auto;text-rendering:auto;enable-background:accumulate" />
      </g>
      <g
         transform="translate(0.50014823,-1.69955)"
         id="g29968">
        <g
           id="g39476"
           transform="matrix(0.35277777,0,0,-0.35277777,-19.152199,444.97487)"
           style="fill:#010101;fill-opacity:1">
          <path
             d="m 0,0 c -7.419,7.42 -7.419,19.49 0,26.91 l -2.522,2.522 c -8.811,-8.811 -8.811,-23.145 0,-31.955 z"
             style="fill:#010101;fill-opacity:1;fill-rule:nonzero;stroke:none"
             id="path39478"
             inkscape:connector-curvature="0" />
        </g>
        <path
           inkscape:connector-curvature="0"
           id="path39482"
           style="fill:#010101;fill-opacity:1;fill-rule:nonzero;stroke:none;stroke-width:0.35277778"
           d="m -9.6592309,444.97487 0.8900583,0.89006 c 3.1083249,-3.10797 3.1083249,-8.16469 0,-11.27302 l -0.8900583,0.88971 c 2.6176111,2.61761 2.6176111,6.87564 0,9.49325" />
        <path
           inkscape:connector-curvature="0"
           id="path39494"
           style="fill:#010101;fill-opacity:1;fill-rule:nonzero;stroke:none;stroke-width:0.35277778"
           d="m -17.965384,443.78841 0.889706,-0.89006 c -0.711906,-0.7119 -1.103842,-1.66017 -1.103842,-2.67017 0,-1.01001 0.391936,-1.95827 1.103842,-2.66983 l -0.889706,-0.8897 c -0.949678,0.94897 -1.472494,2.21333 -1.472494,3.55953 0,1.34655 0.522816,2.61091 1.472494,3.56023" />
        <g
           id="g39496"
           transform="matrix(0.35277777,0,0,-0.35277777,-10.845728,443.78841)"
           style="fill:#010101;fill-opacity:1">
          <path
             d="m 0,0 c 2.691,2.691 4.175,6.275 4.175,10.092 0,3.816 -1.484,7.4 -4.175,10.09 L -2.523,17.66 c 2.018,-2.017 3.13,-4.705 3.13,-7.568 0,-2.863 -1.112,-5.551 -3.13,-7.569 z"
             style="fill:#010101;fill-opacity:1;fill-rule:nonzero;stroke:none"
             id="path39498"
             inkscape:connector-curvature="0" />
        </g>
        <path
           inkscape:connector-curvature="0"
           id="path39502"
           style="fill:#010101;fill-opacity:1;fill-rule:nonzero;stroke:none;stroke-width:0.35277778"
           d="m -16.390972,450.77645 h 3.970161 l 0.863953,2.97109 h -5.698067 z m 1.985786,-6.82625 1.618544,5.56754 h -3.238499 z m 0.615244,-2.38866 c 0.503767,-0.23283 0.852312,-0.74224 0.852312,-1.33315 0,-0.81103 -0.65652,-1.46861 -1.467556,-1.46861 -0.811389,0 -1.468967,0.65758 -1.468967,1.46861 0,0.59091 0.34925,1.10032 0.852312,1.33315 l -3.543653,12.186 H -21.03 v 1.25801 h 13.2482167 v -1.25801 h -2.4637997 z" />
      </g>
    </g>
  </g>
</svg>
