<?xml version="1.0" encoding="UTF-8" standalone="no"?>
<!-- Created with Inkscape (http://www.inkscape.org/) -->

<svg
   xmlns:dc="http://purl.org/dc/elements/1.1/"
   xmlns:cc="http://creativecommons.org/ns#"
   xmlns:rdf="http://www.w3.org/1999/02/22-rdf-syntax-ns#"
   xmlns:svg="http://www.w3.org/2000/svg"
   xmlns="http://www.w3.org/2000/svg"
   xmlns:sodipodi="http://sodipodi.sourceforge.net/DTD/sodipodi-0.dtd"
   xmlns:inkscape="http://www.inkscape.org/namespaces/inkscape"
   width="35"
   height="35.011391"
   viewBox="0 0 9.2604165 9.2634307"
   version="1.1"
   id="svg30620"
   inkscape:version="0.92.2 (5c3e80d, 2017-08-06)"
   sodipodi:docname="industry.svg">
  <defs
     id="defs30614" />
  <sodipodi:namedview
     id="base"
     pagecolor="#ffffff"
     bordercolor="#666666"
     borderopacity="1.0"
     inkscape:pageopacity="0.0"
     inkscape:pageshadow="2"
     inkscape:zoom="1.4"
     inkscape:cx="94.011061"
     inkscape:cy="-79.620076"
     inkscape:document-units="px"
     inkscape:current-layer="layer1"
     showgrid="false"
     units="px"
     fit-margin-top="0"
     fit-margin-left="0"
     fit-margin-right="0"
     fit-margin-bottom="0" />
  <metadata
     id="metadata30617">
    <rdf:RDF>
      <cc:Work
         rdf:about="">
        <dc:format>image/svg+xml</dc:format>
        <dc:type
           rdf:resource="http://purl.org/dc/dcmitype/StillImage" />
        <dc:title></dc:title>
      </cc:Work>
    </rdf:RDF>
  </metadata>
  <g
     inkscape:label="Layer 1"
     inkscape:groupmode="layer"
     id="layer1"
     transform="translate(125.03625,-39.337848)">
    <g
       transform="matrix(0.27340969,0,0,0.27340969,-116.43502,-65.711988)"
       id="g30600">
      <g
         style="fill:#010101;fill-opacity:1"
         transform="matrix(0.35277777,0,0,-0.35277777,2.0582121,401.15949)"
         id="g38344">
        <path
           inkscape:connector-curvature="0"
           id="path38346"
           d="m -95.009766,-48.027344 1.033204,1.554688 c 9.369284,14.094191 4.12519,30.080636 0.933593,41.3867185 -1.862778,6.6190909 -1.717853,13.6614129 0.44336,20.1914065 6.33383,19.115891 24.350077,32.908203 45.576171,32.908203 C -20.511138,48.013672 1,26.505522 1,0 1,-26.515314 -20.511061,-48.027344 -47.023438,-48.027344 Z m 3.529297,2 h 44.457031 C -21.591814,-46.027344 -1,-25.434686 -1,0 c 0,25.424478 -20.591737,46.013672 -46.023438,46.013672 -20.359905,0 -37.609565,-13.223001 -43.677734,-31.53711 -2.034586,-6.1473978 -2.172643,-12.7831598 -0.417969,-19.0195308 v -0.00195 c 3.060251,-10.8405192 8.238897,-26.9178622 -0.361328,-41.4824222 z"
           style="color:#000000;font-style:normal;font-variant:normal;font-weight:normal;font-stretch:normal;font-size:medium;line-height:normal;font-family:sans-serif;font-variant-ligatures:normal;font-variant-position:normal;font-variant-caps:normal;font-variant-numeric:normal;font-variant-alternates:normal;font-feature-settings:normal;text-indent:0;text-align:start;text-decoration:none;text-decoration-line:none;text-decoration-style:solid;text-decoration-color:#000000;letter-spacing:normal;word-spacing:normal;text-transform:none;writing-mode:lr-tb;direction:ltr;text-orientation:mixed;dominant-baseline:auto;baseline-shift:baseline;text-anchor:start;white-space:normal;shape-padding:0;clip-rule:nonzero;display:inline;overflow:visible;visibility:visible;opacity:1;isolation:auto;mix-blend-mode:normal;color-interpolation:sRGB;color-interpolation-filters:linearRGB;solid-color:#000000;solid-opacity:1;vector-effect:none;fill:#010101;fill-opacity:1;fill-rule:nonzero;stroke:none;stroke-width:2;stroke-linecap:butt;stroke-linejoin:miter;stroke-miterlimit:10;stroke-dasharray:none;stroke-dashoffset:0;stroke-opacity:1;color-rendering:auto;image-rendering:auto;shape-rendering:auto;text-rendering:auto;enable-background:accumulate" />
      </g>
      <path
         inkscape:connector-curvature="0"
         id="path39466"
         style="fill:#010101;fill-opacity:1;fill-rule:nonzero;stroke:none;stroke-width:0.35277778"
         d="m -10.05032,406.0698 h -1.880306 v -1.88031 h 1.880306 z m -3.290711,0 h -1.880306 v -1.88031 h 1.880306 z m -3.290711,0 h -1.880306 v -1.88031 h 1.880306 z m 6.581422,-4.43265 v -4.02943 l -5.640917,4.02943 v -4.02943 h -1.410405 v -3.29071 h -1.410406 v 3.29071 h -1.410053 v -5.64092 h -2.820458 v 5.64092 h -1.410406 V 408.42 h 19.7435612 v -10.81228 z" />
    </g>
  </g>
</svg>
