<?xml version="1.0" encoding="UTF-8" standalone="no"?>
<!-- Created with Inkscape (http://www.inkscape.org/) -->

<svg
   xmlns:dc="http://purl.org/dc/elements/1.1/"
   xmlns:cc="http://creativecommons.org/ns#"
   xmlns:rdf="http://www.w3.org/1999/02/22-rdf-syntax-ns#"
   xmlns:svg="http://www.w3.org/2000/svg"
   xmlns="http://www.w3.org/2000/svg"
   xmlns:sodipodi="http://sodipodi.sourceforge.net/DTD/sodipodi-0.dtd"
   xmlns:inkscape="http://www.inkscape.org/namespaces/inkscape"
   width="35"
   height="35.012123"
   viewBox="0 0 9.2604166 9.2636246"
   version="1.1"
   id="svg6736"
   inkscape:version="0.92.2 (5c3e80d, 2017-08-06)"
   sodipodi:docname="instagram.svg">
  <defs
     id="defs6730" />
  <sodipodi:namedview
     id="base"
     pagecolor="#ffffff"
     bordercolor="#666666"
     borderopacity="1.0"
     inkscape:pageopacity="0.0"
     inkscape:pageshadow="2"
     inkscape:zoom="5.6"
     inkscape:cx="38.771227"
     inkscape:cy="-10.231509"
     inkscape:document-units="px"
     inkscape:current-layer="layer1"
     showgrid="false"
     units="px"
     fit-margin-top="0"
     fit-margin-left="0"
     fit-margin-right="0"
     fit-margin-bottom="0" />
  <metadata
     id="metadata6733">
    <rdf:RDF>
      <cc:Work
         rdf:about="">
        <dc:format>image/svg+xml</dc:format>
        <dc:type
           rdf:resource="http://purl.org/dc/dcmitype/StillImage" />
        <dc:title></dc:title>
      </cc:Work>
    </rdf:RDF>
  </metadata>
  <g
     inkscape:label="Layer 1"
     inkscape:groupmode="layer"
     id="layer1"
     transform="translate(328.38743,-6.0761064)">
    <g
       transform="matrix(0.2734097,0,0,0.2734097,-382.45137,18.656757)"
       id="g2929"
       style="fill:#010101;fill-opacity:1">
      <path
         inkscape:connector-curvature="0"
         id="path39834"
         style="fill:#010101;fill-opacity:1;fill-rule:nonzero;stroke:none"
         d="m 0,0 c -1.965,0 -3.551,-1.588 -3.551,-3.558 0,-1.957 1.586,-3.552 3.551,-3.552 1.963,0 3.561,1.595 3.561,3.552 C 3.561,-1.588 1.963,0 0,0 m -14.537,-8.838 c -4.754,0 -8.615,-3.867 -8.615,-8.613 0,-4.751 3.861,-8.612 8.615,-8.612 4.75,0 8.609,3.861 8.609,8.612 0,4.746 -3.859,8.613 -8.609,8.613 m 0,-22.616 c -7.724,0 -14.006,6.281 -14.006,14.003 0,7.724 6.282,14.006 14.006,14.006 7.721,0 14.004,-6.282 14.004,-14.006 0,-7.722 -6.283,-14.003 -14.004,-14.003 m -14.83,35.861 c -3.789,0 -6.874,-3.084 -6.874,-6.874 v -29.648 c 0,-3.795 3.085,-6.879 6.874,-6.879 H 0.285 c 3.791,0 6.875,3.084 6.875,6.879 v 29.648 c 0,3.79 -3.084,6.874 -6.875,6.874 z M 0.285,-44.385 h -29.652 c -6.76,0 -12.268,5.504 -12.268,12.27 v 29.648 c 0,6.767 5.508,12.273 12.268,12.273 H 0.285 c 6.762,0 12.271,-5.506 12.271,-12.273 v -29.648 c 0,-6.766 -5.509,-12.27 -12.271,-12.27"
         transform="matrix(0.35277777,0,0,-0.35277777,219.80271,-34.944111)" />
      <g
         transform="matrix(0.35277777,0,0,-0.35277777,231.25698,-29.075053)"
         id="g39868"
         style="fill:#010101;fill-opacity:1">
        <path
           style="color:#000000;font-style:normal;font-variant:normal;font-weight:normal;font-stretch:normal;font-size:medium;line-height:normal;font-family:sans-serif;font-variant-ligatures:normal;font-variant-position:normal;font-variant-caps:normal;font-variant-numeric:normal;font-variant-alternates:normal;font-feature-settings:normal;text-indent:0;text-align:start;text-decoration:none;text-decoration-line:none;text-decoration-style:solid;text-decoration-color:#000000;letter-spacing:normal;word-spacing:normal;text-transform:none;writing-mode:lr-tb;direction:ltr;text-orientation:mixed;dominant-baseline:auto;baseline-shift:baseline;text-anchor:start;white-space:normal;shape-padding:0;clip-rule:nonzero;display:inline;overflow:visible;visibility:visible;opacity:1;isolation:auto;mix-blend-mode:normal;color-interpolation:sRGB;color-interpolation-filters:linearRGB;solid-color:#000000;solid-opacity:1;vector-effect:none;fill:#010101;fill-opacity:1;fill-rule:nonzero;stroke:none;stroke-width:2;stroke-linecap:butt;stroke-linejoin:miter;stroke-miterlimit:10;stroke-dasharray:none;stroke-dashoffset:0;stroke-opacity:1;color-rendering:auto;image-rendering:auto;shape-rendering:auto;text-rendering:auto;enable-background:accumulate"
           d="m -95.009766,-48.027344 1.033204,1.554688 c 9.368359,14.095228 4.125171,30.081708 0.933593,41.3867185 -1.862785,6.6191169 -1.717863,13.6613831 0.44336,20.1914065 v 0.002 c 6.33383,19.115891 24.350077,32.908203 45.576171,32.908203 C -20.512091,48.015625 1,26.505548 1,0 1,-26.514361 -20.512014,-48.027344 -47.023438,-48.027344 Z m 3.529297,2 h 44.457031 C -21.592861,-46.027344 -1,-25.433639 -1,0 c 0,25.424452 -20.592784,46.015625 -46.023438,46.015625 -20.359267,0 -37.609054,-13.223894 -43.677734,-31.537109 v -0.002 C -92.735177,8.3297008 -92.873635,1.692765 -91.119141,-4.5429688 v -0.00195 c 3.060269,-10.8396222 8.237995,-26.9170012 -0.361328,-41.4824222 z"
           id="path39870"
           inkscape:connector-curvature="0" />
      </g>
    </g>
  </g>
</svg>
