<?xml version="1.0" encoding="UTF-8" standalone="no"?>
<!-- Created with Inkscape (http://www.inkscape.org/) -->

<svg
   xmlns:dc="http://purl.org/dc/elements/1.1/"
   xmlns:cc="http://creativecommons.org/ns#"
   xmlns:rdf="http://www.w3.org/1999/02/22-rdf-syntax-ns#"
   xmlns:svg="http://www.w3.org/2000/svg"
   xmlns="http://www.w3.org/2000/svg"
   xmlns:sodipodi="http://sodipodi.sourceforge.net/DTD/sodipodi-0.dtd"
   xmlns:inkscape="http://www.inkscape.org/namespaces/inkscape"
   width="35"
   height="35.012817"
   viewBox="0 0 9.2604165 9.2638082"
   version="1.1"
   id="svg28768"
   inkscape:version="0.92.2 (5c3e80d, 2017-08-06)"
   sodipodi:docname="legal.svg">
  <defs
     id="defs28762" />
  <sodipodi:namedview
     id="base"
     pagecolor="#ffffff"
     bordercolor="#666666"
     borderopacity="1.0"
     inkscape:pageopacity="0.0"
     inkscape:pageshadow="2"
     inkscape:zoom="2.8"
     inkscape:cx="72.581175"
     inkscape:cy="10.295872"
     inkscape:document-units="px"
     inkscape:current-layer="layer1"
     showgrid="false"
     units="px"
     fit-margin-top="0"
     fit-margin-left="0"
     fit-margin-right="0"
     fit-margin-bottom="0" />
  <metadata
     id="metadata28765">
    <rdf:RDF>
      <cc:Work
         rdf:about="">
        <dc:format>image/svg+xml</dc:format>
        <dc:type
           rdf:resource="http://purl.org/dc/dcmitype/StillImage" />
        <dc:title></dc:title>
      </cc:Work>
    </rdf:RDF>
  </metadata>
  <g
     inkscape:label="Layer 1"
     inkscape:groupmode="layer"
     id="layer1"
     transform="translate(108.40495,-55.212824)">
    <g
       transform="matrix(0.27341526,0,0,0.27341526,-85.291237,-71.785348)"
       id="g28747">
      <g
         style="fill:#010101;fill-opacity:1"
         transform="matrix(0.35277777,0,0,-0.35277777,-51.020378,481.42708)"
         id="g38356">
        <path
           inkscape:connector-curvature="0"
           id="path38358"
           d="m -95.007812,-48.027344 1.03125,1.554688 c 9.369354,14.096235 4.125186,30.081655 0.933593,41.3867185 v 0.00195 c -1.862808,6.6181678 -1.717835,13.6604364 0.44336,20.1914065 6.33384,19.114899 24.350077,32.908203 45.576171,32.908203 C -20.511112,48.015625 1,26.505497 1,0 1,-26.515289 -20.511061,-48.027344 -47.023438,-48.027344 Z m 3.527343,2 h 44.457031 C -21.591814,-46.027344 -1,-25.434711 -1,0 c 0,25.424503 -20.591763,46.015625 -46.023438,46.015625 -20.359905,0 -37.609574,-13.224008 -43.677734,-31.537109 -2.034805,-6.1490305 -2.171208,-12.7856526 -0.416016,-19.0214848 3.060198,-10.8396432 8.2375,-26.9172642 -0.363281,-41.4843752 z"
           style="color:#000000;font-style:normal;font-variant:normal;font-weight:normal;font-stretch:normal;font-size:medium;line-height:normal;font-family:sans-serif;font-variant-ligatures:normal;font-variant-position:normal;font-variant-caps:normal;font-variant-numeric:normal;font-variant-alternates:normal;font-feature-settings:normal;text-indent:0;text-align:start;text-decoration:none;text-decoration-line:none;text-decoration-style:solid;text-decoration-color:#000000;letter-spacing:normal;word-spacing:normal;text-transform:none;writing-mode:lr-tb;direction:ltr;text-orientation:mixed;dominant-baseline:auto;baseline-shift:baseline;text-anchor:start;white-space:normal;shape-padding:0;clip-rule:nonzero;display:inline;overflow:visible;visibility:visible;opacity:1;isolation:auto;mix-blend-mode:normal;color-interpolation:sRGB;color-interpolation-filters:linearRGB;solid-color:#000000;solid-opacity:1;vector-effect:none;fill:#010101;fill-opacity:1;fill-rule:nonzero;stroke:none;stroke-width:2;stroke-linecap:butt;stroke-linejoin:miter;stroke-miterlimit:10;stroke-dasharray:none;stroke-dashoffset:0;stroke-opacity:1;color-rendering:auto;image-rendering:auto;shape-rendering:auto;text-rendering:auto;enable-background:accumulate" />
      </g>
      <g
         style="fill:#010101;fill-opacity:1"
         transform="matrix(0.35277777,0,0,-0.35277777,-71.883197,483.52481)"
         id="g39678">
        <path
           inkscape:connector-curvature="0"
           id="path39680"
           style="fill:#010101;fill-opacity:1;fill-rule:nonzero;stroke:none"
           d="M 0,0 -5.703,15.104 -11.406,0 Z m -5.703,-7.297 c -4.752,0 -8.76,3.057 -10.263,7.297 h 2.365 l 6.936,18.371 c 0.302,0.803 1.624,0.803 1.925,0 L 2.195,0 H 4.561 C 3.057,-4.24 -0.951,-7.297 -5.703,-7.297 m 0,27.793 c 0.933,0 1.684,0.631 1.955,1.473 0.67,0.252 1.373,0.601 2.084,0.963 1.576,0.793 3.349,1.695 5.204,1.695 1.772,0 2.876,-0.822 3.507,-1.514 -0.02,-0.181 -0.051,-0.353 -0.051,-0.543 0,-2.054 1.664,-3.716 3.719,-3.716 2.055,0 3.728,1.662 3.728,3.716 0,0.19 -0.029,0.362 -0.06,0.543 0.633,0.692 1.744,1.514 3.519,1.514 1.854,0 3.627,-0.902 5.202,-1.695 0.71,-0.362 1.402,-0.711 2.083,-0.963 0.262,-0.842 1.024,-1.473 1.956,-1.473 1.142,0 2.074,0.932 2.074,2.074 0,1.155 -0.932,2.075 -2.074,2.075 -0.592,0 -1.123,-0.25 -1.495,-0.651 -0.509,0.211 -1.062,0.49 -1.623,0.772 -1.773,0.902 -3.789,1.914 -6.123,1.914 -2.045,0 -3.468,-0.782 -4.431,-1.614 -0.442,0.471 -0.992,0.832 -1.623,1.034 0.771,0.41 1.302,1.191 1.302,2.125 0,1.341 -2.435,4.478 -2.435,4.478 0,0 -2.426,-3.137 -2.426,-4.478 C 8.289,27.291 8.82,26.51 9.592,26.1 8.961,25.898 8.399,25.537 7.969,25.066 7.006,25.898 5.582,26.68 3.54,26.68 c -2.345,0 -4.351,-1.012 -6.125,-1.914 -0.571,-0.282 -1.112,-0.561 -1.624,-0.772 -0.369,0.401 -0.904,0.651 -1.494,0.651 -1.143,0 -2.075,-0.92 -2.075,-2.075 0,-1.142 0.932,-2.074 2.075,-2.074 M 32.846,0 27.143,15.104 21.439,0 Z m 4.56,0 c -1.504,-4.24 -5.512,-7.297 -10.263,-7.297 -4.75,0 -8.76,3.057 -10.264,7.297 h 2.365 l 6.936,18.371 c 0.301,0.803 1.625,0.803 1.924,0 L 35.031,0 Z M 23.033,-18.484 v -2.043 H -1.592 v 2.043 c 0,1.134 0.921,2.056 2.043,2.056 h 4.141 c 0.109,2.565 1.763,4.701 4.08,5.522 V 13.158 C 7.588,13.84 6.857,15.043 6.857,16.416 h 7.717 c 0,-1.373 -0.722,-2.576 -1.804,-3.258 v -24.064 c 2.304,-0.821 3.968,-2.957 4.08,-5.522 h 4.129 c 1.132,0 2.054,-0.922 2.054,-2.056" />
      </g>
    </g>
  </g>
</svg>
