<?xml version="1.0" encoding="UTF-8" standalone="no"?>
<!-- Created with Inkscape (http://www.inkscape.org/) -->

<svg
   xmlns:dc="http://purl.org/dc/elements/1.1/"
   xmlns:cc="http://creativecommons.org/ns#"
   xmlns:rdf="http://www.w3.org/1999/02/22-rdf-syntax-ns#"
   xmlns:svg="http://www.w3.org/2000/svg"
   xmlns="http://www.w3.org/2000/svg"
   xmlns:sodipodi="http://sodipodi.sourceforge.net/DTD/sodipodi-0.dtd"
   xmlns:inkscape="http://www.inkscape.org/namespaces/inkscape"
   width="35"
   height="35.011391"
   viewBox="0 0 9.2604165 9.2634307"
   version="1.1"
   id="svg21729"
   inkscape:version="0.92.2 (5c3e80d, 2017-08-06)"
   sodipodi:docname="locksmith.svg">
  <defs
     id="defs21723" />
  <sodipodi:namedview
     id="base"
     pagecolor="#ffffff"
     bordercolor="#666666"
     borderopacity="1.0"
     inkscape:pageopacity="0.0"
     inkscape:pageshadow="2"
     inkscape:zoom="0.35"
     inkscape:cx="-90.279206"
     inkscape:cy="-58.829771"
     inkscape:document-units="mm"
     inkscape:current-layer="layer1"
     showgrid="false"
     units="px"
     fit-margin-top="0"
     fit-margin-left="0"
     fit-margin-right="0"
     fit-margin-bottom="0" />
  <metadata
     id="metadata21726">
    <rdf:RDF>
      <cc:Work
         rdf:about="">
        <dc:format>image/svg+xml</dc:format>
        <dc:type
           rdf:resource="http://purl.org/dc/dcmitype/StillImage" />
        <dc:title></dc:title>
      </cc:Work>
    </rdf:RDF>
  </metadata>
  <g
     inkscape:label="Layer 1"
     inkscape:groupmode="layer"
     id="layer1"
     transform="translate(6.351722,-124.00452)">
    <g
       transform="matrix(0.27340969,0,0,0.27340969,16.375896,19.051135)"
       id="g21708">
      <g
         style="fill:#010101;fill-opacity:1"
         transform="matrix(0.35277777,0,0,-0.35277777,-49.609267,400.80671)"
         id="g38340">
        <path
           inkscape:connector-curvature="0"
           id="path38342"
           d="m -95.009766,-48.027344 1.033204,1.554688 c 9.369284,14.094191 4.12519,30.080636 0.933593,41.3867185 -1.862778,6.6190909 -1.717853,13.6614129 0.44336,20.1914065 6.332833,19.115963 24.350077,32.908203 45.576171,32.908203 C -20.511138,48.013672 1,26.505522 1,0 1,-26.515314 -20.511061,-48.027344 -47.023438,-48.027344 Z m 3.529297,2 h 44.457031 C -21.591814,-46.027344 -1,-25.434686 -1,0 c 0,25.424478 -20.591737,46.013672 -46.023438,46.013672 -20.359905,0 -37.610567,-13.223072 -43.677734,-31.53711 -2.034586,-6.1473978 -2.172643,-12.7831598 -0.417969,-19.0195308 v -0.00195 c 3.060251,-10.8405192 8.238897,-26.9178622 -0.361328,-41.4824222 z"
           style="color:#000000;font-style:normal;font-variant:normal;font-weight:normal;font-stretch:normal;font-size:medium;line-height:normal;font-family:sans-serif;font-variant-ligatures:normal;font-variant-position:normal;font-variant-caps:normal;font-variant-numeric:normal;font-variant-alternates:normal;font-feature-settings:normal;text-indent:0;text-align:start;text-decoration:none;text-decoration-line:none;text-decoration-style:solid;text-decoration-color:#000000;letter-spacing:normal;word-spacing:normal;text-transform:none;writing-mode:lr-tb;direction:ltr;text-orientation:mixed;dominant-baseline:auto;baseline-shift:baseline;text-anchor:start;white-space:normal;shape-padding:0;clip-rule:nonzero;display:inline;overflow:visible;visibility:visible;opacity:1;isolation:auto;mix-blend-mode:normal;color-interpolation:sRGB;color-interpolation-filters:linearRGB;solid-color:#000000;solid-opacity:1;vector-effect:none;fill:#010101;fill-opacity:1;fill-rule:nonzero;stroke:none;stroke-width:2;stroke-linecap:butt;stroke-linejoin:miter;stroke-miterlimit:10;stroke-dasharray:none;stroke-dashoffset:0;stroke-opacity:1;color-rendering:auto;image-rendering:auto;shape-rendering:auto;text-rendering:auto;enable-background:accumulate" />
      </g>
      <g
         style="fill:#010101;fill-opacity:1"
         transform="matrix(0.35277777,0,0,-0.35277777,-61.752866,396.15996)"
         id="g38996">
        <path
           inkscape:connector-curvature="0"
           id="path38998"
           style="fill:#010101;fill-opacity:1;fill-rule:evenodd;stroke:none"
           d="m 0,0 c 0,7.27 -5.887,13.172 -13.172,13.172 -7.269,0 -13.172,-5.902 -13.172,-13.172 0,-5.258 3.073,-9.793 7.528,-11.916 l -7.528,-27.613 H 0 l -7.528,27.613 C -3.073,-9.793 0,-5.258 0,0" />
      </g>
    </g>
  </g>
</svg>
