<?xml version="1.0" encoding="UTF-8" standalone="no"?>
<!-- Created with Inkscape (http://www.inkscape.org/) -->

<svg
   xmlns:dc="http://purl.org/dc/elements/1.1/"
   xmlns:cc="http://creativecommons.org/ns#"
   xmlns:rdf="http://www.w3.org/1999/02/22-rdf-syntax-ns#"
   xmlns:svg="http://www.w3.org/2000/svg"
   xmlns="http://www.w3.org/2000/svg"
   xmlns:sodipodi="http://sodipodi.sourceforge.net/DTD/sodipodi-0.dtd"
   xmlns:inkscape="http://www.inkscape.org/namespaces/inkscape"
   width="35"
   height="35.012104"
   viewBox="0 0 9.2604165 9.2636195"
   version="1.1"
   id="svg27487"
   inkscape:version="0.92.2 (5c3e80d, 2017-08-06)"
   sodipodi:docname="media.svg">
  <defs
     id="defs27481">
    <clipPath
       clipPathUnits="userSpaceOnUse"
       id="clipPath39688">
      <path
         d="m 4717.792,1165.326 h 48.605 v 60.42 h -48.605 z"
         id="path39686"
         inkscape:connector-curvature="0" />
    </clipPath>
  </defs>
  <sodipodi:namedview
     id="base"
     pagecolor="#ffffff"
     bordercolor="#666666"
     borderopacity="1.0"
     inkscape:pageopacity="0.0"
     inkscape:pageshadow="2"
     inkscape:zoom="0.35"
     inkscape:cx="572.57795"
     inkscape:cy="-335.97134"
     inkscape:document-units="px"
     inkscape:current-layer="layer1"
     showgrid="false"
     units="px"
     fit-margin-top="0"
     fit-margin-left="0"
     fit-margin-right="0"
     fit-margin-bottom="0" />
  <metadata
     id="metadata27484">
    <rdf:RDF>
      <cc:Work
         rdf:about="">
        <dc:format>image/svg+xml</dc:format>
        <dc:type
           rdf:resource="http://purl.org/dc/dcmitype/StillImage" />
        <dc:title></dc:title>
      </cc:Work>
    </rdf:RDF>
  </metadata>
  <g
     inkscape:label="Layer 1"
     inkscape:groupmode="layer"
     id="layer1"
     transform="translate(181.73268,-50.677289)">
    <g
       transform="matrix(0.27340969,0,0,0.27340969,-172.06576,-99.784226)"
       id="g27454">
      <g
         style="fill:#010101;fill-opacity:1"
         transform="matrix(0.35277777,0,0,-0.35277777,-1.8395589,567.25407)"
         id="g39644">
        <path
           inkscape:connector-curvature="0"
           id="path39646"
           d="m -95.009766,-48.027344 1.033204,1.554688 c 9.369354,14.096235 4.125186,30.081655 0.933593,41.3867185 -1.863884,6.6183355 -1.717805,13.6624795 0.44336,20.1933595 6.33384,19.114899 24.349103,32.908203 45.574218,32.908203 C -20.512086,48.015625 1,26.505522 1,0 1,-26.515314 -20.512035,-48.027344 -47.025391,-48.027344 Z m 3.529297,2 h 44.455078 C -21.592747,-46.027344 -1,-25.434686 -1,0 c 0,25.424478 -20.592695,46.015625 -46.025391,46.015625 -20.358884,0 -37.607621,-13.224008 -43.675781,-31.537109 -2.034835,-6.1491205 -2.174084,-12.7858203 -0.417969,-19.0214848 3.060182,-10.8395882 8.239269,-26.9173222 -0.361328,-41.4843752 z"
           style="color:#000000;font-style:normal;font-variant:normal;font-weight:normal;font-stretch:normal;font-size:medium;line-height:normal;font-family:sans-serif;font-variant-ligatures:normal;font-variant-position:normal;font-variant-caps:normal;font-variant-numeric:normal;font-variant-alternates:normal;font-feature-settings:normal;text-indent:0;text-align:start;text-decoration:none;text-decoration-line:none;text-decoration-style:solid;text-decoration-color:#000000;letter-spacing:normal;word-spacing:normal;text-transform:none;writing-mode:lr-tb;direction:ltr;text-orientation:mixed;dominant-baseline:auto;baseline-shift:baseline;text-anchor:start;white-space:normal;shape-padding:0;clip-rule:nonzero;display:inline;overflow:visible;visibility:visible;opacity:1;isolation:auto;mix-blend-mode:normal;color-interpolation:sRGB;color-interpolation-filters:linearRGB;solid-color:#000000;solid-opacity:1;vector-effect:none;fill:#010101;fill-opacity:1;fill-rule:nonzero;stroke:none;stroke-width:2;stroke-linecap:butt;stroke-linejoin:miter;stroke-miterlimit:10;stroke-dasharray:none;stroke-dashoffset:0;stroke-opacity:1;color-rendering:auto;image-rendering:auto;shape-rendering:auto;text-rendering:auto;enable-background:accumulate" />
      </g>
      <g
         style="fill:#010101;fill-opacity:1"
         id="g39682"
         transform="matrix(0.35277777,0,0,-0.35277777,-1689.8433,989.01471)">
        <g
           style="fill:#010101;fill-opacity:1"
           clip-path="url(#clipPath39688)"
           id="g39684">
          <g
             style="fill:#010101;fill-opacity:1"
             transform="translate(4735.4912,1210.9434)"
             id="g39690">
            <path
               inkscape:connector-curvature="0"
               id="path39692"
               style="fill:#010101;fill-opacity:1;fill-rule:nonzero;stroke:none"
               d="m 0,0 c 4.009,0 7.271,3.26 7.271,7.27 0,4.007 -3.26,7.269 -7.271,7.269 -4.007,0 -7.268,-3.262 -7.268,-7.269 C -7.268,3.26 -4.007,0 0,0" />
          </g>
          <g
             style="fill:#010101;fill-opacity:1"
             transform="translate(4758.333,1220.0566)"
             id="g39694">
            <path
               inkscape:connector-curvature="0"
               id="path39696"
               style="fill:#010101;fill-opacity:1;fill-rule:nonzero;stroke:none"
               d="M 0,0 C -0.045,0 -0.09,-0.006 -0.136,-0.014 L -12.594,-2.33 c -0.392,-0.072 -0.805,-0.424 -0.939,-0.799 L -14.594,-6.1 c -0.068,-0.195 -0.054,-0.398 0.037,-0.576 0.094,-0.178 0.255,-0.304 0.454,-0.357 l 0.443,-0.117 c 0.74,-1.653 1.42,-3.489 1.82,-4.928 -1.259,0.338 -2.776,0.863 -4.093,1.422 -0.29,0.123 -0.817,0.25 -1.145,0.25 h -11.036 c -2.695,2.414 -5.259,4.83 -6.189,5.924 0.253,1.097 1.463,3.474 2.727,5.337 0.465,0.682 0.635,1.506 0.48,2.319 -0.154,0.81 -0.615,1.515 -1.299,1.978 -0.515,0.352 -1.117,0.537 -1.737,0.537 -1.026,0 -1.984,-0.505 -2.561,-1.355 -0.047,-0.068 -1.161,-1.709 -2.161,-3.674 -1.76,-3.453 -2.125,-5.826 -1.183,-7.691 0.285,-0.563 0.812,-1.608 6.02,-6.373 1.441,-1.321 2.83,-2.549 3.729,-3.338 v -34.629 c 0,-1.799 1.463,-3.262 3.261,-3.262 1.798,0 3.26,1.463 3.26,3.262 v 18.685 h 1.867 v -18.685 c 0,-1.799 1.463,-3.262 3.261,-3.262 1.799,0 3.262,1.463 3.262,3.262 l -0.016,33.908 c 0.422,-0.141 0.867,-0.283 1.319,-0.416 1.409,-0.412 2.574,-0.644 3.555,-0.711 0.183,-0.012 0.363,-0.017 0.535,-0.017 2.63,0 3.726,1.392 4.146,2.222 0.818,1.621 0.693,3.821 -0.435,7.274 l 6.138,-1.631 c 0.063,-0.016 0.125,-0.026 0.186,-0.026 0.344,0 0.594,0.264 0.594,0.625 v 9.481 C 0.645,-0.285 0.366,0 0,0" />
          </g>
          <g
             style="fill:#010101;fill-opacity:1"
             transform="translate(4761.8545,1217.9336)"
             id="g39698">
            <path
               inkscape:connector-curvature="0"
               id="path39700"
               style="fill:#010101;fill-opacity:1;fill-rule:nonzero;stroke:none"
               d="M 0,0 C 0.102,0 0.207,0.02 0.31,0.057 L 3.94,1.406 C 4.402,1.578 4.637,2.092 4.464,2.553 4.294,3.014 3.778,3.25 3.318,3.078 L -0.312,1.729 C -0.773,1.557 -1.009,1.043 -0.838,0.582 -0.704,0.223 -0.363,0 0,0" />
          </g>
          <g
             style="fill:#010101;fill-opacity:1"
             transform="translate(4761.8516,1213.9922)"
             id="g39702">
            <path
               inkscape:connector-curvature="0"
               id="path39704"
               style="fill:#010101;fill-opacity:1;fill-rule:nonzero;stroke:none"
               d="m 0,0 h 3.631 c 0.493,0 0.894,0.4 0.894,0.893 0,0.492 -0.401,0.892 -0.894,0.892 L 0,1.785 c -0.491,0 -0.89,-0.4 -0.89,-0.892 C -0.89,0.4 -0.491,0 0,0" />
          </g>
          <g
             style="fill:#010101;fill-opacity:1"
             transform="translate(4765.7939,1210.4297)"
             id="g39706">
            <path
               inkscape:connector-curvature="0"
               id="path39708"
               style="fill:#010101;fill-opacity:1;fill-rule:nonzero;stroke:none"
               d="M 0,0 -3.63,1.35 C -4.093,1.521 -4.605,1.287 -4.777,0.824 -4.948,0.363 -4.713,-0.15 -4.252,-0.322 l 3.631,-1.35 c 0.102,-0.039 0.207,-0.057 0.309,-0.057 0.364,0 0.705,0.223 0.836,0.583 C 0.697,-0.686 0.463,-0.172 0,0" />
          </g>
        </g>
      </g>
    </g>
  </g>
</svg>
