<?xml version="1.0" encoding="UTF-8" standalone="no"?>
<!-- Created with Inkscape (http://www.inkscape.org/) -->

<svg
   xmlns:dc="http://purl.org/dc/elements/1.1/"
   xmlns:cc="http://creativecommons.org/ns#"
   xmlns:rdf="http://www.w3.org/1999/02/22-rdf-syntax-ns#"
   xmlns:svg="http://www.w3.org/2000/svg"
   xmlns="http://www.w3.org/2000/svg"
   xmlns:sodipodi="http://sodipodi.sourceforge.net/DTD/sodipodi-0.dtd"
   xmlns:inkscape="http://www.inkscape.org/namespaces/inkscape"
   width="35"
   height="35.012119"
   viewBox="0 0 9.2604165 9.2636235"
   version="1.1"
   id="svg18879"
   inkscape:version="0.92.2 (5c3e80d, 2017-08-06)"
   sodipodi:docname="painting.svg">
  <defs
     id="defs18873" />
  <sodipodi:namedview
     id="base"
     pagecolor="#ffffff"
     bordercolor="#666666"
     borderopacity="1.0"
     inkscape:pageopacity="0.0"
     inkscape:pageshadow="2"
     inkscape:zoom="2.8"
     inkscape:cx="46.832214"
     inkscape:cy="-14.678437"
     inkscape:document-units="px"
     inkscape:current-layer="layer1"
     showgrid="false"
     units="px"
     fit-margin-top="0"
     fit-margin-left="0"
     fit-margin-right="0"
     fit-margin-bottom="0" />
  <metadata
     id="metadata18876">
    <rdf:RDF>
      <cc:Work
         rdf:about="">
        <dc:format>image/svg+xml</dc:format>
        <dc:type
           rdf:resource="http://purl.org/dc/dcmitype/StillImage" />
        <dc:title></dc:title>
      </cc:Work>
    </rdf:RDF>
  </metadata>
  <g
     inkscape:label="Layer 1"
     inkscape:groupmode="layer"
     id="layer1"
     transform="translate(126.54815,-128.54039)">
    <g
       id="g19449"
       transform="matrix(0.27340969,0,0,0.27340969,-91.94866,100.12706)">
      <g
         style="fill:#010101;fill-opacity:1"
         transform="matrix(0.35277777,0,0,-0.35277777,-93.030817,120.86104)"
         id="g38418">
        <path
           inkscape:connector-curvature="0"
           id="path38420"
           d="m -95.009766,-48.027344 1.033204,1.554688 c 9.369319,14.095213 4.125186,30.081655 0.933593,41.3867185 -1.862785,6.6191169 -1.717863,13.6613831 0.44336,20.1914065 v 0.002 c 6.33383,19.115891 24.350077,32.908203 45.576171,32.908203 C -20.511112,48.015625 1,26.505522 1,0 1,-26.514335 -20.511035,-48.027344 -47.023438,-48.027344 Z m 3.529297,2 h 44.457031 C -21.59184,-46.027344 -1,-25.433665 -1,0 c 0,25.424478 -20.591763,46.015625 -46.023438,46.015625 -20.359267,0 -37.609054,-13.223894 -43.677734,-31.537109 v -0.002 C -92.735177,8.3297008 -92.873635,1.692765 -91.119141,-4.5429688 v -0.00195 c 3.060255,-10.8395712 8.238866,-26.9169832 -0.361328,-41.4824222 z"
           style="color:#000000;font-style:normal;font-variant:normal;font-weight:normal;font-stretch:normal;font-size:medium;line-height:normal;font-family:sans-serif;font-variant-ligatures:normal;font-variant-position:normal;font-variant-caps:normal;font-variant-numeric:normal;font-variant-alternates:normal;font-feature-settings:normal;text-indent:0;text-align:start;text-decoration:none;text-decoration-line:none;text-decoration-style:solid;text-decoration-color:#000000;letter-spacing:normal;word-spacing:normal;text-transform:none;writing-mode:lr-tb;direction:ltr;text-orientation:mixed;dominant-baseline:auto;baseline-shift:baseline;text-anchor:start;white-space:normal;shape-padding:0;clip-rule:nonzero;display:inline;overflow:visible;visibility:visible;opacity:1;isolation:auto;mix-blend-mode:normal;color-interpolation:sRGB;color-interpolation-filters:linearRGB;solid-color:#000000;solid-opacity:1;vector-effect:none;fill:#010101;fill-opacity:1;fill-rule:nonzero;stroke:none;stroke-width:2;stroke-linecap:butt;stroke-linejoin:miter;stroke-miterlimit:10;stroke-dasharray:none;stroke-dashoffset:0;stroke-opacity:1;color-rendering:auto;image-rendering:auto;shape-rendering:auto;text-rendering:auto;enable-background:accumulate" />
      </g>
      <g
         style="fill:#010101;fill-opacity:1"
         id="g1957"
         transform="translate(-47.260088,83.468486)">
        <g
           style="fill:#010101;fill-opacity:1"
           id="g38422"
           transform="matrix(0.35277777,0,0,-0.35277777,-68.663394,44.832913)">
          <path
             d="m 0,0 c -0.934,-0.934 -2.446,-0.934 -3.38,0 -0.933,0.934 -0.933,2.447 0,3.38 0.934,0.933 2.446,0.933 3.38,0 C 0.934,2.447 0.934,0.934 0,0 M 6.821,29.218 2.936,25.333 C 2.618,25.016 2.44,24.586 2.44,24.138 c 0,-0.449 0.178,-0.879 0.496,-1.196 L 6.621,19.256 C 7.33,18.546 7.676,17.567 7.564,16.569 7.456,15.57 6.907,14.688 6.06,14.148 -4.771,7.245 -5.779,6.235 -6.11,5.904 c -2.381,-2.381 -2.381,-6.255 0,-8.635 2.382,-2.383 6.255,-2.378 8.634,0 0.33,0.332 1.341,1.342 8.244,12.17 0.54,0.846 1.421,1.394 2.419,1.504 1.001,0.11 1.982,-0.234 2.69,-0.942 l 3.684,-3.685 c 0.661,-0.66 1.732,-0.66 2.392,0 l 3.885,3.885 z"
             style="fill:#010101;fill-opacity:1;fill-rule:nonzero;stroke:none"
             id="path38424"
             inkscape:connector-curvature="0" />
        </g>
        <g
           style="fill:#010101;fill-opacity:1"
           id="g38426"
           transform="matrix(0.35277777,0,0,-0.35277777,-53.194901,35.247095)">
          <path
             d="m 0,0 c 0.66,0.66 0.66,1.73 0,2.391 l -2.537,2.538 c -0.576,0.574 -1.477,0.658 -2.149,0.203 l -5.335,-3.627 3.606,5.372 c 0.448,0.671 0.362,1.566 -0.209,2.137 l -5.505,5.505 c -0.508,0.508 -1.281,0.639 -1.93,0.327 l -0.951,-0.458 0.457,1.011 c 0.289,0.641 0.151,1.393 -0.347,1.891 l -1.727,1.728 c -0.66,0.66 -1.732,0.66 -2.392,0 l -13.42,-13.421 19.017,-19.018 z"
             style="fill:#010101;fill-opacity:1;fill-rule:nonzero;stroke:none"
             id="path38428"
             inkscape:connector-curvature="0" />
        </g>
      </g>
    </g>
  </g>
</svg>
