<?xml version="1.0" encoding="UTF-8" standalone="no"?>
<!-- Created with Inkscape (http://www.inkscape.org/) -->

<svg
   xmlns:dc="http://purl.org/dc/elements/1.1/"
   xmlns:cc="http://creativecommons.org/ns#"
   xmlns:rdf="http://www.w3.org/1999/02/22-rdf-syntax-ns#"
   xmlns:svg="http://www.w3.org/2000/svg"
   xmlns="http://www.w3.org/2000/svg"
   xmlns:sodipodi="http://sodipodi.sourceforge.net/DTD/sodipodi-0.dtd"
   xmlns:inkscape="http://www.inkscape.org/namespaces/inkscape"
   width="35"
   height="35.012119"
   viewBox="0 0 9.2604165 9.2636235"
   version="1.1"
   id="svg33835"
   inkscape:version="0.92.2 (5c3e80d, 2017-08-06)"
   sodipodi:docname="personal-care.svg">
  <defs
     id="defs33829">
    <clipPath
       clipPathUnits="userSpaceOnUse"
       id="clipPath39404">
      <path
         d="m 4725.727,2201.716 h 53.09 v 63.565 h -53.09 z"
         id="path39402"
         inkscape:connector-curvature="0" />
    </clipPath>
  </defs>
  <sodipodi:namedview
     id="base"
     pagecolor="#ffffff"
     bordercolor="#666666"
     borderopacity="1.0"
     inkscape:pageopacity="0.0"
     inkscape:pageshadow="2"
     inkscape:zoom="3.959798"
     inkscape:cx="27.989526"
     inkscape:cy="16.975923"
     inkscape:document-units="px"
     inkscape:current-layer="layer1"
     showgrid="false"
     units="px"
     fit-margin-top="0"
     fit-margin-left="0"
     fit-margin-right="0"
     fit-margin-bottom="0" />
  <metadata
     id="metadata33832">
    <rdf:RDF>
      <cc:Work
         rdf:about="">
        <dc:format>image/svg+xml</dc:format>
        <dc:type
           rdf:resource="http://purl.org/dc/dcmitype/StillImage" />
        <dc:title></dc:title>
      </cc:Work>
    </rdf:RDF>
  </metadata>
  <g
     inkscape:label="Layer 1"
     inkscape:groupmode="layer"
     id="layer1"
     transform="translate(-1.2078013,-176.92134)">
    <g
       transform="matrix(0.27340969,0,0,0.27340969,9.5542401,126.76718)"
       id="g33773">
      <g
         style="fill:#010101;fill-opacity:1"
         transform="matrix(0.35277777,0,0,-0.35277777,2.9901096,200.37845)"
         id="g39326">
        <path
           inkscape:connector-curvature="0"
           id="path39328"
           d="m -95.009766,-48.027344 1.033204,1.554688 c 9.369319,14.095213 4.125186,30.081655 0.933593,41.3867185 -1.862785,6.6191169 -1.717863,13.6613831 0.44336,20.1914065 v 0.002 c 6.33383,19.115891 24.350077,32.908203 45.576171,32.908203 C -20.511112,48.015625 1,26.505522 1,0 1,-26.514335 -20.511035,-48.027344 -47.023438,-48.027344 Z m 3.529297,2 h 44.457031 C -21.59184,-46.027344 -1,-25.433665 -1,0 c 0,25.424478 -20.591763,46.015625 -46.023438,46.015625 -20.359267,0 -37.609054,-13.223894 -43.677734,-31.537109 v -0.002 C -92.735177,8.3297008 -92.873635,1.692765 -91.119141,-4.5429688 v -0.00195 c 3.060255,-10.8395712 8.238866,-26.9169832 -0.361328,-41.4824222 z"
           style="color:#000000;font-style:normal;font-variant:normal;font-weight:normal;font-stretch:normal;font-size:medium;line-height:normal;font-family:sans-serif;font-variant-ligatures:normal;font-variant-position:normal;font-variant-caps:normal;font-variant-numeric:normal;font-variant-alternates:normal;font-feature-settings:normal;text-indent:0;text-align:start;text-decoration:none;text-decoration-line:none;text-decoration-style:solid;text-decoration-color:#000000;letter-spacing:normal;word-spacing:normal;text-transform:none;writing-mode:lr-tb;direction:ltr;text-orientation:mixed;dominant-baseline:auto;baseline-shift:baseline;text-anchor:start;white-space:normal;shape-padding:0;clip-rule:nonzero;display:inline;overflow:visible;visibility:visible;opacity:1;isolation:auto;mix-blend-mode:normal;color-interpolation:sRGB;color-interpolation-filters:linearRGB;solid-color:#000000;solid-opacity:1;vector-effect:none;fill:#010101;fill-opacity:1;fill-rule:nonzero;stroke:none;stroke-width:2;stroke-linecap:butt;stroke-linejoin:miter;stroke-miterlimit:10;stroke-dasharray:none;stroke-dashoffset:0;stroke-opacity:1;color-rendering:auto;image-rendering:auto;shape-rendering:auto;text-rendering:auto;enable-background:accumulate" />
      </g>
      <g
         id="g33728">
        <g
           id="g39330"
           transform="matrix(0.35277777,0,0,-0.35277777,-15.637509,202.58935)"
           style="fill:#010101;fill-opacity:1">
          <path
             d="m 0,0 c 0,0 -0.536,-0.08 -0.914,-0.457 -0.377,-0.377 -0.456,-0.904 -0.456,-0.904 0,0 0.537,0.07 0.903,0.447 C -0.081,-0.537 0,0 0,0"
             style="fill:#010101;fill-opacity:1;fill-rule:nonzero;stroke:none"
             id="path39332"
             inkscape:connector-curvature="0" />
        </g>
        <g
           id="g39334"
           transform="matrix(0.35277777,0,0,-0.35277777,-16.12085,203.31109)"
           style="fill:#010101;fill-opacity:1">
          <path
             d="m 0,0 c 0,0 0.079,-0.537 0.456,-0.914 0.378,-0.378 0.914,-0.457 0.914,-0.457 0,0 -0.081,0.537 -0.467,0.914 C 0.537,-0.08 0,0 0,0"
             style="fill:#010101;fill-opacity:1;fill-rule:nonzero;stroke:none"
             id="path39336"
             inkscape:connector-curvature="0" />
        </g>
        <g
           id="g39338"
           transform="matrix(0.35277777,0,0,-0.35277777,-16.072625,203.19207)"
           style="fill:#010101;fill-opacity:1">
          <path
             d="M 0,0 C 0,0 0.438,-0.318 0.965,-0.318 1.502,-0.318 1.938,0 1.938,0 1.938,0 1.502,0.328 0.965,0.328 0.438,0.318 0,0 0,0"
             style="fill:#010101;fill-opacity:1;fill-rule:nonzero;stroke:none"
             id="path39340"
             inkscape:connector-curvature="0" />
        </g>
        <g
           id="g39342"
           transform="matrix(0.35277777,0,0,-0.35277777,-16.240053,204.66364)"
           style="fill:#010101;fill-opacity:1">
          <path
             d="m 0,0 c -2.314,0 -4.182,1.867 -4.182,4.171 0,2.305 1.868,4.182 4.182,4.182 2.305,0 4.17,-1.868 4.17,-4.182 C 4.17,1.867 2.305,0 0,0 m 0,8.671 c -2.483,0 -4.5,-2.017 -4.5,-4.5 0,-2.473 2.017,-4.489 4.5,-4.489 2.481,0 4.498,2.016 4.498,4.489 0,2.483 -2.017,4.5 -4.498,4.5"
             style="fill:#010101;fill-opacity:1;fill-rule:nonzero;stroke:none"
             id="path39344"
             inkscape:connector-curvature="0" />
        </g>
        <g
           id="g39346"
           transform="matrix(0.35277777,0,0,-0.35277777,-16.84295,202.58935)"
           style="fill:#010101;fill-opacity:1">
          <path
             d="m 0,0 c 0,0 0.08,-0.537 0.457,-0.914 0.378,-0.377 0.904,-0.447 0.904,-0.447 0,0 -0.07,0.527 -0.448,0.904 C 0.537,-0.08 0,0 0,0"
             style="fill:#010101;fill-opacity:1;fill-rule:nonzero;stroke:none"
             id="path39348"
             inkscape:connector-curvature="0" />
        </g>
        <g
           id="g39350"
           transform="matrix(0.35277777,0,0,-0.35277777,-16.84295,203.79133)"
           style="fill:#010101;fill-opacity:1">
          <path
             d="m 0,0 c 0,0 0.537,0.07 0.913,0.447 0.378,0.378 0.448,0.914 0.448,0.914 0,0 -0.526,-0.08 -0.904,-0.457 C 0.08,0.527 0,0 0,0"
             style="fill:#010101;fill-opacity:1;fill-rule:nonzero;stroke:none"
             id="path39352"
             inkscape:connector-curvature="0" />
        </g>
        <g
           id="g39354"
           transform="matrix(0.35277777,0,0,-0.35277777,-16.412315,203.19207)"
           style="fill:#010101;fill-opacity:1">
          <path
             d="M 0,0 C 0,0 -0.427,0.328 -0.961,0.328 -1.497,0.328 -1.926,0 -1.926,0 c 0,0 0.429,-0.318 0.965,-0.318 C -0.427,-0.318 0,0 0,0"
             style="fill:#010101;fill-opacity:1;fill-rule:nonzero;stroke:none"
             id="path39356"
             inkscape:connector-curvature="0" />
        </g>
        <g
           id="g39358"
           transform="matrix(0.35277777,0,0,-0.35277777,-16.352378,203.70003)"
           style="fill:#010101;fill-opacity:1">
          <path
             d="m 0,0 c 0,-0.537 0.318,-0.974 0.318,-0.974 0,0 0.318,0.437 0.318,0.974 0,0.526 -0.318,0.963 -0.318,0.963 C 0.318,0.963 0,0.526 0,0"
             style="fill:#010101;fill-opacity:1;fill-rule:nonzero;stroke:none"
             id="path39360"
             inkscape:connector-curvature="0" />
        </g>
        <g
           id="g39362"
           transform="matrix(0.35277777,0,0,-0.35277777,-13.556332,207.92578)"
           style="fill:#010101;fill-opacity:1">
          <path
             d="M 0,0 C -0.417,0 -1.559,0.606 -2.741,0.606 -4.818,0.606 -7.19,-0.01 -7.19,0 c 0,0 1.776,-1.062 4.409,-1.182 0.834,-0.04 1.818,0.219 2.781,0.219 1.172,0 2.274,-0.188 3.248,-0.129 C 5.592,-0.963 7.191,0 7.191,0 7.191,0 5.225,0.517 3.377,0.517 1.887,0.517 0.517,0 0,0"
             style="fill:#010101;fill-opacity:1;fill-rule:nonzero;stroke:none"
             id="path39364"
             inkscape:connector-curvature="0" />
        </g>
        <g
           id="g39366"
           transform="matrix(0.35277777,0,0,-0.35277777,-16.352378,202.68065)"
           style="fill:#010101;fill-opacity:1">
          <path
             d="m 0,0 c 0,-0.536 0.318,-0.963 0.318,-0.963 0,0 0.318,0.427 0.318,0.963 0,0.527 -0.318,0.964 -0.318,0.964 C 0.318,0.964 0,0.527 0,0"
             style="fill:#010101;fill-opacity:1;fill-rule:nonzero;stroke:none"
             id="path39368"
             inkscape:connector-curvature="0" />
        </g>
        <g
           id="g39370"
           transform="matrix(0.35277777,0,0,-0.35277777,-11.47138,202.58935)"
           style="fill:#010101;fill-opacity:1">
          <path
             d="m 0,0 c 0,0 0.078,-0.537 0.457,-0.914 0.377,-0.377 0.903,-0.447 0.903,-0.447 0,0 -0.069,0.527 -0.448,0.904 C 0.537,-0.08 0,0 0,0"
             style="fill:#010101;fill-opacity:1;fill-rule:nonzero;stroke:none"
             id="path39372"
             inkscape:connector-curvature="0" />
        </g>
        <g
           id="g39374"
           transform="matrix(0.35277777,0,0,-0.35277777,-10.749949,203.31109)"
           style="fill:#010101;fill-opacity:1">
          <path
             d="m 0,0 c 0,0 0.08,-0.537 0.457,-0.914 0.377,-0.378 0.904,-0.457 0.904,-0.457 0,0 -0.079,0.537 -0.457,0.914 C 0.537,-0.08 0,0 0,0"
             style="fill:#010101;fill-opacity:1;fill-rule:nonzero;stroke:none"
             id="path39376"
             inkscape:connector-curvature="0" />
        </g>
        <g
           id="g39378"
           transform="matrix(0.35277777,0,0,-0.35277777,-10.984935,203.70003)"
           style="fill:#010101;fill-opacity:1">
          <path
             d="m 0,0 c 0,-0.537 0.329,-0.974 0.329,-0.974 0,0 0.317,0.437 0.317,0.974 0,0.526 -0.317,0.963 -0.317,0.963 C 0.329,0.963 0,0.526 0,0"
             style="fill:#010101;fill-opacity:1;fill-rule:nonzero;stroke:none"
             id="path39380"
             inkscape:connector-curvature="0" />
        </g>
        <g
           id="g39382"
           transform="matrix(0.35277777,0,0,-0.35277777,-10.269713,202.58935)"
           style="fill:#010101;fill-opacity:1">
          <path
             d="m 0,0 c 0,0 -0.527,-0.08 -0.904,-0.457 -0.377,-0.377 -0.457,-0.904 -0.457,-0.904 0,0 0.537,0.07 0.904,0.447 C -0.079,-0.537 0,0 0,0"
             style="fill:#010101;fill-opacity:1;fill-rule:nonzero;stroke:none"
             id="path39384"
             inkscape:connector-curvature="0" />
        </g>
        <g
           id="g39386"
           transform="matrix(0.35277777,0,0,-0.35277777,-10.700701,203.19207)"
           style="fill:#010101;fill-opacity:1">
          <path
             d="M 0,0 C 0,0 0.437,-0.318 0.964,-0.318 1.5,-0.318 1.937,0 1.937,0 1.937,0 1.5,0.328 0.964,0.328 0.437,0.318 0,0 0,0"
             style="fill:#010101;fill-opacity:1;fill-rule:nonzero;stroke:none"
             id="path39388"
             inkscape:connector-curvature="0" />
        </g>
        <g
           id="g39390"
           transform="matrix(0.35277777,0,0,-0.35277777,-10.984935,202.68065)"
           style="fill:#010101;fill-opacity:1">
          <path
             d="m 0,0 c 0,-0.536 0.329,-0.963 0.329,-0.963 0,0 0.317,0.427 0.317,0.963 0,0.527 -0.317,0.964 -0.317,0.964 C 0.329,0.964 0,0.527 0,0"
             style="fill:#010101;fill-opacity:1;fill-rule:nonzero;stroke:none"
             id="path39392"
             inkscape:connector-curvature="0" />
        </g>
        <g
           id="g39394"
           transform="matrix(0.35277777,0,0,-0.35277777,-11.47138,203.79133)"
           style="fill:#010101;fill-opacity:1">
          <path
             d="M 0,0 C 0,0 0.537,0.07 0.912,0.447 1.291,0.825 1.36,1.361 1.36,1.361 1.36,1.361 0.834,1.281 0.457,0.904 0.078,0.527 0,0 0,0"
             style="fill:#010101;fill-opacity:1;fill-rule:nonzero;stroke:none"
             id="path39396"
             inkscape:connector-curvature="0" />
        </g>
        <g
           transform="matrix(0.35277777,0,0,-0.35277777,-1689.8433,989.01471)"
           id="g39398"
           style="fill:#010101;fill-opacity:1">
          <g
             id="g39400"
             clip-path="url(#clipPath39404)"
             style="fill:#010101;fill-opacity:1">
            <g
               id="g39406"
               transform="translate(4758.8105,2227.5288)"
               style="fill:#010101;fill-opacity:1">
              <path
                 d="M 0,0 C 0,0 -0.427,0.328 -0.963,0.328 -1.499,0.328 -1.926,0 -1.926,0 c 0,0 0.427,-0.318 0.963,-0.318 C -0.427,-0.318 0,0 0,0"
                 style="fill:#010101;fill-opacity:1;fill-rule:nonzero;stroke:none"
                 id="path39408"
                 inkscape:connector-curvature="0" />
            </g>
            <g
               id="g39410"
               transform="translate(4772.875,2238.8613)"
               style="fill:#010101;fill-opacity:1">
              <path
                 d="m 0,0 -0.219,-0.02 0.139,0.159 z m 0.695,-7.886 c -0.09,-0.209 -0.159,-0.437 -0.248,-0.646 -0.467,0.676 -0.894,1.5 -1.232,2.364 0.476,-0.437 0.983,-1.003 1.48,-1.718 M 2.582,-8.74 c -2.225,4.31 -5.363,5.115 -5.363,5.115 0,0 1.212,-5.801 3.933,-7.191 -1.013,-1.768 -6.177,-1.699 -7.161,0.417 -0.973,2.126 1.668,6.893 1.668,6.893 0,0 -5.442,-2.791 -4.469,-4.807 -2.096,0.407 -4.171,3.764 -2.87,6.922 0.953,2.325 6.326,-0.258 6.326,-0.258 0,0 -5.105,4.421 -6.306,2.295 -0.695,3.684 1.906,7.957 5.879,7.071 -3.149,-2.9 1.52,-8.242 1.52,-8.242 0,0 -1.737,5.83 -0.447,7.269 1.907,2.145 6.287,-1.142 6.307,-4.311 -2.235,0.169 -4.351,-4.29 -4.351,-4.29 0,0 4.877,1.738 6.606,0.17 1.707,-1.57 0.426,-6.08 -1.272,-7.053 m -5.393,-5.364 c 0.04,0.289 0.04,0.596 0.059,0.884 0.18,-0.009 0.368,-0.019 0.547,-0.019 -0.199,-0.288 -0.388,-0.586 -0.606,-0.865 m -9.048,6.576 c 0.515,-0.686 1.132,-1.222 1.797,-1.57 0.408,-0.645 0.656,-1.41 0.656,-2.235 0,-2.304 -1.867,-4.171 -4.171,-4.171 -2.316,0 -4.183,1.867 -4.183,4.171 0,2.305 1.867,4.182 4.183,4.182 0.616,0 1.191,-0.139 1.718,-0.377 m -1.718,-8.939 c -2.841,0 -5.146,2.304 -5.146,5.134 0,2.841 2.305,5.146 5.146,5.146 0.337,0 0.665,-0.041 0.983,-0.1 l 0.158,-0.378 0.278,-0.417 c -0.446,0.149 -0.922,0.249 -1.419,0.249 -2.484,0 -4.499,-2.017 -4.499,-4.5 0,-2.473 2.015,-4.489 4.499,-4.489 2.473,0 4.499,2.016 4.499,4.489 0,0.755 -0.209,1.45 -0.526,2.066 0.188,-0.069 0.377,-0.159 0.576,-0.198 l 0.239,-0.05 c 0.218,-0.566 0.347,-1.172 0.347,-1.818 0,-2.83 -2.304,-5.134 -5.135,-5.134 m -7.618,-12.028 c -4.491,0 -7.191,3.744 -7.191,3.744 0,0 3.983,2.812 4.937,2.752 0.941,-0.07 2.254,-1.073 2.254,-1.073 0,0 1.659,1.073 2.8,1.073 1.153,0 4.391,-2.752 4.391,-2.752 0,0 -2.703,-3.744 -7.191,-3.744 m -12.754,17.162 c 0,2.841 2.304,5.146 5.146,5.146 2.83,0 5.133,-2.305 5.133,-5.146 0,-2.83 -2.303,-5.134 -5.133,-5.134 -2.842,0 -5.146,2.304 -5.146,5.134 m -5.789,-0.218 c 0,-0.864 0.06,-1.708 0.16,-2.553 -3.178,4.013 -5.096,9.068 -5.096,14.571 0,5.105 1.658,9.834 4.44,13.686 5.56,1.699 12.871,2.077 19.982,0.379 -4.082,-0.886 -7.885,-2.861 -11.074,-5.871 -3.099,-2.912 -5.343,-6.556 -6.426,-10.171 -1.262,-2.741 -1.986,-6.058 -1.986,-10.041 M -7.866,8.85 C -9.128,8.592 -10.3,7.945 -11.193,6.863 -11.402,6.614 -11.551,6.327 -11.72,6.05 c -2.781,1.459 -6.009,2.174 -9.475,2.174 -3.248,0 -6.306,-0.626 -8.969,-1.908 0.18,0.178 0.347,0.37 0.526,0.547 4.253,3.992 9.695,6.019 15.365,5.691 2.246,-0.963 4.4,-2.215 6.407,-3.704 m -13.329,15.097 c 11.183,0 20.529,-7.857 22.883,-18.324 -1.142,1.698 -3.019,2.98 -4.827,2.98 L -3.646,8.542 c -9.534,8.889 -23.489,10.795 -33.809,8.819 4.223,4.072 9.954,6.586 16.26,6.586 M 2.244,1.212 2.254,1.074 2.165,1.212 Z m 2.443,-2.096 c 0.031,0.447 0.07,0.895 0.07,1.351 0,14.312 -11.64,25.952 -25.952,25.952 -14.313,0 -25.952,-11.64 -25.952,-25.952 0,-7.658 3.345,-14.53 8.639,-19.279 3.379,-10.11 12.914,-17.459 17.313,-17.459 4.41,0 13.934,7.349 17.322,17.459 2.095,1.878 3.863,4.113 5.264,6.576 0.327,0.248 0.595,0.516 0.783,0.844 l 0.607,1.063 -0.318,0.159 0.01,0.009 0.705,0.408 c 1.519,0.884 2.414,3.188 2.612,4.966 0.179,1.668 -0.208,3.049 -1.103,3.903"
                 style="fill:#010101;fill-opacity:1;fill-rule:nonzero;stroke:none"
                 id="path39412"
                 inkscape:connector-curvature="0" />
            </g>
          </g>
        </g>
      </g>
    </g>
  </g>
</svg>
