<?xml version="1.0" encoding="UTF-8" standalone="no"?>
<!-- Created with Inkscape (http://www.inkscape.org/) -->

<svg
   xmlns:dc="http://purl.org/dc/elements/1.1/"
   xmlns:cc="http://creativecommons.org/ns#"
   xmlns:rdf="http://www.w3.org/1999/02/22-rdf-syntax-ns#"
   xmlns:svg="http://www.w3.org/2000/svg"
   xmlns="http://www.w3.org/2000/svg"
   xmlns:sodipodi="http://sodipodi.sourceforge.net/DTD/sodipodi-0.dtd"
   xmlns:inkscape="http://www.inkscape.org/namespaces/inkscape"
   width="35"
   height="35.012119"
   viewBox="0 0 9.2604165 9.2636235"
   version="1.1"
   id="svg35798"
   inkscape:version="0.92.2 (5c3e80d, 2017-08-06)"
   sodipodi:docname="pets.svg">
  <defs
     id="defs35792" />
  <sodipodi:namedview
     id="base"
     pagecolor="#ffffff"
     bordercolor="#666666"
     borderopacity="1.0"
     inkscape:pageopacity="0.0"
     inkscape:pageshadow="2"
     inkscape:zoom="5.6"
     inkscape:cx="12.430808"
     inkscape:cy="17.129268"
     inkscape:document-units="px"
     inkscape:current-layer="layer1"
     showgrid="false"
     units="px"
     fit-margin-top="0"
     fit-margin-left="0"
     fit-margin-right="0"
     fit-margin-bottom="0" />
  <metadata
     id="metadata35795">
    <rdf:RDF>
      <cc:Work
         rdf:about="">
        <dc:format>image/svg+xml</dc:format>
        <dc:type
           rdf:resource="http://purl.org/dc/dcmitype/StillImage" />
        <dc:title></dc:title>
      </cc:Work>
    </rdf:RDF>
  </metadata>
  <g
     inkscape:label="Layer 1"
     inkscape:groupmode="layer"
     id="layer1"
     transform="translate(3.3279125,-86.207059)">
    <g
       transform="matrix(0.27340969,0,0,0.27340969,4.3821592,69.887085)"
       id="g35777">
      <g
         style="fill:#010101;fill-opacity:1"
         transform="matrix(0.35277777,0,0,-0.35277777,5.3176318,76.629409)"
         id="g39540">
        <path
           inkscape:connector-curvature="0"
           id="path39542"
           d="m -95.009766,-48.027344 1.033204,1.554688 c 9.369319,14.095213 4.125186,30.081655 0.933593,41.3867185 -1.862785,6.6191169 -1.717863,13.6613831 0.44336,20.1914065 v 0.002 c 6.33383,19.115891 24.350077,32.908203 45.576171,32.908203 C -20.511112,48.015625 1,26.505522 1,0 1,-26.514335 -20.511035,-48.027344 -47.023438,-48.027344 Z m 3.529297,2 h 44.457031 C -21.59184,-46.027344 -1,-25.433665 -1,0 c 0,25.424478 -20.591763,46.015625 -46.023438,46.015625 -20.359267,0 -37.609054,-13.223894 -43.677734,-31.537109 v -0.002 C -92.735177,8.3297008 -92.873635,1.692765 -91.119141,-4.5429688 v -0.00195 c 3.060255,-10.8395712 8.238866,-26.9169832 -0.361328,-41.4824222 z"
           style="color:#000000;font-style:normal;font-variant:normal;font-weight:normal;font-stretch:normal;font-size:medium;line-height:normal;font-family:sans-serif;font-variant-ligatures:normal;font-variant-position:normal;font-variant-caps:normal;font-variant-numeric:normal;font-variant-alternates:normal;font-feature-settings:normal;text-indent:0;text-align:start;text-decoration:none;text-decoration-line:none;text-decoration-style:solid;text-decoration-color:#000000;letter-spacing:normal;word-spacing:normal;text-transform:none;writing-mode:lr-tb;direction:ltr;text-orientation:mixed;dominant-baseline:auto;baseline-shift:baseline;text-anchor:start;white-space:normal;shape-padding:0;clip-rule:nonzero;display:inline;overflow:visible;visibility:visible;opacity:1;isolation:auto;mix-blend-mode:normal;color-interpolation:sRGB;color-interpolation-filters:linearRGB;solid-color:#000000;solid-opacity:1;vector-effect:none;fill:#010101;fill-opacity:1;fill-rule:nonzero;stroke:none;stroke-width:2;stroke-linecap:butt;stroke-linejoin:miter;stroke-miterlimit:10;stroke-dasharray:none;stroke-dashoffset:0;stroke-opacity:1;color-rendering:auto;image-rendering:auto;shape-rendering:auto;text-rendering:auto;enable-background:accumulate" />
      </g>
      <g
         style="fill:#010101;fill-opacity:1"
         transform="matrix(0.35277777,0,0,-0.35277777,-9.9400223,72.445148)"
         id="g39544">
        <path
           inkscape:connector-curvature="0"
           id="path39546"
           style="fill:#010101;fill-opacity:1;fill-rule:nonzero;stroke:none"
           d="M 0,0 C 0.324,0.059 0.646,0.145 0.957,0.257 4.162,1.41 6,5.137 5.324,9.118 4.584,13.493 0.989,16.522 -2.687,15.869 -3.012,15.813 -3.334,15.726 -3.643,15.614 -6.85,14.46 -8.686,10.734 -8.012,6.751 -7.271,2.376 -3.678,-0.652 0,0 M 17.355,4.383 C 16.107,5.667 14.421,6.326 12.729,6.195 12.226,6.157 11.729,6.05 11.253,5.879 8.539,4.901 6.789,1.976 6.996,-1.235 c 0.25,-3.837 3.229,-6.741 6.637,-6.477 0.501,0.039 0.999,0.146 1.473,0.316 2.716,0.977 4.466,3.904 4.259,7.117 -0.117,1.795 -0.83,3.451 -2.01,4.662 m -31.324,-9.496 c 0.311,0.112 0.615,0.251 0.901,0.412 1.629,0.922 2.736,2.607 3.038,4.623 0.283,1.876 -0.132,3.895 -1.163,5.685 -2.019,3.498 -5.809,5.201 -9.014,4.048 -0.311,-0.113 -0.613,-0.251 -0.9,-0.414 -1.629,-0.922 -2.737,-2.607 -3.04,-4.623 -0.281,-1.876 0.133,-3.894 1.166,-5.683 2.016,-3.5 5.807,-5.203 9.012,-4.048 m -4.693,-14.22 c 2.796,1.97 3.239,6.104 0.988,9.221 -1.885,2.608 -5.097,3.748 -7.814,2.771 -0.477,-0.172 -0.925,-0.404 -1.338,-0.696 -2.795,-1.97 -3.24,-6.106 -0.988,-9.219 1.883,-2.608 5.098,-3.749 7.814,-2.771 0.475,0.172 0.926,0.405 1.338,0.694 m 38.719,4.33 c 1.605,-1.77 2.321,-3.944 2.066,-6.283 -0.291,-2.677 -2.317,-4.824 -5.704,-6.043 l -0.001,-10e-4 c -3.448,-1.24 -7.588,-1.318 -9.98,-0.87 -2.399,0.453 -3.335,0.35 -3.56,0.309 -0.128,-0.063 -0.263,-0.111 -0.403,-0.145 -0.17,-0.096 -0.957,-0.601 -2.54,-2.503 -1.554,-1.869 -4.797,-4.448 -8.245,-5.688 -3.388,-1.219 -6.317,-0.855 -8.247,1.023 -1.686,1.642 -2.52,3.772 -2.411,6.161 0.15,3.206 1.969,6.108 3.707,7.564 1.496,1.256 1.696,3.313 2.006,7.845 0.055,0.78 0.111,1.616 0.183,2.511 0.496,6.278 4.839,8.313 6.159,8.789 0.131,0.047 0.245,0.084 0.332,0.111 0.084,0.035 0.196,0.079 0.329,0.126 1.318,0.475 5.964,1.672 10.346,-2.848 0.626,-0.646 1.202,-1.253 1.741,-1.821 3.126,-3.296 4.591,-4.754 6.545,-4.768 2.266,-0.015 5.519,-1.092 7.677,-3.469" />
      </g>
    </g>
  </g>
</svg>
