<?xml version="1.0" encoding="UTF-8" standalone="no"?>
<!-- Created with Inkscape (http://www.inkscape.org/) -->

<svg
   xmlns:dc="http://purl.org/dc/elements/1.1/"
   xmlns:cc="http://creativecommons.org/ns#"
   xmlns:rdf="http://www.w3.org/1999/02/22-rdf-syntax-ns#"
   xmlns:svg="http://www.w3.org/2000/svg"
   xmlns="http://www.w3.org/2000/svg"
   xmlns:sodipodi="http://sodipodi.sourceforge.net/DTD/sodipodi-0.dtd"
   xmlns:inkscape="http://www.inkscape.org/namespaces/inkscape"
   width="35"
   height="35.012119"
   viewBox="0 0 9.260417 9.2636232"
   version="1.1"
   id="svg19488"
   inkscape:version="0.92.2 (5c3e80d, 2017-08-06)"
   sodipodi:docname="plumbing.svg">
  <defs
     id="defs19482" />
  <sodipodi:namedview
     id="base"
     pagecolor="#ffffff"
     bordercolor="#666666"
     borderopacity="1.0"
     inkscape:pageopacity="0.0"
     inkscape:pageshadow="2"
     inkscape:zoom="0.35"
     inkscape:cx="458.29225"
     inkscape:cy="318.3144"
     inkscape:document-units="px"
     inkscape:current-layer="layer1"
     showgrid="false"
     fit-margin-top="0"
     fit-margin-left="0"
     fit-margin-right="0"
     fit-margin-bottom="0"
     units="px" />
  <metadata
     id="metadata19485">
    <rdf:RDF>
      <cc:Work
         rdf:about="">
        <dc:format>image/svg+xml</dc:format>
        <dc:type
           rdf:resource="http://purl.org/dc/dcmitype/StillImage" />
        <dc:title></dc:title>
      </cc:Work>
    </rdf:RDF>
  </metadata>
  <g
     inkscape:label="Layer 1"
     inkscape:groupmode="layer"
     id="layer1"
     transform="translate(151.49459,-223.79039)">
    <g
       id="g20049"
       transform="matrix(0.27340969,0,0,0.27340969,-110.0745,169.33479)">
      <g
         style="fill:#010101;fill-opacity:1"
         transform="matrix(0.35277777,0,0,-0.35277777,-117.97725,216.11104)"
         id="g38430">
        <path
           inkscape:connector-curvature="0"
           id="path38432"
           d="m -95.009766,-48.027344 1.033204,1.554688 c 9.369319,14.095213 4.125186,30.081655 0.933593,41.3867185 -1.862785,6.6191169 -1.717863,13.6613831 0.44336,20.1914065 v 0.002 c 6.33383,19.115891 24.350077,32.908203 45.576171,32.908203 C -20.511112,48.015625 1,26.505522 1,0 1,-26.514335 -20.511035,-48.027344 -47.023438,-48.027344 Z m 3.529297,2 h 44.457031 C -21.59184,-46.027344 -1,-25.433665 -1,0 c 0,25.424478 -20.591763,46.015625 -46.023438,46.015625 -20.359267,0 -37.609054,-13.223894 -43.677734,-31.537109 v -0.002 C -92.735177,8.3297008 -92.873635,1.692765 -91.119141,-4.5429688 v -0.00195 c 3.060255,-10.8395712 8.238866,-26.9169832 -0.361328,-41.4824222 z"
           style="color:#000000;font-style:normal;font-variant:normal;font-weight:normal;font-stretch:normal;font-size:medium;line-height:normal;font-family:sans-serif;font-variant-ligatures:normal;font-variant-position:normal;font-variant-caps:normal;font-variant-numeric:normal;font-variant-alternates:normal;font-feature-settings:normal;text-indent:0;text-align:start;text-decoration:none;text-decoration-line:none;text-decoration-style:solid;text-decoration-color:#000000;letter-spacing:normal;word-spacing:normal;text-transform:none;writing-mode:lr-tb;direction:ltr;text-orientation:mixed;dominant-baseline:auto;baseline-shift:baseline;text-anchor:start;white-space:normal;shape-padding:0;clip-rule:nonzero;display:inline;overflow:visible;visibility:visible;opacity:1;isolation:auto;mix-blend-mode:normal;color-interpolation:sRGB;color-interpolation-filters:linearRGB;solid-color:#000000;solid-opacity:1;vector-effect:none;fill:#010101;fill-opacity:1;fill-rule:nonzero;stroke:none;stroke-width:2;stroke-linecap:butt;stroke-linejoin:miter;stroke-miterlimit:10;stroke-dasharray:none;stroke-dashoffset:0;stroke-opacity:1;color-rendering:auto;image-rendering:auto;shape-rendering:auto;text-rendering:auto;enable-background:accumulate" />
      </g>
      <g
         style="fill:#010101;fill-opacity:1"
         transform="matrix(0.35277777,0,0,-0.35277777,-127.1905,224.33361)"
         id="g38434">
        <path
           inkscape:connector-curvature="0"
           id="path38436"
           style="fill:#010101;fill-opacity:1;fill-rule:nonzero;stroke:none"
           d="M 0,0 C -0.024,0.121 -0.059,0.237 -0.104,0.35 L -3.08,9.83 c -0.262,0.836 -1.036,1.402 -1.911,1.402 -0.874,0 -1.648,-0.566 -1.908,-1.402 L -9.921,0.207 C -9.937,0.159 -9.95,0.111 -9.96,0.063 c -0.161,-0.509 -0.242,-1.03 -0.242,-1.556 0,-2.875 2.34,-5.212 5.211,-5.212 2.875,0 5.211,2.337 5.211,5.212 C 0.22,-0.989 0.146,-0.488 0,0 m 2.081,19.225 v -3.401 c 0,-1.108 -0.895,-2.003 -2,-2.003 h -9.885 c -1.106,0 -2.002,0.895 -2.002,2.003 v 3.401 c 0,0.97 0.688,1.777 1.604,1.961 v 3.83 c 0,0.685 -0.556,1.239 -1.239,1.239 h -0.407 c -1.841,-3.314 -5.315,-5.389 -9.189,-5.389 -3.875,0 -7.346,2.075 -9.188,5.389 h -15.202 c -1.105,0 -2.002,0.897 -2.002,2.003 v 6.61 c 0,1.107 0.897,2.002 2.002,2.002 h 15.407 c 1.267,2.075 3.209,3.626 5.459,4.429 v 2.487 c 0,0.136 0.015,0.271 0.04,0.4 h -5.373 c -1.105,0 -2.002,0.896 -2.002,2.002 v 2.868 c 0,1.105 0.897,2.002 2.002,2.002 h 5.333 v 0.249 c 0,1.105 0.897,2.002 2.002,2.002 h 3.044 c 1.106,0 2.002,-0.897 2.002,-2.002 v -0.249 h 5.333 c 1.107,0 2.002,-0.897 2.002,-2.002 v -2.868 c 0,-1.106 -0.895,-2.002 -2.002,-2.002 h -5.374 c 0.027,-0.129 0.041,-0.264 0.041,-0.4 v -2.487 c 2.251,-0.803 4.192,-2.354 5.459,-4.429 H -8.2 c 4.714,0 8.549,-3.834 8.549,-8.549 v -7.114 c 0.978,-0.133 1.732,-0.968 1.732,-1.982" />
      </g>
    </g>
  </g>
</svg>
