<?xml version="1.0" encoding="UTF-8" standalone="no"?>
<!-- Created with Inkscape (http://www.inkscape.org/) -->

<svg
   xmlns:dc="http://purl.org/dc/elements/1.1/"
   xmlns:cc="http://creativecommons.org/ns#"
   xmlns:rdf="http://www.w3.org/1999/02/22-rdf-syntax-ns#"
   xmlns:svg="http://www.w3.org/2000/svg"
   xmlns="http://www.w3.org/2000/svg"
   xmlns:sodipodi="http://sodipodi.sourceforge.net/DTD/sodipodi-0.dtd"
   xmlns:inkscape="http://www.inkscape.org/namespaces/inkscape"
   width="35"
   height="34.8904"
   viewBox="0 0 9.260417 9.2314186"
   version="1.1"
   id="svg5539"
   inkscape:version="0.92.2 (5c3e80d, 2017-08-06)"
   sodipodi:docname="promotions.svg">
  <defs
     id="defs5533" />
  <sodipodi:namedview
     id="base"
     pagecolor="#ffffff"
     bordercolor="#666666"
     borderopacity="1.0"
     inkscape:pageopacity="0.0"
     inkscape:pageshadow="2"
     inkscape:zoom="2.8"
     inkscape:cx="36.271848"
     inkscape:cy="-3.4948085"
     inkscape:document-units="mm"
     inkscape:current-layer="layer1"
     showgrid="false"
     fit-margin-top="0"
     fit-margin-left="0"
     fit-margin-right="0"
     fit-margin-bottom="0"
     units="px" />
  <metadata
     id="metadata5536">
    <rdf:RDF>
      <cc:Work
         rdf:about="">
        <dc:format>image/svg+xml</dc:format>
        <dc:type
           rdf:resource="http://purl.org/dc/dcmitype/StillImage" />
        <dc:title></dc:title>
      </cc:Work>
    </rdf:RDF>
  </metadata>
  <g
     inkscape:label="Layer 1"
     inkscape:groupmode="layer"
     id="layer1"
     transform="translate(-61.761261,-106.52826)">
    <g
       transform="matrix(0.37576538,0,0,0.37576538,38.850709,213.03859)"
       id="g51512"
       style="stroke:#000000;stroke-opacity:1">
      <g
         id="g2245">
        <g
           style="stroke:#000000;stroke-opacity:1"
           id="g44804"
           transform="matrix(0.35277777,0,0,-0.35277777,85.261731,-271.16657)">
          <path
             style="color:#000000;font-style:normal;font-variant:normal;font-weight:normal;font-stretch:normal;font-size:medium;line-height:normal;font-family:sans-serif;font-variant-ligatures:normal;font-variant-position:normal;font-variant-caps:normal;font-variant-numeric:normal;font-variant-alternates:normal;font-feature-settings:normal;text-indent:0;text-align:start;text-decoration:none;text-decoration-line:none;text-decoration-style:solid;text-decoration-color:#000000;letter-spacing:normal;word-spacing:normal;text-transform:none;writing-mode:lr-tb;direction:ltr;text-orientation:mixed;dominant-baseline:auto;baseline-shift:baseline;text-anchor:start;white-space:normal;shape-padding:0;clip-rule:nonzero;display:inline;overflow:visible;visibility:visible;opacity:1;isolation:auto;mix-blend-mode:normal;color-interpolation:sRGB;color-interpolation-filters:linearRGB;solid-color:#000000;solid-opacity:1;vector-effect:none;fill:#000000;fill-opacity:1;fill-rule:nonzero;stroke:none;stroke-width:2;stroke-linecap:butt;stroke-linejoin:miter;stroke-miterlimit:10;stroke-dasharray:none;stroke-dashoffset:0;stroke-opacity:1;color-rendering:auto;image-rendering:auto;shape-rendering:auto;text-rendering:auto;enable-background:accumulate"
             d="m -68.857422,-34.822266 1.03125,1.554688 c 6.65848,10.018396 2.936258,21.392497 0.634766,29.5351561 v 0.00195 c -1.352505,4.8154992 -1.249759,9.934701 0.320312,14.6855469 4.595831,13.861637 17.659825,23.861328 33.048828,23.861328 C -14.601973,34.816406 1,19.217487 1,0 1,-19.221371 -14.601902,-34.822266 -33.822266,-34.822266 Z m 3.527344,2 h 31.507812 C -15.68263,-32.822266 -1,-18.140629 -1,0 c 0,18.136513 -14.682558,32.816406 -32.822266,32.816406 -14.522089,0 -26.817543,-9.429187 -31.148437,-22.488281 -1.443929,-4.3691541 -1.540417,-9.0850304 -0.294922,-13.5195312 l -0.002,0.00195 c 2.171497,-7.6827368 5.84766,-19.1504398 -0.0625,-29.6328128 z"
             id="path44806"
             inkscape:connector-curvature="0" />
        </g>
        <g
           id="text44810"
           style="font-variant:normal;font-weight:normal;font-stretch:normal;font-size:10.61734772px;font-family:'Myriad Pro';-inkscape-font-specification:MyriadPro-Regular;writing-mode:lr-tb;fill:#000000;fill-opacity:1;fill-rule:nonzero;stroke:none;stroke-width:0.35277775;stroke-opacity:1"
           transform="rotate(41.072365)"
           aria-label="$">
          <path
             id="path2213"
             style="fill:#000000;fill-opacity:1;stroke:none;stroke-width:0.35277775;stroke-opacity:1"
             d="m -122.43903,-246.55921 v -1.10421 c 1.09359,-0.18049 1.67755,-0.96618 1.67755,-1.81556 0,-0.94495 -0.55211,-1.48643 -1.64569,-1.93236 -0.92371,-0.39284 -1.31655,-0.66889 -1.31655,-1.21038 0,-0.43531 0.3079,-0.92371 1.12543,-0.92371 0.67951,0 1.11483,0.2442 1.33779,0.37161 l 0.26543,-0.70075 c -0.3079,-0.18049 -0.74321,-0.35037 -1.38025,-0.3716 v -1.02989 h -0.66889 v 1.06174 c -0.96618,0.15926 -1.59261,0.82815 -1.59261,1.70939 0,0.92371 0.6689,1.42273 1.75187,1.84742 0.78568,0.31852 1.19976,0.67951 1.19976,1.26346 0,0.60519 -0.50964,1.0405 -1.27409,1.0405 -0.58395,0 -1.13605,-0.20172 -1.50766,-0.45654 l -0.25482,0.71136 c 0.37161,0.26543 0.99804,0.45655 1.61384,0.46716 v 1.07236 z"
             inkscape:connector-curvature="0" />
        </g>
        <path
           inkscape:connector-curvature="0"
           id="path44822"
           style="fill:#000000;fill-opacity:1;fill-rule:nonzero;stroke:none;stroke-width:0.35277778;stroke-opacity:1"
           d="m 77.32596,-274.1328 c 0,0.43956 -0.357717,0.79551 -0.797278,0.79551 -0.439561,0 -0.795866,-0.35595 -0.795866,-0.79551 0,-0.43991 0.356305,-0.79587 0.795866,-0.79587 0.123825,0 0.23742,0.0303 0.341842,0.0787 l -0.52952,0.52952 c -0.103011,0.10266 -0.103011,0.27094 0,0.37536 0.05221,0.0522 0.121003,0.0773 0.187678,0.0773 0.06914,0 0.137231,-0.025 0.189089,-0.0773 l 0.528108,-0.52811 c 0.04833,0.10301 0.08008,0.21661 0.08008,0.34043 m 1.592792,3.68229 -7.41292,7.6126 c -0.158397,0.15839 -0.415572,0.15839 -0.572911,0 l -5.433483,-5.43278 c -0.157692,-0.15875 -0.157692,-0.41557 0.0011,-0.57397 l 7.615061,-7.67645 h 5.427486 l -1.2827,1.28235 c -0.210608,-0.13935 -0.461433,-0.2219 -0.731661,-0.2219 -0.73025,0 -1.326444,0.59479 -1.326444,1.32786 0,0.73131 0.596194,1.3275 1.326444,1.3275 0.732367,0 1.327856,-0.59619 1.327856,-1.3275 0,-0.27023 -0.08149,-0.52105 -0.220486,-0.73166 l 1.2827,-1.28235 z m 1.514122,-7.58578 c -0.103011,-0.10407 -0.270228,-0.10407 -0.37465,0 l -0.986014,0.98355 h -6.17855 l -7.768519,7.83378 c -0.178153,0.17674 -0.275167,0.41169 -0.275167,0.66146 0,0.25047 0.09701,0.48683 0.275167,0.66252 l 5.431366,5.43207 c 0.183798,0.18203 0.422628,0.27375 0.661459,0.27375 0.240947,0 0.481541,-0.0917 0.665691,-0.27622 l 7.565672,-7.76852 v -6.44349 l 0.983545,-0.98354 c 0.104069,-0.10407 0.104069,-0.27164 0,-0.37536" />
      </g>
    </g>
  </g>
</svg>
