<?xml version="1.0" encoding="UTF-8" standalone="no"?>
<!-- Created with Inkscape (http://www.inkscape.org/) -->

<svg
   xmlns:dc="http://purl.org/dc/elements/1.1/"
   xmlns:cc="http://creativecommons.org/ns#"
   xmlns:rdf="http://www.w3.org/1999/02/22-rdf-syntax-ns#"
   xmlns:svg="http://www.w3.org/2000/svg"
   xmlns="http://www.w3.org/2000/svg"
   xmlns:sodipodi="http://sodipodi.sourceforge.net/DTD/sodipodi-0.dtd"
   xmlns:inkscape="http://www.inkscape.org/namespaces/inkscape"
   width="35"
   height="35.012119"
   viewBox="0 0 9.260417 9.2636232"
   version="1.1"
   id="svg18276"
   inkscape:version="0.92.2 (5c3e80d, 2017-08-06)"
   sodipodi:docname="refrigeration.svg">
  <defs
     id="defs18270" />
  <sodipodi:namedview
     id="base"
     pagecolor="#ffffff"
     bordercolor="#666666"
     borderopacity="1.0"
     inkscape:pageopacity="0.0"
     inkscape:pageshadow="2"
     inkscape:zoom="0.35"
     inkscape:cx="-284.56492"
     inkscape:cy="-33.114206"
     inkscape:document-units="px"
     inkscape:current-layer="layer1"
     showgrid="false"
     fit-margin-top="0"
     fit-margin-left="0"
     fit-margin-right="0"
     fit-margin-bottom="0"
     units="px" />
  <metadata
     id="metadata18273">
    <rdf:RDF>
      <cc:Work
         rdf:about="">
        <dc:format>image/svg+xml</dc:format>
        <dc:type
           rdf:resource="http://purl.org/dc/dcmitype/StillImage" />
        <dc:title></dc:title>
      </cc:Work>
    </rdf:RDF>
  </metadata>
  <g
     inkscape:label="Layer 1"
     inkscape:groupmode="layer"
     id="layer1"
     transform="translate(-45.05304,-130.80824)">
    <g
       id="g18837"
       transform="matrix(0.27340969,0,0,0.27340969,32.735102,101.77486)">
      <g
         style="fill:#010101;fill-opacity:1"
         transform="matrix(0.35277777,0,0,-0.35277777,78.570373,123.12889)"
         id="g38410">
        <path
           inkscape:connector-curvature="0"
           id="path38412"
           d="m -95.009766,-48.027344 1.033204,1.554688 c 9.368359,14.095228 4.125171,30.081708 0.933593,41.3867185 -1.862785,6.6191169 -1.717863,13.6613831 0.44336,20.1914065 v 0.002 c 6.33383,19.115891 24.350077,32.908203 45.576171,32.908203 C -20.511112,48.015625 1,26.505522 1,0 1,-26.514335 -20.511035,-48.027344 -47.023438,-48.027344 Z m 3.529297,2 h 44.457031 C -21.59184,-46.027344 -1,-25.433665 -1,0 c 0,25.424478 -20.591763,46.015625 -46.023438,46.015625 -20.359267,0 -37.609054,-13.223894 -43.677734,-31.537109 v -0.002 C -92.735177,8.3297008 -92.873635,1.692765 -91.119141,-4.5429688 v -0.00195 c 3.060269,-10.8396222 8.237995,-26.9170012 -0.361328,-41.4824222 z"
           style="color:#000000;font-style:normal;font-variant:normal;font-weight:normal;font-stretch:normal;font-size:medium;line-height:normal;font-family:sans-serif;font-variant-ligatures:normal;font-variant-position:normal;font-variant-caps:normal;font-variant-numeric:normal;font-variant-alternates:normal;font-feature-settings:normal;text-indent:0;text-align:start;text-decoration:none;text-decoration-line:none;text-decoration-style:solid;text-decoration-color:#000000;letter-spacing:normal;word-spacing:normal;text-transform:none;writing-mode:lr-tb;direction:ltr;text-orientation:mixed;dominant-baseline:auto;baseline-shift:baseline;text-anchor:start;white-space:normal;shape-padding:0;clip-rule:nonzero;display:inline;overflow:visible;visibility:visible;opacity:1;isolation:auto;mix-blend-mode:normal;color-interpolation:sRGB;color-interpolation-filters:linearRGB;solid-color:#000000;solid-opacity:1;vector-effect:none;fill:#010101;fill-opacity:1;fill-rule:nonzero;stroke:none;stroke-width:2;stroke-linecap:butt;stroke-linejoin:miter;stroke-miterlimit:10;stroke-dasharray:none;stroke-dashoffset:0;stroke-opacity:1;color-rendering:auto;image-rendering:auto;shape-rendering:auto;text-rendering:auto;enable-background:accumulate" />
      </g>
      <g
         style="fill:#010101;fill-opacity:1"
         transform="matrix(0.35277777,0,0,-0.35277777,60.265864,128.62108)"
         id="g38414">
        <path
           inkscape:connector-curvature="0"
           id="path38416"
           style="fill:#010101;fill-opacity:1;fill-rule:nonzero;stroke:none"
           d="M 0,0 C -0.21,0.923 -1.137,1.53 -2.084,1.313 -5.385,0.566 -7.69,-2.32 -7.69,-5.708 c 0,-0.959 0.781,-1.739 1.739,-1.739 0.96,0 1.741,0.78 1.741,1.739 0,1.721 1.216,3.248 2.895,3.627 C -0.382,-1.866 0.209,-0.934 0,0 m 8.277,-5.805 c 0,-4.802 -3.907,-8.709 -8.71,-8.709 -4.802,0 -8.709,3.907 -8.709,8.709 0,3.936 2.658,7.393 6.467,8.405 l 0.5,0.133 V 19.368 H 1.31 V 2.734 L 1.809,2.6 c 3.81,-1.012 6.468,-4.47 6.468,-8.405 m 2.247,0 c 0,4.14 -2.3,7.882 -6.005,9.763 L 3.781,4.333 v 32.581 c 0,2.324 -1.89,4.213 -4.214,4.213 -2.324,0 -4.213,-1.889 -4.213,-4.213 V 4.333 L -5.385,3.958 c -3.704,-1.882 -6.005,-5.624 -6.005,-9.763 0,-6.042 4.915,-10.957 10.957,-10.957 6.041,0 10.957,4.915 10.957,10.957 m 2.697,0 c 0,-7.529 -6.125,-13.654 -13.654,-13.654 -7.529,0 -13.654,6.125 -13.654,13.654 0,4.879 2.563,9.313 6.743,11.766 v 30.953 c 0,3.812 3.1,6.912 6.911,6.912 3.811,0 6.91,-3.1 6.91,-6.912 V 5.961 C 10.658,3.51 13.221,-0.925 13.221,-5.805 M 11.591,9.563 H 22.043 V 12.26 H 11.591 Z m 6.067,8.575 h -6.067 v -2.697 h 6.067 z m -6.067,3.183 h 10.452 v 2.697 H 11.591 Z m 6.067,8.575 h -6.067 v -2.698 h 6.067 z m 4.385,3.181 H 11.591 v 2.698 h 10.452 z" />
      </g>
    </g>
  </g>
</svg>
