<?xml version="1.0" encoding="UTF-8" standalone="no"?>
<!-- Created with Inkscape (http://www.inkscape.org/) -->

<svg
   xmlns:dc="http://purl.org/dc/elements/1.1/"
   xmlns:cc="http://creativecommons.org/ns#"
   xmlns:rdf="http://www.w3.org/1999/02/22-rdf-syntax-ns#"
   xmlns:svg="http://www.w3.org/2000/svg"
   xmlns="http://www.w3.org/2000/svg"
   xmlns:sodipodi="http://sodipodi.sourceforge.net/DTD/sodipodi-0.dtd"
   xmlns:inkscape="http://www.inkscape.org/namespaces/inkscape"
   width="35"
   height="35.012119"
   viewBox="0 0 9.2604165 9.2636235"
   version="1.1"
   id="svg22992"
   inkscape:version="0.92.2 (5c3e80d, 2017-08-06)"
   sodipodi:docname="roofer.svg">
  <defs
     id="defs22986">
    <clipPath
       clipPathUnits="userSpaceOnUse"
       id="clipPath38508">
      <path
         d="M 0,4152 H 5560 V 0 H 0 Z"
         id="path38506"
         inkscape:connector-curvature="0" />
    </clipPath>
    <clipPath
       clipPathUnits="userSpaceOnUse"
       id="clipPath38520">
      <path
         d="m 4570.802,2205.443 h 66.045 v 55.036 h -66.045 z"
         id="path38518"
         inkscape:connector-curvature="0" />
    </clipPath>
  </defs>
  <sodipodi:namedview
     id="base"
     pagecolor="#ffffff"
     bordercolor="#666666"
     borderopacity="1.0"
     inkscape:pageopacity="0.0"
     inkscape:pageshadow="2"
     inkscape:zoom="5.6"
     inkscape:cx="-10.964226"
     inkscape:cy="6.1397682"
     inkscape:document-units="px"
     inkscape:current-layer="layer1"
     showgrid="false"
     units="px"
     fit-margin-top="0"
     fit-margin-left="0"
     fit-margin-right="0"
     fit-margin-bottom="0" />
  <metadata
     id="metadata22989">
    <rdf:RDF>
      <cc:Work
         rdf:about="">
        <dc:format>image/svg+xml</dc:format>
        <dc:type
           rdf:resource="http://purl.org/dc/dcmitype/StillImage" />
        <dc:title></dc:title>
      </cc:Work>
    </rdf:RDF>
  </metadata>
  <g
     inkscape:label="Layer 1"
     inkscape:groupmode="layer"
     id="layer1"
     transform="translate(-86.630419,-108.88563)">
    <g
       transform="matrix(0.27340969,0,0,0.27340969,109.1997,58.731468)"
       id="g3059"
       style="fill:#010101;fill-opacity:1">
      <g
         id="g38502"
         transform="matrix(0.35277777,0,0,-0.35277777,-1689.8433,989.01471)"
         style="fill:#010101;fill-opacity:1">
        <g
           clip-path="url(#clipPath38508)"
           id="g38504"
           style="fill:#010101;fill-opacity:1">
          <g
             transform="translate(4651.124,2235.5044)"
             id="g38510"
             style="fill:#010101;fill-opacity:1">
            <path
               inkscape:connector-curvature="0"
               id="path38512"
               d="m -95.009766,-48.027344 1.033204,1.554688 c 9.369319,14.095213 4.125186,30.081655 0.933593,41.3867185 -1.862785,6.6191169 -1.717863,13.6613831 0.44336,20.1914065 v 0.002 c 6.33383,19.115891 24.350077,32.908203 45.576171,32.908203 C -20.511112,48.015625 1,26.505522 1,0 1,-26.514335 -20.511035,-48.027344 -47.023438,-48.027344 Z m 3.529297,2 h 44.457031 C -21.59184,-46.027344 -1,-25.433665 -1,0 c 0,25.424478 -20.591763,46.015625 -46.023438,46.015625 -20.359267,0 -37.609054,-13.223894 -43.677734,-31.537109 v -0.002 C -92.735177,8.3297008 -92.873635,1.692765 -91.119141,-4.5429688 v -0.00195 c 3.060255,-10.8395712 8.238866,-26.9169832 -0.361328,-41.4824222 z"
               style="color:#000000;font-style:normal;font-variant:normal;font-weight:normal;font-stretch:normal;font-size:medium;line-height:normal;font-family:sans-serif;font-variant-ligatures:normal;font-variant-position:normal;font-variant-caps:normal;font-variant-numeric:normal;font-variant-alternates:normal;font-feature-settings:normal;text-indent:0;text-align:start;text-decoration:none;text-decoration-line:none;text-decoration-style:solid;text-decoration-color:#000000;letter-spacing:normal;word-spacing:normal;text-transform:none;writing-mode:lr-tb;direction:ltr;text-orientation:mixed;dominant-baseline:auto;baseline-shift:baseline;text-anchor:start;white-space:normal;shape-padding:0;clip-rule:nonzero;display:inline;overflow:visible;visibility:visible;opacity:1;isolation:auto;mix-blend-mode:normal;color-interpolation:sRGB;color-interpolation-filters:linearRGB;solid-color:#000000;solid-opacity:1;vector-effect:none;fill:#010101;fill-opacity:1;fill-rule:nonzero;stroke:none;stroke-width:2;stroke-linecap:butt;stroke-linejoin:miter;stroke-miterlimit:10;stroke-dasharray:none;stroke-dashoffset:0;stroke-opacity:1;color-rendering:auto;image-rendering:auto;shape-rendering:auto;text-rendering:auto;enable-background:accumulate" />
          </g>
        </g>
      </g>
      <g
         id="g38514"
         transform="matrix(0.35277777,0,0,-0.35277777,-1689.8433,989.01471)"
         style="fill:#010101;fill-opacity:1">
        <g
           clip-path="url(#clipPath38520)"
           id="g38516"
           style="fill:#010101;fill-opacity:1">
          <g
             transform="translate(4636.3311,2236.2529)"
             id="g38522"
             style="fill:#010101;fill-opacity:1">
            <path
               inkscape:connector-curvature="0"
               id="path38524"
               style="fill:#010101;fill-opacity:1;fill-rule:nonzero;stroke:none"
               d="m 0,0 c 0.924,1.309 0.581,3.136 -0.731,4.061 l -26.916,18.725 c -2.774,1.913 -6.945,1.913 -9.697,0 L -64.278,4.061 C -65.593,3.136 -65.937,1.309 -65.013,0 c 0.925,-1.314 2.731,-1.658 4.063,-0.733 l 26.918,18.725 c 0.75,0.537 2.299,0.537 3.053,0 L -4.063,-0.733 c 0.494,-0.345 1.096,-0.517 1.656,-0.517 0.924,0 1.848,0.431 2.407,1.25 m -32.506,-22.894 0.838,-5.853 c 0.107,-0.279 0.388,-0.494 0.71,-0.494 0.344,0 0.623,0.236 0.73,0.537 0,0 0.022,0.366 0,0.409 l -0.343,7.181 0.107,2.45 c 0.086,0.839 0.108,0.602 1.075,1.161 0.968,0.581 2.622,3.161 2.708,3.29 0.066,0.107 0.216,0.344 0.259,0.494 0.042,0.258 -0.129,0.494 -0.388,0.537 -0.193,0.043 -0.343,-0.064 -0.472,-0.193 -0.129,-0.124 -2.042,-2.666 -3.461,-2.924 -0.322,0.049 -0.666,0.215 -1.591,0.215 h -0.345 c -0.902,0 -1.246,-0.166 -1.566,-0.215 -1.443,0.258 -3.357,2.8 -3.485,2.924 -0.108,0.129 -0.28,0.236 -0.473,0.193 -0.259,-0.043 -0.431,-0.279 -0.368,-0.537 0.023,-0.15 0.174,-0.387 0.26,-0.494 0.066,-0.129 1.742,-2.709 2.71,-3.29 0.942,-0.559 0.966,-0.322 1.052,-1.161 l 0.106,-2.45 -0.342,-7.181 c 0,-0.064 0,-0.409 0.02,-0.409 0.106,-0.301 0.367,-0.537 0.711,-0.537 0.32,0 0.602,0.215 0.709,0.494 l 0.839,5.853 m 0,10.981 c -1.035,0 -1.871,-0.838 -1.871,-1.87 0,-1.032 0.836,-1.849 1.871,-1.849 1.031,0 1.87,0.817 1.87,1.849 0,1.032 -0.839,1.87 -1.87,1.87 m 15.457,0.58 0.195,6.622 3.718,-8.234 c 0.151,-0.366 0.58,-0.516 0.947,-0.366 0.343,0.151 0.537,0.56 0.365,0.925 0,0 -2.602,8.191 -3.357,9.718 -0.75,1.528 -1.889,2.453 -4.749,2.453 h -0.58 c -2.839,0 -3.999,-0.925 -4.729,-2.453 -0.753,-1.527 -3.376,-9.718 -3.376,-9.718 -0.151,-0.365 0.021,-0.774 0.386,-0.925 0.367,-0.15 0.775,0.022 0.947,0.366 l 3.72,8.234 0.193,-6.622 -0.581,-16.613 c -0.043,-0.672 0.452,-1.252 1.096,-1.295 h 0.086 c 0.623,0 1.162,0.473 1.205,1.118 l 1.354,12.856 1.355,-12.856 c 0.041,-0.645 0.558,-1.118 1.182,-1.118 h 0.086 c 0.667,0.043 1.161,0.623 1.118,1.295 z m -3.16,17.909 c -1.677,0 -3.054,-1.354 -3.054,-3.031 0,-1.672 1.377,-3.032 3.054,-3.032 1.677,0 3.031,1.36 3.031,3.032 0,1.677 -1.354,3.031 -3.031,3.031 m -24.272,-23.885 0.667,-11.223 c 0,-0.386 0.322,-0.709 0.709,-0.709 0.389,0 0.709,0.323 0.709,0.709 l 0.622,11.223 h 1.98 l -2.043,12.598 4.128,-8.234 c 0.15,-0.366 0.56,-0.537 0.925,-0.387 0.365,0.15 0.537,0.581 0.387,0.946 0,0 -3.032,8.191 -3.787,9.718 -0.729,1.528 -1.481,2.453 -4.319,2.453 h -0.58 c -2.838,0 -3.571,-0.925 -4.321,-2.453 -0.753,-1.527 -3.784,-9.718 -3.784,-9.718 -0.151,-0.365 0.021,-0.796 0.384,-0.946 0.368,-0.15 0.777,0.021 0.924,0.387 l 4.129,8.234 -2.043,-12.598 h 1.981 l 0.623,-11.223 c 0,-0.386 0.326,-0.709 0.709,-0.709 0.409,0 0.71,0.323 0.71,0.709 l 0.624,11.223 z m 2.73,20.832 c 0,-1.674 -1.354,-3.026 -3.028,-3.026 -1.702,0 -3.056,1.352 -3.056,3.026 0,1.699 1.354,3.053 3.056,3.053 1.674,0 3.028,-1.354 3.028,-3.053" />
          </g>
          <g
             transform="translate(4753.71,2240.7178)"
             id="g38526"
             style="fill:#010101;fill-opacity:1" />
        </g>
      </g>
    </g>
  </g>
</svg>
