<?xml version="1.0" encoding="UTF-8" standalone="no"?>
<!-- Created with Inkscape (http://www.inkscape.org/) -->

<svg
   xmlns:dc="http://purl.org/dc/elements/1.1/"
   xmlns:cc="http://creativecommons.org/ns#"
   xmlns:rdf="http://www.w3.org/1999/02/22-rdf-syntax-ns#"
   xmlns:svg="http://www.w3.org/2000/svg"
   xmlns="http://www.w3.org/2000/svg"
   xmlns:sodipodi="http://sodipodi.sourceforge.net/DTD/sodipodi-0.dtd"
   xmlns:inkscape="http://www.inkscape.org/namespaces/inkscape"
   width="35"
   height="35.012119"
   viewBox="0 0 9.2604165 9.2636235"
   version="1.1"
   id="svg32488"
   inkscape:version="0.92.2 (5c3e80d, 2017-08-06)"
   sodipodi:docname="shops-delivery.svg">
  <defs
     id="defs32482">
    <clipPath
       clipPathUnits="userSpaceOnUse"
       id="clipPath39618">
      <path
         d="m 4719.157,1986.542 h 62.824 v 34.695 h -62.824 z"
         id="path39616"
         inkscape:connector-curvature="0" />
    </clipPath>
  </defs>
  <sodipodi:namedview
     id="base"
     pagecolor="#ffffff"
     bordercolor="#666666"
     borderopacity="1.0"
     inkscape:pageopacity="0.0"
     inkscape:pageshadow="2"
     inkscape:zoom="3.959798"
     inkscape:cx="56.814242"
     inkscape:cy="-0.11691856"
     inkscape:document-units="px"
     inkscape:current-layer="layer1"
     showgrid="false"
     units="px"
     fit-margin-top="0"
     fit-margin-left="0"
     fit-margin-right="0"
     fit-margin-bottom="0" />
  <metadata
     id="metadata32485">
    <rdf:RDF>
      <cc:Work
         rdf:about="">
        <dc:format>image/svg+xml</dc:format>
        <dc:type
           rdf:resource="http://purl.org/dc/dcmitype/StillImage" />
        <dc:title></dc:title>
      </cc:Work>
    </rdf:RDF>
  </metadata>
  <g
     inkscape:label="Layer 1"
     inkscape:groupmode="layer"
     id="layer1"
     transform="translate(134.86363,-70.332055)">
    <g
       transform="matrix(0.27340969,0,0,0.27340969,-126.51729,-1.9609115)"
       id="g32463">
      <g
         style="fill:#010101;fill-opacity:1"
         transform="matrix(0.35277777,0,0,-0.35277777,2.9904627,281.35146)"
         id="g39608">
        <path
           inkscape:connector-curvature="0"
           id="path39610"
           d="m -95.009766,-48.027344 1.033204,1.554688 c 9.369302,14.095187 4.123252,30.080584 0.93164,41.3867185 v 0.00195 c -1.861783,6.6181852 -1.714827,13.6595901 0.445313,20.1894535 v 0.002 c 6.332823,19.115932 24.349098,32.908203 45.576171,32.908203 C -20.512091,48.015625 1,26.505548 1,0 1,-26.51534 -20.51204,-48.027344 -47.023438,-48.027344 Z m 3.529297,2 h 44.457031 C -21.592835,-46.027344 -1,-25.43466 -1,0 c 0,25.424452 -20.592784,46.015625 -46.023438,46.015625 -20.360287,0 -37.610046,-13.223936 -43.677734,-31.537109 v -0.002 C -92.734462,8.3288863 -92.873186,1.6921889 -91.119141,-4.5430148 -88.058977,-15.3835 -82.879892,-31.461191 -91.480469,-46.02739 Z"
           style="color:#000000;font-style:normal;font-variant:normal;font-weight:normal;font-stretch:normal;font-size:medium;line-height:normal;font-family:sans-serif;font-variant-ligatures:normal;font-variant-position:normal;font-variant-caps:normal;font-variant-numeric:normal;font-variant-alternates:normal;font-feature-settings:normal;text-indent:0;text-align:start;text-decoration:none;text-decoration-line:none;text-decoration-style:solid;text-decoration-color:#000000;letter-spacing:normal;word-spacing:normal;text-transform:none;writing-mode:lr-tb;direction:ltr;text-orientation:mixed;dominant-baseline:auto;baseline-shift:baseline;text-anchor:start;white-space:normal;shape-padding:0;clip-rule:nonzero;display:inline;overflow:visible;visibility:visible;opacity:1;isolation:auto;mix-blend-mode:normal;color-interpolation:sRGB;color-interpolation-filters:linearRGB;solid-color:#000000;solid-opacity:1;vector-effect:none;fill:#010101;fill-opacity:1;fill-rule:nonzero;stroke:none;stroke-width:2;stroke-linecap:butt;stroke-linejoin:miter;stroke-miterlimit:10;stroke-dasharray:none;stroke-dashoffset:0;stroke-opacity:1;color-rendering:auto;image-rendering:auto;shape-rendering:auto;text-rendering:auto;enable-background:accumulate" />
      </g>
      <g
         style="fill:#010101;fill-opacity:1"
         id="g39612"
         transform="matrix(0.35277777,0,0,-0.35277777,-1689.8433,989.01471)">
        <g
           style="fill:#010101;fill-opacity:1"
           clip-path="url(#clipPath39618)"
           id="g39614">
          <g
             style="fill:#010101;fill-opacity:1"
             transform="translate(4776.6562,2005.9375)"
             id="g39620">
            <path
               inkscape:connector-curvature="0"
               id="path39622"
               style="fill:#010101;fill-opacity:1;fill-rule:nonzero;stroke:none"
               d="m 0,0 h -9.621 c -0.219,0 -0.397,0.174 -0.397,0.39 v 7.312 c 0,0.216 0.178,0.391 0.397,0.391 h 1.83 c 0.1,0 0.201,-0.042 0.277,-0.109 L 0.27,0.671 C 0.531,0.43 0.354,0 0,0 m 4.334,0.323 -9.941,9.679 c -0.633,0.615 -1.485,0.963 -2.37,0.963 h -5.017 v 1.851 c 0,1.378 -1.129,2.491 -2.529,2.491 h -28.956 c -1.39,0 -2.529,-1.113 -2.529,-2.491 v -0.39 L -57.273,11.262 -39.084,8.93 -57.51,7.127 -39.148,4.558 -57.51,2.99 -47.008,1.04 V -3.854 H 5.329 v 1.819 c 0,0.889 -0.363,1.735 -0.995,2.358 M -6.771,-16.803 c -1.45,0 -2.622,1.162 -2.622,2.582 0,1.428 1.172,2.581 2.622,2.581 1.442,0 2.622,-1.153 2.622,-2.581 0,-1.42 -1.18,-2.582 -2.622,-2.582 m 0,7.753 c -2.901,0 -5.252,-2.315 -5.252,-5.171 0,-2.847 2.351,-5.164 5.252,-5.164 2.892,0 5.245,2.317 5.245,5.164 0,2.856 -2.353,5.171 -5.245,5.171 M 5.33,-5.229 v -5.513 c 0,-1.375 -1.133,-2.491 -2.529,-2.491 H 0.094 c -0.489,3.303 -3.381,5.843 -6.871,5.843 -3.483,0 -6.375,-2.54 -6.866,-5.843 H -27.36 c -0.49,3.303 -3.381,5.843 -6.864,5.843 -3.482,0 -6.374,-2.54 -6.864,-5.843 h -3.389 c -1.396,0 -2.53,1.116 -2.53,2.491 v 5.513 z m -39.556,-11.574 c -1.45,0 -2.622,1.162 -2.622,2.582 0,1.428 1.172,2.581 2.622,2.581 1.451,0 2.622,-1.153 2.622,-2.581 0,-1.42 -1.171,-2.582 -2.622,-2.582 m 0,7.753 c -2.9,0 -5.244,-2.315 -5.244,-5.171 0,-2.847 2.344,-5.164 5.244,-5.164 2.902,0 5.246,2.317 5.246,5.164 0,2.856 -2.344,5.171 -5.246,5.171" />
          </g>
        </g>
      </g>
    </g>
  </g>
</svg>
