<?xml version="1.0" encoding="UTF-8" standalone="no"?>
<!-- Created with Inkscape (http://www.inkscape.org/) -->

<svg
   xmlns:dc="http://purl.org/dc/elements/1.1/"
   xmlns:cc="http://creativecommons.org/ns#"
   xmlns:rdf="http://www.w3.org/1999/02/22-rdf-syntax-ns#"
   xmlns:svg="http://www.w3.org/2000/svg"
   xmlns="http://www.w3.org/2000/svg"
   xmlns:sodipodi="http://sodipodi.sourceforge.net/DTD/sodipodi-0.dtd"
   xmlns:inkscape="http://www.inkscape.org/namespaces/inkscape"
   width="35"
   height="35.012119"
   viewBox="0 0 9.2604165 9.2636235"
   version="1.1"
   id="svg9232"
   inkscape:version="0.92.2 (5c3e80d, 2017-08-06)"
   sodipodi:docname="furniture.svg">
  <defs
     id="defs9226" />
  <sodipodi:namedview
     id="base"
     pagecolor="#ffffff"
     bordercolor="#666666"
     borderopacity="1.0"
     inkscape:pageopacity="0.0"
     inkscape:pageshadow="2"
     inkscape:zoom="0.35"
     inkscape:cx="318.29222"
     inkscape:cy="52.600118"
     inkscape:document-units="mm"
     inkscape:current-layer="layer1"
     showgrid="false"
     units="px"
     fit-margin-top="0"
     fit-margin-left="0"
     fit-margin-right="0"
     fit-margin-bottom="0" />
  <metadata
     id="metadata9229">
    <rdf:RDF>
      <cc:Work
         rdf:about="">
        <dc:format>image/svg+xml</dc:format>
        <dc:type
           rdf:resource="http://purl.org/dc/dcmitype/StillImage" />
        <dc:title></dc:title>
      </cc:Work>
    </rdf:RDF>
  </metadata>
  <g
     inkscape:label="Layer 1"
     inkscape:groupmode="layer"
     id="layer1"
     transform="translate(114.45291,-153.48682)">
    <g
       transform="matrix(0.27340969,0,0,0.27340969,-106.99763,191.96911)"
       id="g2892"
       style="fill:#010101;fill-opacity:1">
      <g
         transform="matrix(0.35277777,0,0,-0.35277777,6.2495296,-123.8107)"
         id="g39504"
         style="fill:#010101;fill-opacity:1">
        <path
           style="color:#000000;font-style:normal;font-variant:normal;font-weight:normal;font-stretch:normal;font-size:medium;line-height:normal;font-family:sans-serif;font-variant-ligatures:normal;font-variant-position:normal;font-variant-caps:normal;font-variant-numeric:normal;font-variant-alternates:normal;font-feature-settings:normal;text-indent:0;text-align:start;text-decoration:none;text-decoration-line:none;text-decoration-style:solid;text-decoration-color:#000000;letter-spacing:normal;word-spacing:normal;text-transform:none;writing-mode:lr-tb;direction:ltr;text-orientation:mixed;dominant-baseline:auto;baseline-shift:baseline;text-anchor:start;white-space:normal;shape-padding:0;clip-rule:nonzero;display:inline;overflow:visible;visibility:visible;opacity:1;isolation:auto;mix-blend-mode:normal;color-interpolation:sRGB;color-interpolation-filters:linearRGB;solid-color:#000000;solid-opacity:1;vector-effect:none;fill:#010101;fill-opacity:1;fill-rule:nonzero;stroke:none;stroke-width:2;stroke-linecap:butt;stroke-linejoin:miter;stroke-miterlimit:10;stroke-dasharray:none;stroke-dashoffset:0;stroke-opacity:1;color-rendering:auto;image-rendering:auto;shape-rendering:auto;text-rendering:auto;enable-background:accumulate"
           d="m -95.009766,-48.027344 1.033204,1.554688 c 9.370279,14.095198 4.125201,30.081603 0.933593,41.3867185 -1.862785,6.6191169 -1.717863,13.6613831 0.44336,20.1914065 v 0.002 c 6.33383,19.115891 24.350077,32.908203 45.576171,32.908203 C -20.511112,48.015625 1,26.505522 1,0 1,-26.514335 -20.511035,-48.027344 -47.023438,-48.027344 Z m 3.529297,2 h 44.457031 C -21.59184,-46.027344 -1,-25.433665 -1,0 c 0,25.424478 -20.591763,46.015625 -46.023438,46.015625 -20.359267,0 -37.609054,-13.223894 -43.677734,-31.537109 v -0.002 C -92.735177,8.3297008 -92.873635,1.692765 -91.119141,-4.5429688 v -0.00195 c 3.060241,-10.8395202 8.239738,-26.9169642 -0.361328,-41.4824222 z"
           id="path39506"
           inkscape:connector-curvature="0" />
      </g>
      <g
         id="g2883"
         style="fill:#010101;fill-opacity:1">
        <g
           id="g39508"
           transform="matrix(0.35277777,0,0,-0.35277777,-3.7240272,-125.48502)"
           style="fill:#010101;fill-opacity:1;stroke:none">
          <path
             d="m 0,0 c -4.789,0 -8.688,-3.898 -8.688,-8.687 v -1.585 c -1.925,0.684 -5.644,1.585 -11.949,1.585 -6.3,0 -10.025,-0.901 -11.951,-1.585 v 1.585 c 0,4.789 -3.897,8.687 -8.686,8.687 -2.997,0 -5.431,-2.435 -5.431,-5.432 0,-2.195 1.309,-4.167 3.346,-5.01 0.605,-0.256 0.998,-0.849 0.998,-1.507 l 1.087,-4.345 c 0,-3.898 2.954,-7.118 6.741,-7.551 -0.891,-0.426 -1.511,-1.327 -1.511,-2.382 0,-1.463 1.182,-2.646 2.646,-2.646 1.462,0 2.646,1.183 2.646,2.646 0,1.014 -0.578,1.889 -1.416,2.334 h 23.066 c -0.837,-0.445 -1.416,-1.315 -1.416,-2.334 0,-1.463 1.183,-2.646 2.647,-2.646 1.464,0 2.646,1.183 2.646,2.646 0,1.055 -0.62,1.956 -1.511,2.382 3.787,0.433 6.736,3.653 6.736,7.551 l 1.088,4.345 c 0,0.663 0.392,1.251 1.002,1.507 2.031,0.843 3.342,2.815 3.342,5.01 C 5.432,-2.435 2.996,0 0,0"
             style="fill:#010101;fill-opacity:1;fill-rule:nonzero;stroke:none"
             id="path39510"
             inkscape:connector-curvature="0" />
        </g>
        <g
           id="g39512"
           transform="matrix(0.35277777,0,0,-0.35277777,-14.164379,-123.31667)"
           style="fill:#010101;fill-opacity:1;stroke:none">
          <path
             d="m 0,0 c 2.259,0.409 5.203,0.715 8.958,0.715 3.76,0 6.703,-0.306 8.963,-0.715 0.853,3.929 3.654,7.139 7.33,8.581 v 5.798 c 0,9 -7.293,16.293 -16.293,16.293 -8.996,0 -16.294,-7.293 -16.294,-16.293 V 8.581 C -3.655,7.139 -0.854,3.929 0,0"
             style="fill:#010101;fill-opacity:1;fill-rule:nonzero;stroke:none"
             id="path39514"
             inkscape:connector-curvature="0" />
        </g>
      </g>
    </g>
  </g>
</svg>
