<?xml version="1.0" encoding="UTF-8" standalone="no"?>
<!-- Created with Inkscape (http://www.inkscape.org/) -->

<svg
   xmlns:dc="http://purl.org/dc/elements/1.1/"
   xmlns:cc="http://creativecommons.org/ns#"
   xmlns:rdf="http://www.w3.org/1999/02/22-rdf-syntax-ns#"
   xmlns:svg="http://www.w3.org/2000/svg"
   xmlns="http://www.w3.org/2000/svg"
   xmlns:sodipodi="http://sodipodi.sourceforge.net/DTD/sodipodi-0.dtd"
   xmlns:inkscape="http://www.inkscape.org/namespaces/inkscape"
   width="35"
   height="35.012119"
   viewBox="0 0 9.2604165 9.2636235"
   version="1.1"
   id="svg12283"
   inkscape:version="0.92.2 (5c3e80d, 2017-08-06)"
   sodipodi:docname="whatsapp.svg">
  <defs
     id="defs12277" />
  <sodipodi:namedview
     id="base"
     pagecolor="#ffffff"
     bordercolor="#666666"
     borderopacity="1.0"
     inkscape:pageopacity="0.0"
     inkscape:pageshadow="2"
     inkscape:zoom="0.35"
     inkscape:cx="158.29223"
     inkscape:cy="-127.39986"
     inkscape:document-units="px"
     inkscape:current-layer="layer1"
     showgrid="false"
     units="px"
     fit-margin-top="0"
     fit-margin-left="0"
     fit-margin-right="0"
     fit-margin-bottom="0" />
  <metadata
     id="metadata12280">
    <rdf:RDF>
      <cc:Work
         rdf:about="">
        <dc:format>image/svg+xml</dc:format>
        <dc:type
           rdf:resource="http://purl.org/dc/dcmitype/StillImage" />
        <dc:title></dc:title>
      </cc:Work>
    </rdf:RDF>
  </metadata>
  <g
     inkscape:label="Layer 1"
     inkscape:groupmode="layer"
     id="layer1"
     transform="translate(72.119581,-105.86182)">
    <g
       transform="matrix(0.27340969,0,0,0.27340969,-80.873656,130.84872)"
       id="g12249">
      <g
         style="fill:#010101;fill-opacity:1"
         transform="matrix(0.35277777,0,0,-0.35277777,48.888791,-84.972584)"
         id="g39810">
        <path
           inkscape:connector-curvature="0"
           id="path39812"
           style="fill:#010101;fill-opacity:1;fill-rule:evenodd;stroke:none"
           d="m 0,0 c -15.172,0 -27.479,-12.301 -27.479,-27.478 0,-5.194 1.444,-10.051 3.944,-14.191 l -4.961,-14.741 15.215,4.867 c 3.939,-2.175 8.466,-3.415 13.281,-3.415 15.18,0 27.484,12.299 27.484,27.48 C 27.484,-12.301 15.18,0 0,0 m 0,-50.354 c -4.643,0 -8.971,1.39 -12.584,3.778 l -8.791,-2.808 2.857,8.494 c -2.74,3.769 -4.357,8.407 -4.357,13.412 0,12.615 10.265,22.878 22.875,22.878 12.617,0 22.877,-10.263 22.877,-22.878 0,-12.611 -10.26,-22.876 -22.877,-22.876 m 12.889,16.632 c -0.69,0.375 -4.078,2.199 -4.711,2.465 -0.629,0.25 -1.102,0.387 -1.592,-0.295 -0.492,-0.685 -1.897,-2.219 -2.322,-2.67 -0.427,-0.453 -0.838,-0.494 -1.527,-0.116 -0.686,0.379 -2.92,1.202 -5.51,3.69 -2.015,1.936 -3.338,4.289 -3.721,5.006 -0.385,0.716 0,1.083 0.363,1.421 0.324,0.304 0.731,0.794 1.1,1.19 0.361,0.393 0.491,0.682 0.742,1.142 0.254,0.456 0.148,0.872 -0.013,1.231 -0.161,0.356 -1.434,3.861 -1.966,5.289 -0.532,1.428 -1.128,1.216 -1.535,1.227 -0.408,0.015 -0.875,0.089 -1.338,0.108 -0.475,0.018 -1.238,-0.13 -1.906,-0.805 -0.669,-0.677 -2.548,-2.308 -2.676,-5.756 -0.128,-3.452 2.26,-6.883 2.591,-7.364 0.334,-0.479 4.56,-7.962 11.585,-11.041 7.027,-3.074 7.067,-2.137 8.355,-2.068 1.293,0.067 4.213,1.546 4.862,3.155 0.641,1.618 0.693,3.023 0.53,3.319 -0.163,0.304 -0.626,0.493 -1.311,0.872" />
      </g>
      <g
         style="fill:#010101;fill-opacity:1"
         transform="matrix(0.35277777,0,0,-0.35277777,65.535492,-74.451093)"
         id="g39840">
        <path
           inkscape:connector-curvature="0"
           id="path39842"
           d="m -95.009766,-48.027344 1.03125,1.554688 c 9.36932,14.095213 4.125187,30.081655 0.933594,41.3867185 -1.862785,6.6191169 -1.717863,13.6613831 0.44336,20.1914065 v 0.002 c 6.33383,19.115891 24.350077,32.908203 45.576171,32.908203 C -20.513065,48.015625 1,26.505548 1,0 1,-26.514361 -20.512988,-48.027344 -47.025391,-48.027344 Z m 3.527344,2 h 44.457031 C -21.593793,-46.027344 -1,-25.433639 -1,0 c 0,25.424452 -20.593716,46.015625 -46.025391,46.015625 -20.359267,0 -37.609054,-13.223894 -43.677734,-31.537109 v -0.002 C -92.73713,8.3297008 -92.873635,1.692765 -91.119141,-4.5429688 v -0.00195 c 3.060271,-10.8396262 8.237097,-26.9169242 -0.363281,-41.4824222 z"
           style="color:#000000;font-style:normal;font-variant:normal;font-weight:normal;font-stretch:normal;font-size:medium;line-height:normal;font-family:sans-serif;font-variant-ligatures:normal;font-variant-position:normal;font-variant-caps:normal;font-variant-numeric:normal;font-variant-alternates:normal;font-feature-settings:normal;text-indent:0;text-align:start;text-decoration:none;text-decoration-line:none;text-decoration-style:solid;text-decoration-color:#000000;letter-spacing:normal;word-spacing:normal;text-transform:none;writing-mode:lr-tb;direction:ltr;text-orientation:mixed;dominant-baseline:auto;baseline-shift:baseline;text-anchor:start;white-space:normal;shape-padding:0;clip-rule:nonzero;display:inline;overflow:visible;visibility:visible;opacity:1;isolation:auto;mix-blend-mode:normal;color-interpolation:sRGB;color-interpolation-filters:linearRGB;solid-color:#000000;solid-opacity:1;vector-effect:none;fill:#010101;fill-opacity:1;fill-rule:nonzero;stroke:none;stroke-width:2;stroke-linecap:butt;stroke-linejoin:miter;stroke-miterlimit:10;stroke-dasharray:none;stroke-dashoffset:0;stroke-opacity:1;color-rendering:auto;image-rendering:auto;shape-rendering:auto;text-rendering:auto;enable-background:accumulate" />
      </g>
    </g>
  </g>
</svg>
